<?xml version="1.0" encoding="utf-8" standalone="no"?>
<!DOCTYPE svg PUBLIC "-//W3C//DTD SVG 1.1//EN"
  "http://www.w3.org/Graphics/SVG/1.1/DTD/svg11.dtd">
<svg xmlns:xlink="http://www.w3.org/1999/xlink" width="455.76pt" height="167.76pt" viewBox="0 0 455.76 167.76" xmlns="http://www.w3.org/2000/svg" version="1.1">
 <metadata>
  <rdf:RDF xmlns:dc="http://purl.org/dc/elements/1.1/" xmlns:cc="http://creativecommons.org/ns#" xmlns:rdf="http://www.w3.org/1999/02/22-rdf-syntax-ns#">
   <cc:Work>
    <dc:type rdf:resource="http://purl.org/dc/dcmitype/StillImage"/>
    <dc:date>2026-02-04T14:50:20.560699</dc:date>
    <dc:format>image/svg+xml</dc:format>
    <dc:creator>
     <cc:Agent>
      <dc:title>Matplotlib v3.5.1, https://matplotlib.org/</dc:title>
     </cc:Agent>
    </dc:creator>
   </cc:Work>
  </rdf:RDF>
 </metadata>
 <defs>
  <style type="text/css">*{stroke-linejoin: round; stroke-linecap: butt}</style>
 </defs>
 <g id="figure_1">
  <g id="patch_1">
   <path d="M 0 167.76 
L 455.76 167.76 
L 455.76 0 
L 0 0 
z
" style="fill: #ffffff"/>
  </g>
  <g id="axes_1">
   <g id="patch_2">
    <path d="M 27.324254 142.698622 
L 222.66304 142.698622 
L 222.66304 15.88767 
L 27.324254 15.88767 
z
" style="fill: #ffffff"/>
   </g>
   <g id="matplotlib.axis_1">
    <g id="xtick_1">
     <g id="line2d_1">
      <defs>
       <path id="m731e186d30" d="M 0 0 
L 0 -3 
" style="stroke: #333333; stroke-width: 0.6"/>
      </defs>
      <g>
       <use xlink:href="#m731e186d30" x="27.324254" y="142.698622" style="fill: #333333; stroke: #333333; stroke-width: 0.6"/>
      </g>
     </g>
     <g id="text_1">
      <!-- $\mathdefault{0.00}$ -->
      <g style="fill: #333333" transform="translate(21.244256 151.08902)scale(0.07 -0.07)">
       <defs>
        <path id="LinLibertineT-30" d="M 1485 3679 
C 1594 3679 1696 3641 1773 3571 
C 1971 3405 2144 2918 2144 2060 
C 2144 1472 2125 1068 2035 742 
C 1894 217 1581 160 1466 160 
C 870 160 806 1254 806 1811 
C 806 3385 1197 3679 1485 3679 
z
M 1459 -64 
C 1952 -64 2701 435 2701 1939 
C 2701 2572 2547 3116 2266 3488 
C 2099 3711 1830 3904 1485 3904 
C 851 3904 250 3148 250 1881 
C 250 1196 461 556 813 204 
C 992 25 1210 -64 1459 -64 
z
" transform="scale(0.015625)"/>
        <path id="LibertineMathMI-94" d="M 365 275 
C 365 89 518 -64 704 -64 
C 890 -64 1043 89 1043 275 
C 1043 460 890 614 704 614 
C 518 614 365 460 365 275 
z
" transform="scale(0.015625)"/>
       </defs>
       <use xlink:href="#LinLibertineT-30" transform="scale(0.996264)"/>
       <use xlink:href="#LibertineMathMI-94" transform="translate(47.92029 0)scale(0.996264)"/>
       <use xlink:href="#LinLibertineT-30" transform="translate(71.531789 0)scale(0.996264)"/>
       <use xlink:href="#LinLibertineT-30" transform="translate(117.858081 0)scale(0.996264)"/>
      </g>
     </g>
    </g>
    <g id="xtick_2">
     <g id="line2d_2">
      <g>
       <use xlink:href="#m731e186d30" x="76.158951" y="142.698622" style="fill: #333333; stroke: #333333; stroke-width: 0.6"/>
      </g>
     </g>
     <g id="text_2">
      <!-- $\mathdefault{0.25}$ -->
      <g style="fill: #333333" transform="translate(70.078952 151.08902)scale(0.07 -0.07)">
       <defs>
        <path id="LinLibertineT-32" d="M 390 2999 
C 390 2866 512 2752 646 2752 
C 755 2752 947 2866 947 3006 
C 947 3057 934 3095 922 3139 
C 909 3184 870 3241 870 3292 
C 870 3451 1037 3679 1504 3679 
C 1734 3679 2061 3521 2061 2910 
C 2061 2501 1914 2168 1536 1783 
L 1062 1314 
C 435 672 333 364 333 -13 
C 333 -13 659 0 864 0 
L 1984 0 
C 2189 0 2483 -13 2483 -13 
C 2566 326 2630 807 2637 1000 
C 2598 1032 2515 1044 2451 1032 
C 2342 576 2234 416 2003 416 
L 864 416 
C 864 724 1306 1160 1338 1192 
L 1984 1815 
C 2349 2168 2624 2450 2624 2936 
C 2624 3622 2061 3904 1542 3904 
C 832 3904 390 3381 390 2999 
z
" transform="scale(0.015625)"/>
        <path id="LinLibertineT-35" d="M 2042 1209 
C 2042 605 1722 160 1338 160 
C 1094 160 1011 318 915 446 
C 832 554 723 649 589 649 
C 467 649 346 541 346 414 
C 346 153 890 -64 1254 -64 
C 2048 -64 2611 522 2611 1323 
C 2611 1940 2182 2496 1466 2496 
C 1190 2496 954 2438 838 2393 
L 966 3468 
C 1203 3443 1408 3411 1715 3411 
C 1907 3404 2125 3417 2387 3443 
L 2490 3878 
L 2445 3904 
C 2080 3872 1734 3840 1395 3840 
C 1158 3840 928 3852 704 3872 
L 486 2023 
C 826 2150 1069 2176 1299 2176 
C 1715 2176 2042 1902 2042 1209 
z
" transform="scale(0.015625)"/>
       </defs>
       <use xlink:href="#LinLibertineT-30" transform="scale(0.996264)"/>
       <use xlink:href="#LibertineMathMI-94" transform="translate(47.92029 0)scale(0.996264)"/>
       <use xlink:href="#LinLibertineT-32" transform="translate(71.531789 0)scale(0.996264)"/>
       <use xlink:href="#LinLibertineT-35" transform="translate(117.858081 0)scale(0.996264)"/>
      </g>
     </g>
    </g>
    <g id="xtick_3">
     <g id="line2d_3">
      <g>
       <use xlink:href="#m731e186d30" x="124.993647" y="142.698622" style="fill: #333333; stroke: #333333; stroke-width: 0.6"/>
      </g>
     </g>
     <g id="text_3">
      <!-- $\mathdefault{0.50}$ -->
      <g style="fill: #333333" transform="translate(118.913648 151.08902)scale(0.07 -0.07)">
       <use xlink:href="#LinLibertineT-30" transform="scale(0.996264)"/>
       <use xlink:href="#LibertineMathMI-94" transform="translate(47.92029 0)scale(0.996264)"/>
       <use xlink:href="#LinLibertineT-35" transform="translate(71.531789 0)scale(0.996264)"/>
       <use xlink:href="#LinLibertineT-30" transform="translate(117.858081 0)scale(0.996264)"/>
      </g>
     </g>
    </g>
    <g id="xtick_4">
     <g id="line2d_4">
      <g>
       <use xlink:href="#m731e186d30" x="173.828343" y="142.698622" style="fill: #333333; stroke: #333333; stroke-width: 0.6"/>
      </g>
     </g>
     <g id="text_4">
      <!-- $\mathdefault{0.75}$ -->
      <g style="fill: #333333" transform="translate(167.748345 151.08902)scale(0.07 -0.07)">
       <defs>
        <path id="LinLibertineT-37" d="M 1088 3423 
L 2234 3423 
C 1734 2189 1229 948 794 -20 
L 845 -64 
L 1280 -45 
C 1645 1037 1997 2093 2714 3833 
L 2611 3904 
C 2502 3878 2362 3840 2118 3840 
L 800 3840 
C 582 3840 595 3904 480 3929 
C 461 3923 454 3923 454 3904 
C 448 3599 378 3217 326 2886 
C 397 2867 461 2861 531 2867 
C 672 3379 883 3423 1088 3423 
z
" transform="scale(0.015625)"/>
       </defs>
       <use xlink:href="#LinLibertineT-30" transform="scale(0.996264)"/>
       <use xlink:href="#LibertineMathMI-94" transform="translate(47.92029 0)scale(0.996264)"/>
       <use xlink:href="#LinLibertineT-37" transform="translate(71.531789 0)scale(0.996264)"/>
       <use xlink:href="#LinLibertineT-35" transform="translate(117.858081 0)scale(0.996264)"/>
      </g>
     </g>
    </g>
    <g id="xtick_5">
     <g id="line2d_5">
      <g>
       <use xlink:href="#m731e186d30" x="222.66304" y="142.698622" style="fill: #333333; stroke: #333333; stroke-width: 0.6"/>
      </g>
     </g>
     <g id="text_5">
      <!-- $\mathdefault{1.00}$ -->
      <g style="fill: #333333" transform="translate(216.583041 151.08902)scale(0.07 -0.07)">
       <defs>
        <path id="LinLibertineT-31" d="M 1843 793 
L 1843 3014 
C 1843 3398 1850 3789 1862 3872 
C 1862 3904 1850 3904 1824 3904 
C 1472 3686 1133 3526 570 3264 
C 582 3193 608 3129 666 3091 
C 960 3212 1101 3251 1222 3251 
C 1331 3251 1350 3097 1350 2880 
L 1350 793 
C 1350 262 1178 230 730 211 
C 691 172 691 38 730 0 
C 1043 6 1274 12 1619 12 
C 1926 12 2080 6 2400 0 
C 2438 38 2438 172 2400 211 
C 1952 230 1843 262 1843 793 
z
" transform="scale(0.015625)"/>
       </defs>
       <use xlink:href="#LinLibertineT-31" transform="scale(0.996264)"/>
       <use xlink:href="#LibertineMathMI-94" transform="translate(47.92029 0)scale(0.996264)"/>
       <use xlink:href="#LinLibertineT-30" transform="translate(71.531789 0)scale(0.996264)"/>
       <use xlink:href="#LinLibertineT-30" transform="translate(117.858081 0)scale(0.996264)"/>
      </g>
     </g>
    </g>
    <g id="text_6">
     <!-- Observation Rate -->
     <g style="fill: #333333" transform="translate(96.847228 162.302965)scale(0.08 -0.08)">
      <defs>
       <path id="LinLibertineT-4f" d="M 2118 3993 
C 2963 3993 3648 3287 3648 1990 
C 3648 840 3098 166 2368 166 
C 1587 166 851 866 851 2099 
C 851 3447 1485 3993 2118 3993 
z
M 4262 2112 
C 4262 3441 3347 4224 2202 4224 
C 960 4224 237 3236 237 1990 
C 237 725 1152 -64 2240 -64 
C 2950 -64 3514 243 3866 744 
C 4122 1110 4262 1572 4262 2112 
z
" transform="scale(0.015625)"/>
       <path id="LinLibertineT-62" d="M 1114 2328 
C 1280 2476 1472 2534 1658 2534 
C 2048 2534 2368 2059 2368 1437 
C 2368 705 2074 153 1466 153 
C 1267 153 1133 294 1005 455 
L 1005 2059 
C 1005 2194 1030 2258 1114 2328 
z
M 1069 2527 
C 1030 2489 1005 2502 1005 2559 
L 1005 3728 
C 1005 4140 1030 4408 1030 4408 
C 1030 4458 1005 4480 947 4480 
C 787 4408 307 4309 51 4288 
C 38 4236 51 4134 90 4096 
C 422 4077 499 4108 499 3576 
L 499 455 
C 499 204 493 89 474 0 
C 506 -52 538 -77 614 -77 
C 653 -39 717 19 768 76 
C 832 153 870 153 941 96 
C 1088 -26 1280 -64 1504 -64 
C 2157 -64 2918 532 2918 1552 
C 2918 2335 2342 2816 1786 2816 
C 1510 2816 1267 2707 1069 2527 
z
" transform="scale(0.015625)"/>
       <path id="LinLibertineT-73" d="M 307 885 
C 333 570 352 269 352 0 
C 416 12 480 19 512 19 
C 557 19 595 19 640 6 
C 813 -39 986 -64 1222 -64 
C 1581 -64 2240 108 2240 743 
C 2240 1180 1926 1437 1491 1597 
C 1107 1745 851 1841 851 2194 
C 851 2457 1082 2604 1299 2604 
C 1440 2604 1811 2553 1894 2008 
C 1933 1969 2061 1976 2099 2014 
C 2118 2245 2131 2482 2138 2694 
C 1939 2726 1632 2816 1299 2816 
C 826 2816 397 2508 397 2097 
C 397 1629 608 1430 1101 1225 
C 1632 1007 1754 872 1754 596 
C 1754 281 1446 147 1210 147 
C 960 147 819 230 755 301 
C 614 448 544 731 506 891 
C 467 930 346 923 307 885 
z
" transform="scale(0.015625)"/>
       <path id="LinLibertineT-65" d="M 794 1817 
C 915 2546 1363 2604 1517 2604 
C 1760 2604 2048 2469 2048 1927 
C 2048 1869 2022 1836 1952 1836 
L 794 1817 
z
M 2470 598 
C 2234 352 2048 249 1677 249 
C 1446 249 1178 385 979 714 
C 851 928 774 1225 774 1600 
L 2477 1587 
C 2554 1587 2598 1625 2598 1696 
C 2598 2237 2406 2816 1517 2816 
C 960 2816 237 2282 237 1302 
C 237 940 326 592 538 346 
C 755 89 1056 -64 1517 -64 
C 2003 -64 2349 160 2605 495 
C 2586 559 2547 592 2470 598 
z
" transform="scale(0.015625)"/>
       <path id="LinLibertineT-72" d="M 1126 2298 
C 1114 2553 1107 2719 1075 2783 
C 1062 2816 1050 2835 998 2835 
C 819 2764 653 2707 211 2649 
C 198 2611 211 2508 224 2470 
C 570 2438 640 2406 640 2036 
L 640 791 
C 640 262 563 236 166 211 
C 128 172 128 38 166 0 
C 390 6 640 12 896 12 
C 1152 12 1446 6 1670 0 
C 1709 38 1709 172 1670 211 
C 1222 243 1146 262 1146 791 
L 1146 1679 
C 1146 1844 1222 1991 1299 2106 
C 1370 2208 1517 2419 1594 2419 
C 1651 2419 1709 2406 1760 2336 
C 1805 2272 1882 2189 1990 2189 
C 2144 2189 2291 2349 2291 2508 
C 2291 2630 2176 2816 1907 2816 
C 1606 2816 1344 2534 1197 2285 
C 1158 2215 1126 2266 1126 2298 
z
" transform="scale(0.015625)"/>
       <path id="LinLibertineT-76" d="M 2080 2540 
C 2426 2515 2464 2439 2330 2115 
L 1811 869 
C 1709 622 1677 622 1574 889 
L 1114 2115 
C 998 2420 973 2496 1312 2540 
C 1350 2579 1350 2713 1312 2752 
C 1101 2745 877 2739 666 2739 
C 454 2739 262 2745 70 2752 
C 32 2713 32 2579 70 2540 
C 410 2502 454 2401 582 2077 
L 1402 69 
C 1440 -26 1478 -64 1562 -64 
C 1626 -64 1670 -26 1715 82 
L 2566 2070 
C 2688 2350 2758 2509 3117 2540 
C 3155 2579 3155 2713 3117 2752 
C 2989 2745 2835 2739 2669 2739 
C 2458 2739 2240 2745 2080 2752 
C 2042 2713 2042 2579 2080 2540 
z
" transform="scale(0.015625)"/>
       <path id="LinLibertineT-61" d="M 1875 1494 
L 1875 647 
C 1875 564 1837 519 1786 480 
C 1619 346 1402 198 1222 198 
C 902 198 762 455 762 654 
C 762 942 896 1237 1370 1359 
L 1875 1494 
z
M 1875 307 
C 1914 108 1984 -64 2304 -64 
C 2547 -64 2778 44 2912 172 
C 2899 249 2874 307 2803 345 
C 2758 307 2650 243 2566 243 
C 2381 243 2374 493 2374 788 
L 2374 1731 
C 2374 2643 1875 2816 1408 2816 
C 883 2816 352 2469 352 2104 
C 352 1950 429 1873 576 1873 
C 762 1873 877 2007 877 2091 
C 877 2136 870 2181 858 2206 
C 851 2226 845 2264 845 2335 
C 845 2534 1114 2604 1357 2604 
C 1574 2604 1875 2495 1875 1770 
C 1875 1725 1856 1699 1837 1693 
L 1286 1558 
C 672 1404 230 1064 230 628 
C 230 102 589 -64 1037 -64 
C 1261 -64 1453 -13 1734 204 
L 1862 307 
L 1875 307 
z
" transform="scale(0.015625)"/>
       <path id="LinLibertineT-74" d="M 275 2752 
C 186 2752 160 2675 160 2623 
L 160 2540 
C 160 2508 166 2502 192 2502 
L 570 2502 
L 570 570 
C 570 115 768 -64 1062 -64 
C 1357 -64 1677 76 1926 358 
C 1914 422 1875 461 1811 467 
C 1645 339 1453 288 1286 288 
C 1114 288 1075 480 1075 878 
L 1075 2502 
L 1741 2502 
C 1805 2502 1894 2527 1894 2585 
L 1894 2713 
C 1894 2739 1875 2752 1843 2752 
L 1075 2752 
L 1075 3001 
C 1075 3417 1101 3673 1101 3673 
C 1101 3712 1082 3731 1050 3731 
C 1024 3731 966 3705 909 3673 
C 838 3635 774 3603 691 3584 
C 614 3558 550 3539 550 3494 
C 550 3417 570 3462 570 2752 
L 275 2752 
z
" transform="scale(0.015625)"/>
       <path id="LinLibertineT-69" d="M 576 3852 
C 576 3686 730 3519 883 3519 
C 1062 3519 1216 3692 1216 3827 
C 1216 3980 1082 4160 909 4160 
C 755 4160 576 4006 576 3852 
z
M 1158 785 
L 1158 2040 
C 1158 2356 1184 2769 1184 2769 
C 1184 2796 1152 2816 1101 2816 
C 922 2743 666 2683 224 2624 
C 211 2585 224 2483 237 2444 
C 589 2413 653 2375 653 2015 
L 653 785 
C 653 261 582 242 192 211 
C 154 172 154 38 192 0 
C 403 6 653 12 909 12 
C 1165 12 1408 6 1619 0 
C 1658 38 1658 172 1619 211 
C 1229 236 1158 261 1158 785 
z
" transform="scale(0.015625)"/>
       <path id="LinLibertineT-6f" d="M 262 1315 
C 262 660 698 -64 1606 -64 
C 2016 -64 2330 83 2547 294 
C 2835 577 2963 981 2963 1372 
C 2963 2040 2598 2816 1619 2816 
C 1197 2816 851 2643 614 2367 
C 384 2091 262 1719 262 1315 
z
M 1523 2591 
C 2074 2591 2413 2091 2413 1167 
C 2413 358 1997 160 1696 160 
C 1030 160 813 968 813 1462 
C 813 2020 947 2591 1523 2591 
z
" transform="scale(0.015625)"/>
       <path id="LinLibertineT-6e" d="M 1178 2298 
C 1139 2253 1101 2240 1101 2298 
C 1094 2470 1082 2719 1050 2783 
C 1037 2816 1024 2835 973 2835 
C 794 2764 627 2707 186 2649 
C 173 2611 186 2508 198 2470 
C 544 2438 614 2406 614 2036 
L 614 791 
C 614 268 550 243 166 211 
C 128 172 128 38 166 0 
C 358 6 614 12 870 12 
C 1126 12 1318 6 1510 0 
C 1549 38 1549 172 1510 211 
C 1184 243 1120 268 1120 791 
L 1120 1838 
C 1120 1972 1178 2049 1229 2106 
C 1472 2342 1760 2483 2010 2483 
C 2138 2483 2272 2400 2349 2253 
C 2413 2125 2426 1953 2426 1761 
L 2426 791 
C 2426 268 2362 243 2029 211 
C 1997 172 1997 38 2029 0 
C 2221 6 2426 12 2682 12 
C 2938 12 3168 6 3360 0 
C 3392 38 3392 172 3360 211 
C 3002 243 2931 268 2931 791 
L 2931 1742 
C 2931 2093 2906 2400 2758 2598 
C 2650 2739 2451 2816 2227 2816 
C 1914 2816 1555 2732 1178 2298 
z
" transform="scale(0.015625)"/>
       <path id="LinLibertineT-52" d="M 1741 4006 
C 2131 4006 2592 3864 2592 3101 
C 2592 2293 2138 2112 1517 2112 
L 1210 2112 
L 1210 3592 
C 1210 3780 1286 4006 1741 4006 
z
M 1210 812 
L 1210 1894 
C 1747 1894 1869 1798 1958 1651 
L 2643 537 
C 2829 206 3104 -64 3488 -64 
C 3584 -64 3693 -52 3757 -20 
C 3782 25 3776 83 3750 134 
C 3462 134 3302 356 3136 636 
L 2330 2003 
C 2605 2092 3181 2428 3181 3107 
C 3181 3431 3072 3696 2842 3915 
C 2534 4204 2138 4224 1734 4224 
C 1434 4224 1165 4179 934 4179 
C 710 4179 410 4185 109 4191 
C 70 4153 70 4019 109 3980 
C 557 3961 666 3928 666 3392 
L 666 792 
C 666 263 557 230 109 211 
C 70 172 70 38 109 0 
C 397 6 698 12 941 12 
C 1184 12 1485 6 1766 0 
C 1805 38 1805 172 1766 211 
C 1318 230 1210 263 1210 800 
L 1210 812 
z
" transform="scale(0.015625)"/>
      </defs>
      <use xlink:href="#LinLibertineT-4f" transform="scale(0.996264)"/>
      <use xlink:href="#LinLibertineT-62" transform="translate(69.9377 0)scale(0.996264)"/>
      <use xlink:href="#LinLibertineT-73" transform="translate(119.053519 0)scale(0.996264)"/>
      <use xlink:href="#LinLibertineT-65" transform="translate(157.907846 0)scale(0.996264)"/>
      <use xlink:href="#LinLibertineT-72" transform="translate(202.440798 0)scale(0.996264)"/>
      <use xlink:href="#LinLibertineT-76" transform="translate(240.996212 0)scale(0.996264)"/>
      <use xlink:href="#LinLibertineT-61" transform="translate(290.5105 0)scale(0.996264)"/>
      <use xlink:href="#LinLibertineT-74" transform="translate(336.039732 0)scale(0.996264)"/>
      <use xlink:href="#LinLibertineT-69" transform="translate(367.521666 0)scale(0.996264)"/>
      <use xlink:href="#LinLibertineT-6f" transform="translate(394.520411 0)scale(0.996264)"/>
      <use xlink:href="#LinLibertineT-6e" transform="translate(444.732081 0)scale(0.996264)"/>
      <use xlink:href="#LinLibertineT-52" transform="translate(523.636172 0)scale(0.996264)"/>
      <use xlink:href="#LinLibertineT-61" transform="translate(582.116851 0)scale(0.996264)"/>
      <use xlink:href="#LinLibertineT-74" transform="translate(627.646083 0)scale(0.996264)"/>
      <use xlink:href="#LinLibertineT-65" transform="translate(659.128017 0)scale(0.996264)"/>
     </g>
    </g>
   </g>
   <g id="matplotlib.axis_2">
    <g id="ytick_1">
     <g id="line2d_6">
      <path d="M 27.324254 142.698622 
L 222.66304 142.698622 
" clip-path="url(#p8311ade933)" style="fill: none; stroke: #cccccc; stroke-opacity: 0.5; stroke-width: 0.4; stroke-linecap: square"/>
     </g>
     <g id="line2d_7">
      <defs>
       <path id="ma9cb9f59b9" d="M 0 0 
L 3 0 
" style="stroke: #333333; stroke-width: 0.6"/>
      </defs>
      <g>
       <use xlink:href="#ma9cb9f59b9" x="27.324254" y="142.698622" style="fill: #333333; stroke: #333333; stroke-width: 0.6"/>
      </g>
     </g>
     <g id="text_7">
      <!-- $\mathdefault{0.0}$ -->
      <g style="fill: #333333" transform="translate(15.046076 145.143821)scale(0.07 -0.07)">
       <use xlink:href="#LinLibertineT-30" transform="scale(0.996264)"/>
       <use xlink:href="#LibertineMathMI-94" transform="translate(47.92029 0)scale(0.996264)"/>
       <use xlink:href="#LinLibertineT-30" transform="translate(71.531789 0)scale(0.996264)"/>
      </g>
     </g>
    </g>
    <g id="ytick_2">
     <g id="line2d_8">
      <path d="M 27.324254 119.215113 
L 222.66304 119.215113 
" clip-path="url(#p8311ade933)" style="fill: none; stroke: #cccccc; stroke-opacity: 0.5; stroke-width: 0.4; stroke-linecap: square"/>
     </g>
     <g id="line2d_9">
      <g>
       <use xlink:href="#ma9cb9f59b9" x="27.324254" y="119.215113" style="fill: #333333; stroke: #333333; stroke-width: 0.6"/>
      </g>
     </g>
     <g id="text_8">
      <!-- $\mathdefault{0.2}$ -->
      <g style="fill: #333333" transform="translate(15.046076 121.660312)scale(0.07 -0.07)">
       <use xlink:href="#LinLibertineT-30" transform="scale(0.996264)"/>
       <use xlink:href="#LibertineMathMI-94" transform="translate(47.92029 0)scale(0.996264)"/>
       <use xlink:href="#LinLibertineT-32" transform="translate(71.531789 0)scale(0.996264)"/>
      </g>
     </g>
    </g>
    <g id="ytick_3">
     <g id="line2d_10">
      <path d="M 27.324254 95.731603 
L 222.66304 95.731603 
" clip-path="url(#p8311ade933)" style="fill: none; stroke: #cccccc; stroke-opacity: 0.5; stroke-width: 0.4; stroke-linecap: square"/>
     </g>
     <g id="line2d_11">
      <g>
       <use xlink:href="#ma9cb9f59b9" x="27.324254" y="95.731603" style="fill: #333333; stroke: #333333; stroke-width: 0.6"/>
      </g>
     </g>
     <g id="text_9">
      <!-- $\mathdefault{0.4}$ -->
      <g style="fill: #333333" transform="translate(15.046076 98.176802)scale(0.07 -0.07)">
       <defs>
        <path id="LinLibertineT-34" d="M 1734 3246 
L 1734 1408 
L 512 1408 
C 838 1931 1293 2646 1734 3246 
z
M 2752 1408 
L 2221 1408 
L 2221 3272 
C 2221 3591 2221 3840 2234 3891 
L 2221 3904 
L 2016 3904 
C 1971 3904 1939 3865 1914 3833 
C 1510 3342 768 2288 179 1375 
C 198 1279 237 1107 429 1107 
L 1734 1107 
L 1734 522 
C 1734 230 1491 230 1216 211 
C 1178 172 1178 38 1216 0 
C 1421 6 1677 12 1971 12 
C 2221 12 2464 6 2669 0 
C 2707 38 2707 172 2669 211 
C 2355 236 2221 223 2221 522 
L 2221 1107 
L 2662 1107 
C 2752 1107 2848 1228 2848 1305 
C 2848 1369 2822 1408 2752 1408 
z
" transform="scale(0.015625)"/>
       </defs>
       <use xlink:href="#LinLibertineT-30" transform="scale(0.996264)"/>
       <use xlink:href="#LibertineMathMI-94" transform="translate(47.92029 0)scale(0.996264)"/>
       <use xlink:href="#LinLibertineT-34" transform="translate(71.531789 0)scale(0.996264)"/>
      </g>
     </g>
    </g>
    <g id="ytick_4">
     <g id="line2d_12">
      <path d="M 27.324254 72.248093 
L 222.66304 72.248093 
" clip-path="url(#p8311ade933)" style="fill: none; stroke: #cccccc; stroke-opacity: 0.5; stroke-width: 0.4; stroke-linecap: square"/>
     </g>
     <g id="line2d_13">
      <g>
       <use xlink:href="#ma9cb9f59b9" x="27.324254" y="72.248093" style="fill: #333333; stroke: #333333; stroke-width: 0.6"/>
      </g>
     </g>
     <g id="text_10">
      <!-- $\mathdefault{0.6}$ -->
      <g style="fill: #333333" transform="translate(15.046076 74.693292)scale(0.07 -0.07)">
       <defs>
        <path id="LinLibertineT-36" d="M 864 1965 
C 1075 2105 1286 2112 1395 2112 
C 2022 2112 2163 1499 2163 1180 
C 2163 478 1894 160 1581 160 
C 1178 160 813 376 813 1467 
C 813 1614 826 1780 864 1965 
z
M 922 2195 
C 1094 2775 1504 3419 2355 3737 
C 2355 3814 2330 3871 2278 3904 
C 1632 3712 1235 3444 877 3030 
C 480 2571 282 1990 282 1486 
C 282 191 1018 -64 1510 -64 
C 2349 -64 2694 746 2694 1295 
C 2694 1844 2400 2336 1530 2336 
C 1363 2336 1114 2284 922 2195 
z
" transform="scale(0.015625)"/>
       </defs>
       <use xlink:href="#LinLibertineT-30" transform="scale(0.996264)"/>
       <use xlink:href="#LibertineMathMI-94" transform="translate(47.92029 0)scale(0.996264)"/>
       <use xlink:href="#LinLibertineT-36" transform="translate(71.531789 0)scale(0.996264)"/>
      </g>
     </g>
    </g>
    <g id="ytick_5">
     <g id="line2d_14">
      <path d="M 27.324254 48.764584 
L 222.66304 48.764584 
" clip-path="url(#p8311ade933)" style="fill: none; stroke: #cccccc; stroke-opacity: 0.5; stroke-width: 0.4; stroke-linecap: square"/>
     </g>
     <g id="line2d_15">
      <g>
       <use xlink:href="#ma9cb9f59b9" x="27.324254" y="48.764584" style="fill: #333333; stroke: #333333; stroke-width: 0.6"/>
      </g>
     </g>
     <g id="text_11">
      <!-- $\mathdefault{0.8}$ -->
      <g style="fill: #333333" transform="translate(15.046076 51.209783)scale(0.07 -0.07)">
       <defs>
        <path id="LinLibertineT-38" d="M 1498 3679 
C 1914 3679 2067 3405 2067 3110 
C 2067 2764 1728 2476 1555 2348 
L 1357 2470 
C 954 2732 909 2944 909 3142 
C 909 3437 1114 3679 1498 3679 
z
M 2515 3104 
C 2515 3565 2157 3904 1530 3904 
C 877 3904 454 3513 454 3020 
C 454 2662 627 2400 1018 2156 
L 1184 2054 
C 998 1958 826 1843 666 1702 
C 403 1472 294 1184 294 934 
C 294 281 755 -64 1434 -64 
C 2272 -64 2682 550 2682 1036 
C 2682 1408 2522 1734 2182 1939 
L 1728 2214 
C 2029 2361 2515 2694 2515 3104 
z
M 1446 160 
C 1158 160 723 358 723 934 
C 723 1126 806 1574 1357 1939 
L 1658 1760 
C 2054 1516 2214 1216 2214 908 
C 2214 268 1734 160 1446 160 
z
" transform="scale(0.015625)"/>
       </defs>
       <use xlink:href="#LinLibertineT-30" transform="scale(0.996264)"/>
       <use xlink:href="#LibertineMathMI-94" transform="translate(47.92029 0)scale(0.996264)"/>
       <use xlink:href="#LinLibertineT-38" transform="translate(71.531789 0)scale(0.996264)"/>
      </g>
     </g>
    </g>
    <g id="ytick_6">
     <g id="line2d_16">
      <path d="M 27.324254 25.281074 
L 222.66304 25.281074 
" clip-path="url(#p8311ade933)" style="fill: none; stroke: #cccccc; stroke-opacity: 0.5; stroke-width: 0.4; stroke-linecap: square"/>
     </g>
     <g id="line2d_17">
      <g>
       <use xlink:href="#ma9cb9f59b9" x="27.324254" y="25.281074" style="fill: #333333; stroke: #333333; stroke-width: 0.6"/>
      </g>
     </g>
     <g id="text_12">
      <!-- $\mathdefault{1.0}$ -->
      <g style="fill: #333333" transform="translate(15.046076 27.726273)scale(0.07 -0.07)">
       <use xlink:href="#LinLibertineT-31" transform="scale(0.996264)"/>
       <use xlink:href="#LibertineMathMI-94" transform="translate(47.92029 0)scale(0.996264)"/>
       <use xlink:href="#LinLibertineT-30" transform="translate(71.531789 0)scale(0.996264)"/>
      </g>
     </g>
    </g>
    <g id="text_13">
     <!-- Top-1 Accuracy -->
     <g style="fill: #333333" transform="translate(9.189042 105.004704)rotate(-90)scale(0.08 -0.08)">
      <defs>
       <path id="LinLibertineT-54" d="M 2240 796 
L 2240 3254 
C 2240 3666 2304 3910 2534 3910 
L 2675 3910 
C 3155 3910 3456 3743 3565 3247 
C 3635 3247 3725 3254 3782 3280 
C 3738 3575 3706 3904 3699 4192 
C 3699 4198 3686 4211 3680 4211 
C 3462 4192 2752 4160 2246 4160 
L 1696 4160 
C 1203 4160 448 4192 205 4211 
C 192 4211 179 4198 179 4192 
C 154 3904 90 3569 19 3260 
C 83 3235 160 3228 237 3228 
C 365 3743 659 3910 1082 3910 
L 1395 3910 
C 1632 3910 1696 3666 1696 3273 
L 1696 796 
C 1696 262 1587 230 1075 211 
C 1037 172 1037 38 1075 0 
C 1389 6 1715 12 1971 12 
C 2214 12 2541 6 2861 0 
C 2899 38 2899 172 2861 211 
C 2349 230 2240 262 2240 796 
z
" transform="scale(0.015625)"/>
       <path id="LinLibertineT-70" d="M 1120 2123 
C 1286 2328 1581 2521 1766 2521 
C 2176 2521 2528 2059 2528 1334 
C 2528 808 2342 153 1626 153 
C 1510 153 1286 185 1171 288 
C 1043 403 1018 442 1018 673 
L 1018 1841 
C 1018 1976 1043 2033 1120 2123 
z
M 998 2361 
C 992 2553 979 2719 947 2783 
C 934 2816 922 2835 870 2835 
C 691 2764 525 2707 83 2649 
C 70 2611 83 2508 96 2470 
C 442 2438 512 2405 512 2033 
L 512 -725 
C 512 -1272 442 -1305 51 -1325 
C 13 -1364 13 -1498 51 -1536 
C 275 -1530 512 -1524 768 -1524 
C 1024 -1524 1331 -1530 1542 -1536 
C 1581 -1498 1581 -1364 1542 -1325 
C 1088 -1299 1018 -1272 1018 -725 
L 1018 -13 
C 1018 70 1043 64 1107 32 
C 1267 -26 1459 -64 1664 -64 
C 2022 -64 2342 44 2605 294 
C 2906 589 3078 987 3078 1507 
C 3078 2187 2598 2816 1946 2816 
C 1651 2816 1325 2617 1069 2335 
C 1030 2296 1005 2296 998 2361 
z
" transform="scale(0.015625)"/>
       <path id="LinLibertineT-2d" d="M 1734 1408 
C 1818 1408 1907 1587 1907 1664 
C 1907 1728 1882 1792 1818 1792 
L 416 1792 
C 339 1792 256 1644 256 1529 
C 256 1465 294 1408 352 1408 
L 1734 1408 
z
" transform="scale(0.015625)"/>
       <path id="LinLibertineT-41" d="M 1683 1804 
C 1542 1804 1498 1824 1523 1888 
L 2176 3559 
L 2214 3559 
L 2816 1804 
L 1683 1804 
z
M 992 514 
L 1344 1428 
C 1376 1510 1414 1536 1568 1536 
L 2918 1536 
L 3290 469 
C 3366 255 3123 230 2816 211 
C 2778 172 2778 38 2816 0 
C 3053 6 3405 12 3654 12 
C 3917 12 4160 6 4384 0 
C 4422 38 4422 172 4384 211 
C 4134 236 3917 255 3808 558 
L 2490 4224 
C 2394 4165 2221 4094 2138 4094 
L 685 659 
C 518 267 326 230 45 211 
C 6 172 6 38 45 0 
C 211 6 422 12 614 12 
C 877 12 1197 6 1434 0 
C 1472 38 1472 172 1434 211 
C 1190 230 890 255 992 514 
z
" transform="scale(0.015625)"/>
       <path id="LinLibertineT-63" d="M 2547 583 
C 2522 641 2470 666 2413 673 
C 2195 390 1920 249 1645 249 
C 1178 249 787 724 787 1475 
C 787 2181 1094 2604 1517 2604 
C 1894 2604 1946 2380 1971 2155 
C 1990 1982 2080 1924 2214 1924 
C 2349 1924 2528 2007 2528 2206 
C 2528 2559 2163 2816 1549 2816 
C 915 2816 237 2245 237 1334 
C 237 506 698 -64 1504 -64 
C 1888 -64 2227 57 2547 583 
z
" transform="scale(0.015625)"/>
       <path id="LinLibertineT-75" d="M 1389 -64 
C 1638 -64 1939 64 2253 319 
C 2285 345 2342 358 2349 313 
C 2368 153 2419 -64 2419 -64 
C 2470 -84 2502 -77 2541 -64 
C 2682 51 2906 147 3296 192 
C 3334 230 3334 326 3296 364 
C 2886 396 2829 517 2829 830 
L 2829 2055 
C 2829 2247 2854 2713 2854 2713 
C 2854 2732 2835 2752 2803 2752 
C 2771 2745 2675 2739 2579 2739 
C 2374 2739 2144 2745 1926 2752 
C 1888 2713 1888 2579 1926 2540 
C 2240 2521 2323 2444 2323 2023 
L 2323 792 
C 2323 670 2310 619 2221 543 
C 1984 338 1741 236 1581 236 
C 1389 236 1069 326 1069 894 
L 1069 2055 
C 1069 2247 1094 2713 1094 2713 
C 1094 2732 1075 2752 1043 2752 
C 1011 2745 915 2739 819 2739 
C 614 2739 384 2745 166 2752 
C 128 2713 128 2579 166 2540 
C 474 2515 563 2444 563 2030 
L 563 804 
C 563 364 755 -64 1389 -64 
z
" transform="scale(0.015625)"/>
       <path id="LinLibertineT-79" d="M 1306 -1012 
C 1408 -833 1491 -655 1568 -464 
C 2080 765 2368 1420 2701 2133 
C 2829 2400 2918 2502 3219 2540 
C 3258 2579 3258 2713 3219 2752 
C 3091 2745 2944 2739 2765 2739 
C 2573 2739 2374 2745 2182 2752 
C 2144 2713 2144 2579 2182 2540 
C 2387 2521 2592 2483 2490 2254 
L 1856 796 
C 1811 694 1754 675 1702 803 
L 1133 2127 
C 1018 2394 986 2515 1344 2540 
C 1382 2579 1382 2713 1344 2752 
C 1107 2745 851 2739 621 2739 
C 403 2739 230 2745 102 2752 
C 64 2713 64 2579 102 2540 
C 358 2509 442 2451 608 2063 
L 1331 389 
C 1389 262 1485 -31 1421 -209 
C 1344 -419 1267 -598 1171 -795 
C 1101 -922 1011 -980 851 -980 
C 762 -980 736 -960 666 -960 
C 480 -960 384 -1152 384 -1236 
C 384 -1370 512 -1472 685 -1472 
C 819 -1472 1075 -1421 1306 -1012 
z
" transform="scale(0.015625)"/>
      </defs>
      <use xlink:href="#LinLibertineT-54" transform="scale(0.996264)"/>
      <use xlink:href="#LinLibertineT-6f" transform="translate(53.200538 0)scale(0.996264)"/>
      <use xlink:href="#LinLibertineT-70" transform="translate(103.412207 0)scale(0.996264)"/>
      <use xlink:href="#LinLibertineT-2d" transform="translate(155.118303 0)scale(0.996264)"/>
      <use xlink:href="#LinLibertineT-31" transform="translate(188.792045 0)scale(0.996264)"/>
      <use xlink:href="#LinLibertineT-41" transform="translate(260.024937 0)scale(0.996264)"/>
      <use xlink:href="#LinLibertineT-63" transform="translate(328.069726 0)scale(0.996264)"/>
      <use xlink:href="#LinLibertineT-63" transform="translate(370.709859 0)scale(0.996264)"/>
      <use xlink:href="#LinLibertineT-75" transform="translate(413.349992 0)scale(0.996264)"/>
      <use xlink:href="#LinLibertineT-72" transform="translate(466.251617 0)scale(0.996264)"/>
      <use xlink:href="#LinLibertineT-61" transform="translate(503.312605 0)scale(0.996264)"/>
      <use xlink:href="#LinLibertineT-63" transform="translate(548.841837 0)scale(0.996264)"/>
      <use xlink:href="#LinLibertineT-79" transform="translate(591.48197 0)scale(0.996264)"/>
     </g>
    </g>
   </g>
   <g id="PolyCollection_1">
    <defs>
     <path id="m1454eed292" d="M 37.091194 -105.259055 
L 37.091194 -3.572475 
L 81.04242 -82.939843 
L 124.993647 -142.478926 
L 168.944874 -142.478926 
L 212.8961 -142.478926 
L 212.8961 -142.478926 
L 212.8961 -142.478926 
L 168.944874 -142.478926 
L 124.993647 -142.478926 
L 81.04242 -166.792745 
L 37.091194 -105.259055 
z
"/>
    </defs>
    <g clip-path="url(#p8311ade933)">
     <use xlink:href="#m1454eed292" x="0" y="167.76" style="fill: #4878a6; fill-opacity: 0.15"/>
    </g>
   </g>
   <g id="PolyCollection_2">
    <defs>
     <path id="mae46d3629a" d="M 37.091194 -105.259055 
L 37.091194 -3.572475 
L 81.04242 -82.939843 
L 124.993647 -142.478926 
L 168.944874 -142.478926 
L 212.8961 -142.478926 
L 212.8961 -142.478926 
L 212.8961 -142.478926 
L 168.944874 -142.478926 
L 124.993647 -142.478926 
L 81.04242 -166.792745 
L 37.091194 -105.259055 
z
"/>
    </defs>
    <g clip-path="url(#p8311ade933)">
     <use xlink:href="#mae46d3629a" x="0" y="167.76" style="fill: #d4682c; fill-opacity: 0.15"/>
    </g>
   </g>
   <g id="line2d_18">
    <path d="M 37.091194 113.344235 
L 81.04242 42.893706 
L 124.993647 25.281074 
L 168.944874 25.281074 
L 212.8961 25.281074 
" clip-path="url(#p8311ade933)" style="fill: none; stroke: #4878a6; stroke-width: 1.2; stroke-linecap: square"/>
    <defs>
     <path id="m0ab4fa6782" d="M 0 2 
C 0.530406 2 1.03916 1.789267 1.414214 1.414214 
C 1.789267 1.03916 2 0.530406 2 0 
C 2 -0.530406 1.789267 -1.03916 1.414214 -1.414214 
C 1.03916 -1.789267 0.530406 -2 0 -2 
C -0.530406 -2 -1.03916 -1.789267 -1.414214 -1.414214 
C -1.789267 -1.03916 -2 -0.530406 -2 0 
C -2 0.530406 -1.789267 1.03916 -1.414214 1.414214 
C -1.03916 1.789267 -0.530406 2 0 2 
z
"/>
    </defs>
    <g clip-path="url(#p8311ade933)">
     <use xlink:href="#m0ab4fa6782" x="37.091194" y="113.344235" style="fill: #4878a6"/>
     <use xlink:href="#m0ab4fa6782" x="81.04242" y="42.893706" style="fill: #4878a6"/>
     <use xlink:href="#m0ab4fa6782" x="124.993647" y="25.281074" style="fill: #4878a6"/>
     <use xlink:href="#m0ab4fa6782" x="168.944874" y="25.281074" style="fill: #4878a6"/>
     <use xlink:href="#m0ab4fa6782" x="212.8961" y="25.281074" style="fill: #4878a6"/>
    </g>
   </g>
   <g id="line2d_19">
    <path d="M 37.091194 113.344235 
L 81.04242 42.893706 
L 124.993647 25.281074 
L 168.944874 25.281074 
L 212.8961 25.281074 
" clip-path="url(#p8311ade933)" style="fill: none; stroke: #d4682c; stroke-width: 1.2; stroke-linecap: square"/>
    <defs>
     <path id="mf58ee4adfc" d="M -2 2 
L 2 2 
L 2 -2 
L -2 -2 
z
"/>
    </defs>
    <g clip-path="url(#p8311ade933)">
     <use xlink:href="#mf58ee4adfc" x="37.091194" y="113.344235" style="fill: #d4682c"/>
     <use xlink:href="#mf58ee4adfc" x="81.04242" y="42.893706" style="fill: #d4682c"/>
     <use xlink:href="#mf58ee4adfc" x="124.993647" y="25.281074" style="fill: #d4682c"/>
     <use xlink:href="#mf58ee4adfc" x="168.944874" y="25.281074" style="fill: #d4682c"/>
     <use xlink:href="#mf58ee4adfc" x="212.8961" y="25.281074" style="fill: #d4682c"/>
    </g>
   </g>
   <g id="patch_3">
    <path d="M 27.324254 142.698622 
L 27.324254 15.88767 
" style="fill: none; stroke: #333333; stroke-width: 0.6; stroke-linejoin: miter; stroke-linecap: square"/>
   </g>
   <g id="patch_4">
    <path d="M 27.324254 142.698622 
L 222.66304 142.698622 
" style="fill: none; stroke: #333333; stroke-width: 0.6; stroke-linejoin: miter; stroke-linecap: square"/>
   </g>
   <g id="text_14">
    <!-- 2002 -->
    <g transform="translate(116.654922 9.88767)scale(0.09 -0.09)">
     <use xlink:href="#LinLibertineT-32" transform="scale(0.996264)"/>
     <use xlink:href="#LinLibertineT-30" transform="translate(46.326292 0)scale(0.996264)"/>
     <use xlink:href="#LinLibertineT-30" transform="translate(92.652583 0)scale(0.996264)"/>
     <use xlink:href="#LinLibertineT-32" transform="translate(138.978875 0)scale(0.996264)"/>
    </g>
   </g>
  </g>
  <g id="axes_2">
   <g id="patch_5">
    <path d="M 250.741216 142.698622 
L 446.080002 142.698622 
L 446.080002 15.88767 
L 250.741216 15.88767 
z
" style="fill: #ffffff"/>
   </g>
   <g id="matplotlib.axis_3">
    <g id="xtick_6">
     <g id="line2d_20">
      <g>
       <use xlink:href="#m731e186d30" x="250.741216" y="142.698622" style="fill: #333333; stroke: #333333; stroke-width: 0.6"/>
      </g>
     </g>
     <g id="text_15">
      <!-- $\mathdefault{0.00}$ -->
      <g style="fill: #333333" transform="translate(244.661218 151.08902)scale(0.07 -0.07)">
       <use xlink:href="#LinLibertineT-30" transform="scale(0.996264)"/>
       <use xlink:href="#LibertineMathMI-94" transform="translate(47.92029 0)scale(0.996264)"/>
       <use xlink:href="#LinLibertineT-30" transform="translate(71.531789 0)scale(0.996264)"/>
       <use xlink:href="#LinLibertineT-30" transform="translate(117.858081 0)scale(0.996264)"/>
      </g>
     </g>
    </g>
    <g id="xtick_7">
     <g id="line2d_21">
      <g>
       <use xlink:href="#m731e186d30" x="299.575912" y="142.698622" style="fill: #333333; stroke: #333333; stroke-width: 0.6"/>
      </g>
     </g>
     <g id="text_16">
      <!-- $\mathdefault{0.25}$ -->
      <g style="fill: #333333" transform="translate(293.495914 151.08902)scale(0.07 -0.07)">
       <use xlink:href="#LinLibertineT-30" transform="scale(0.996264)"/>
       <use xlink:href="#LibertineMathMI-94" transform="translate(47.92029 0)scale(0.996264)"/>
       <use xlink:href="#LinLibertineT-32" transform="translate(71.531789 0)scale(0.996264)"/>
       <use xlink:href="#LinLibertineT-35" transform="translate(117.858081 0)scale(0.996264)"/>
      </g>
     </g>
    </g>
    <g id="xtick_8">
     <g id="line2d_22">
      <g>
       <use xlink:href="#m731e186d30" x="348.410609" y="142.698622" style="fill: #333333; stroke: #333333; stroke-width: 0.6"/>
      </g>
     </g>
     <g id="text_17">
      <!-- $\mathdefault{0.50}$ -->
      <g style="fill: #333333" transform="translate(342.33061 151.08902)scale(0.07 -0.07)">
       <use xlink:href="#LinLibertineT-30" transform="scale(0.996264)"/>
       <use xlink:href="#LibertineMathMI-94" transform="translate(47.92029 0)scale(0.996264)"/>
       <use xlink:href="#LinLibertineT-35" transform="translate(71.531789 0)scale(0.996264)"/>
       <use xlink:href="#LinLibertineT-30" transform="translate(117.858081 0)scale(0.996264)"/>
      </g>
     </g>
    </g>
    <g id="xtick_9">
     <g id="line2d_23">
      <g>
       <use xlink:href="#m731e186d30" x="397.245305" y="142.698622" style="fill: #333333; stroke: #333333; stroke-width: 0.6"/>
      </g>
     </g>
     <g id="text_18">
      <!-- $\mathdefault{0.75}$ -->
      <g style="fill: #333333" transform="translate(391.165307 151.08902)scale(0.07 -0.07)">
       <use xlink:href="#LinLibertineT-30" transform="scale(0.996264)"/>
       <use xlink:href="#LibertineMathMI-94" transform="translate(47.92029 0)scale(0.996264)"/>
       <use xlink:href="#LinLibertineT-37" transform="translate(71.531789 0)scale(0.996264)"/>
       <use xlink:href="#LinLibertineT-35" transform="translate(117.858081 0)scale(0.996264)"/>
      </g>
     </g>
    </g>
    <g id="xtick_10">
     <g id="line2d_24">
      <g>
       <use xlink:href="#m731e186d30" x="446.080002" y="142.698622" style="fill: #333333; stroke: #333333; stroke-width: 0.6"/>
      </g>
     </g>
     <g id="text_19">
      <!-- $\mathdefault{1.00}$ -->
      <g style="fill: #333333" transform="translate(440.000003 151.08902)scale(0.07 -0.07)">
       <use xlink:href="#LinLibertineT-31" transform="scale(0.996264)"/>
       <use xlink:href="#LibertineMathMI-94" transform="translate(47.92029 0)scale(0.996264)"/>
       <use xlink:href="#LinLibertineT-30" transform="translate(71.531789 0)scale(0.996264)"/>
       <use xlink:href="#LinLibertineT-30" transform="translate(117.858081 0)scale(0.996264)"/>
      </g>
     </g>
    </g>
    <g id="text_20">
     <!-- Observation Rate -->
     <g style="fill: #333333" transform="translate(320.26419 162.302965)scale(0.08 -0.08)">
      <use xlink:href="#LinLibertineT-4f" transform="scale(0.996264)"/>
      <use xlink:href="#LinLibertineT-62" transform="translate(69.9377 0)scale(0.996264)"/>
      <use xlink:href="#LinLibertineT-73" transform="translate(119.053519 0)scale(0.996264)"/>
      <use xlink:href="#LinLibertineT-65" transform="translate(157.907846 0)scale(0.996264)"/>
      <use xlink:href="#LinLibertineT-72" transform="translate(202.440798 0)scale(0.996264)"/>
      <use xlink:href="#LinLibertineT-76" transform="translate(240.996212 0)scale(0.996264)"/>
      <use xlink:href="#LinLibertineT-61" transform="translate(290.5105 0)scale(0.996264)"/>
      <use xlink:href="#LinLibertineT-74" transform="translate(336.039732 0)scale(0.996264)"/>
      <use xlink:href="#LinLibertineT-69" transform="translate(367.521666 0)scale(0.996264)"/>
      <use xlink:href="#LinLibertineT-6f" transform="translate(394.520411 0)scale(0.996264)"/>
      <use xlink:href="#LinLibertineT-6e" transform="translate(444.732081 0)scale(0.996264)"/>
      <use xlink:href="#LinLibertineT-52" transform="translate(523.636172 0)scale(0.996264)"/>
      <use xlink:href="#LinLibertineT-61" transform="translate(582.116851 0)scale(0.996264)"/>
      <use xlink:href="#LinLibertineT-74" transform="translate(627.646083 0)scale(0.996264)"/>
      <use xlink:href="#LinLibertineT-65" transform="translate(659.128017 0)scale(0.996264)"/>
     </g>
    </g>
   </g>
   <g id="matplotlib.axis_4">
    <g id="ytick_7">
     <g id="line2d_25">
      <path d="M 250.741216 142.698622 
L 446.080002 142.698622 
" clip-path="url(#pcac3b6cb81)" style="fill: none; stroke: #cccccc; stroke-opacity: 0.5; stroke-width: 0.4; stroke-linecap: square"/>
     </g>
     <g id="line2d_26">
      <g>
       <use xlink:href="#ma9cb9f59b9" x="250.741216" y="142.698622" style="fill: #333333; stroke: #333333; stroke-width: 0.6"/>
      </g>
     </g>
     <g id="text_21">
      <!-- $\mathdefault{0.0}$ -->
      <g style="fill: #333333" transform="translate(238.463038 145.143821)scale(0.07 -0.07)">
       <use xlink:href="#LinLibertineT-30" transform="scale(0.996264)"/>
       <use xlink:href="#LibertineMathMI-94" transform="translate(47.92029 0)scale(0.996264)"/>
       <use xlink:href="#LinLibertineT-30" transform="translate(71.531789 0)scale(0.996264)"/>
      </g>
     </g>
    </g>
    <g id="ytick_8">
     <g id="line2d_27">
      <path d="M 250.741216 119.215113 
L 446.080002 119.215113 
" clip-path="url(#pcac3b6cb81)" style="fill: none; stroke: #cccccc; stroke-opacity: 0.5; stroke-width: 0.4; stroke-linecap: square"/>
     </g>
     <g id="line2d_28">
      <g>
       <use xlink:href="#ma9cb9f59b9" x="250.741216" y="119.215113" style="fill: #333333; stroke: #333333; stroke-width: 0.6"/>
      </g>
     </g>
     <g id="text_22">
      <!-- $\mathdefault{0.2}$ -->
      <g style="fill: #333333" transform="translate(238.463038 121.660312)scale(0.07 -0.07)">
       <use xlink:href="#LinLibertineT-30" transform="scale(0.996264)"/>
       <use xlink:href="#LibertineMathMI-94" transform="translate(47.92029 0)scale(0.996264)"/>
       <use xlink:href="#LinLibertineT-32" transform="translate(71.531789 0)scale(0.996264)"/>
      </g>
     </g>
    </g>
    <g id="ytick_9">
     <g id="line2d_29">
      <path d="M 250.741216 95.731603 
L 446.080002 95.731603 
" clip-path="url(#pcac3b6cb81)" style="fill: none; stroke: #cccccc; stroke-opacity: 0.5; stroke-width: 0.4; stroke-linecap: square"/>
     </g>
     <g id="line2d_30">
      <g>
       <use xlink:href="#ma9cb9f59b9" x="250.741216" y="95.731603" style="fill: #333333; stroke: #333333; stroke-width: 0.6"/>
      </g>
     </g>
     <g id="text_23">
      <!-- $\mathdefault{0.4}$ -->
      <g style="fill: #333333" transform="translate(238.463038 98.176802)scale(0.07 -0.07)">
       <use xlink:href="#LinLibertineT-30" transform="scale(0.996264)"/>
       <use xlink:href="#LibertineMathMI-94" transform="translate(47.92029 0)scale(0.996264)"/>
       <use xlink:href="#LinLibertineT-34" transform="translate(71.531789 0)scale(0.996264)"/>
      </g>
     </g>
    </g>
    <g id="ytick_10">
     <g id="line2d_31">
      <path d="M 250.741216 72.248093 
L 446.080002 72.248093 
" clip-path="url(#pcac3b6cb81)" style="fill: none; stroke: #cccccc; stroke-opacity: 0.5; stroke-width: 0.4; stroke-linecap: square"/>
     </g>
     <g id="line2d_32">
      <g>
       <use xlink:href="#ma9cb9f59b9" x="250.741216" y="72.248093" style="fill: #333333; stroke: #333333; stroke-width: 0.6"/>
      </g>
     </g>
     <g id="text_24">
      <!-- $\mathdefault{0.6}$ -->
      <g style="fill: #333333" transform="translate(238.463038 74.693292)scale(0.07 -0.07)">
       <use xlink:href="#LinLibertineT-30" transform="scale(0.996264)"/>
       <use xlink:href="#LibertineMathMI-94" transform="translate(47.92029 0)scale(0.996264)"/>
       <use xlink:href="#LinLibertineT-36" transform="translate(71.531789 0)scale(0.996264)"/>
      </g>
     </g>
    </g>
    <g id="ytick_11">
     <g id="line2d_33">
      <path d="M 250.741216 48.764584 
L 446.080002 48.764584 
" clip-path="url(#pcac3b6cb81)" style="fill: none; stroke: #cccccc; stroke-opacity: 0.5; stroke-width: 0.4; stroke-linecap: square"/>
     </g>
     <g id="line2d_34">
      <g>
       <use xlink:href="#ma9cb9f59b9" x="250.741216" y="48.764584" style="fill: #333333; stroke: #333333; stroke-width: 0.6"/>
      </g>
     </g>
     <g id="text_25">
      <!-- $\mathdefault{0.8}$ -->
      <g style="fill: #333333" transform="translate(238.463038 51.209783)scale(0.07 -0.07)">
       <use xlink:href="#LinLibertineT-30" transform="scale(0.996264)"/>
       <use xlink:href="#LibertineMathMI-94" transform="translate(47.92029 0)scale(0.996264)"/>
       <use xlink:href="#LinLibertineT-38" transform="translate(71.531789 0)scale(0.996264)"/>
      </g>
     </g>
    </g>
    <g id="ytick_12">
     <g id="line2d_35">
      <path d="M 250.741216 25.281074 
L 446.080002 25.281074 
" clip-path="url(#pcac3b6cb81)" style="fill: none; stroke: #cccccc; stroke-opacity: 0.5; stroke-width: 0.4; stroke-linecap: square"/>
     </g>
     <g id="line2d_36">
      <g>
       <use xlink:href="#ma9cb9f59b9" x="250.741216" y="25.281074" style="fill: #333333; stroke: #333333; stroke-width: 0.6"/>
      </g>
     </g>
     <g id="text_26">
      <!-- $\mathdefault{1.0}$ -->
      <g style="fill: #333333" transform="translate(238.463038 27.726273)scale(0.07 -0.07)">
       <use xlink:href="#LinLibertineT-31" transform="scale(0.996264)"/>
       <use xlink:href="#LibertineMathMI-94" transform="translate(47.92029 0)scale(0.996264)"/>
       <use xlink:href="#LinLibertineT-30" transform="translate(71.531789 0)scale(0.996264)"/>
      </g>
     </g>
    </g>
   </g>
   <g id="PolyCollection_3">
    <defs>
     <path id="mc356cf1c3d" d="M 260.508155 -122.162121 
L 260.508155 -10.152919 
L 304.459382 -72.028397 
L 348.410609 -142.478926 
L 392.361836 -142.478926 
L 436.313062 -142.478926 
L 436.313062 -142.478926 
L 436.313062 -142.478926 
L 392.361836 -142.478926 
L 348.410609 -142.478926 
L 304.459382 -165.962436 
L 260.508155 -122.162121 
z
"/>
    </defs>
    <g clip-path="url(#pcac3b6cb81)">
     <use xlink:href="#mc356cf1c3d" x="0" y="167.76" style="fill: #4878a6; fill-opacity: 0.15"/>
    </g>
   </g>
   <g id="PolyCollection_4">
    <defs>
     <path id="m404d75c323" d="M 260.508155 -122.162121 
L 260.508155 -10.152919 
L 304.459382 -72.028397 
L 348.410609 -142.478926 
L 392.361836 -142.478926 
L 436.313062 -142.478926 
L 436.313062 -142.478926 
L 436.313062 -142.478926 
L 392.361836 -142.478926 
L 348.410609 -142.478926 
L 304.459382 -165.962436 
L 260.508155 -122.162121 
z
"/>
    </defs>
    <g clip-path="url(#pcac3b6cb81)">
     <use xlink:href="#m404d75c323" x="0" y="167.76" style="fill: #d4682c; fill-opacity: 0.15"/>
    </g>
   </g>
   <g id="line2d_37">
    <path d="M 260.508155 101.60248 
L 304.459382 48.764584 
L 348.410609 25.281074 
L 392.361836 25.281074 
L 436.313062 25.281074 
" clip-path="url(#pcac3b6cb81)" style="fill: none; stroke: #4878a6; stroke-width: 1.2; stroke-linecap: square"/>
    <g clip-path="url(#pcac3b6cb81)">
     <use xlink:href="#m0ab4fa6782" x="260.508155" y="101.60248" style="fill: #4878a6"/>
     <use xlink:href="#m0ab4fa6782" x="304.459382" y="48.764584" style="fill: #4878a6"/>
     <use xlink:href="#m0ab4fa6782" x="348.410609" y="25.281074" style="fill: #4878a6"/>
     <use xlink:href="#m0ab4fa6782" x="392.361836" y="25.281074" style="fill: #4878a6"/>
     <use xlink:href="#m0ab4fa6782" x="436.313062" y="25.281074" style="fill: #4878a6"/>
    </g>
   </g>
   <g id="line2d_38">
    <path d="M 260.508155 101.60248 
L 304.459382 48.764584 
L 348.410609 25.281074 
L 392.361836 25.281074 
L 436.313062 25.281074 
" clip-path="url(#pcac3b6cb81)" style="fill: none; stroke: #d4682c; stroke-width: 1.2; stroke-linecap: square"/>
    <g clip-path="url(#pcac3b6cb81)">
     <use xlink:href="#mf58ee4adfc" x="260.508155" y="101.60248" style="fill: #d4682c"/>
     <use xlink:href="#mf58ee4adfc" x="304.459382" y="48.764584" style="fill: #d4682c"/>
     <use xlink:href="#mf58ee4adfc" x="348.410609" y="25.281074" style="fill: #d4682c"/>
     <use xlink:href="#mf58ee4adfc" x="392.361836" y="25.281074" style="fill: #d4682c"/>
     <use xlink:href="#mf58ee4adfc" x="436.313062" y="25.281074" style="fill: #d4682c"/>
    </g>
   </g>
   <g id="patch_6">
    <path d="M 250.741216 142.698622 
L 250.741216 15.88767 
" style="fill: none; stroke: #333333; stroke-width: 0.6; stroke-linejoin: miter; stroke-linecap: square"/>
   </g>
   <g id="patch_7">
    <path d="M 250.741216 142.698622 
L 446.080002 142.698622 
" style="fill: none; stroke: #333333; stroke-width: 0.6; stroke-linejoin: miter; stroke-linecap: square"/>
   </g>
   <g id="text_27">
    <!-- 2007 -->
    <g transform="translate(340.071884 9.88767)scale(0.09 -0.09)">
     <use xlink:href="#LinLibertineT-32" transform="scale(0.996264)"/>
     <use xlink:href="#LinLibertineT-30" transform="translate(46.326292 0)scale(0.996264)"/>
     <use xlink:href="#LinLibertineT-30" transform="translate(92.652583 0)scale(0.996264)"/>
     <use xlink:href="#LinLibertineT-37" transform="translate(138.978875 0)scale(0.996264)"/>
    </g>
   </g>
   <g id="legend_1">
    <g id="line2d_39">
     <path d="M 396.534375 123.698816 
L 401.784375 123.698816 
L 407.034375 123.698816 
" style="fill: none; stroke: #4878a6; stroke-width: 1.2; stroke-linecap: square"/>
     <g>
      <use xlink:href="#m0ab4fa6782" x="401.784375" y="123.698816" style="fill: #4878a6"/>
     </g>
    </g>
    <g id="text_28">
     <!-- PD (naive) -->
     <g transform="translate(409.834375 126.148816)scale(0.07 -0.07)">
      <defs>
       <path id="LinLibertineT-50" d="M 1210 3591 
C 1210 3779 1306 4006 1766 4006 
C 2208 4006 2650 3857 2650 3033 
C 2650 2333 2317 2048 1696 2048 
C 1536 2048 1280 2060 1210 2080 
L 1210 3591 
z
M 666 3390 
L 666 798 
C 666 262 557 230 109 211 
C 70 172 70 38 109 0 
C 397 6 710 12 941 12 
C 1165 12 1542 6 1862 0 
C 1901 38 1901 172 1862 211 
C 1363 237 1210 262 1210 798 
L 1210 1894 
C 1350 1849 1504 1830 1728 1830 
C 2893 1830 3245 2599 3245 3150 
C 3245 3532 2995 4224 1811 4224 
C 1568 4224 1190 4179 934 4179 
C 698 4179 365 4185 109 4191 
C 70 4153 70 4019 109 3980 
C 557 3960 666 3928 666 3390 
z
" transform="scale(0.015625)"/>
       <path id="LinLibertineT-44" d="M 1222 550 
L 1222 3628 
C 1222 3852 1446 3942 1760 3942 
C 3142 3942 3597 2820 3597 1833 
C 3597 538 2822 217 1920 217 
C 1293 217 1222 345 1222 550 
z
M 122 4160 
C 83 4121 83 3987 122 3948 
C 570 3929 678 3897 678 3365 
L 678 794 
C 678 262 570 230 122 211 
C 83 172 83 38 122 0 
C 371 6 710 12 954 12 
C 1190 12 1459 0 2118 0 
C 3021 0 4211 409 4211 1987 
C 4211 3179 3232 4160 2003 4160 
C 1549 4160 1197 4147 947 4147 
C 717 4147 378 4153 122 4160 
z
" transform="scale(0.015625)"/>
       <path id="LinLibertineT-28" d="M 282 1612 
C 282 1324 307 -154 1638 -1306 
C 1702 -1293 1754 -1249 1773 -1197 
C 1562 -954 813 -71 813 1612 
C 813 3296 1568 4179 1773 4409 
C 1754 4473 1709 4518 1638 4525 
C 877 3872 282 2803 282 1612 
z
" transform="scale(0.015625)"/>
       <path id="LinLibertineT-29" d="M 1626 1612 
C 1626 1900 1600 3379 269 4531 
C 205 4518 154 4473 134 4422 
C 346 4179 1094 3296 1094 1612 
C 1094 -71 339 -954 134 -1185 
C 154 -1249 198 -1293 269 -1300 
C 1030 -647 1626 422 1626 1612 
z
" transform="scale(0.015625)"/>
      </defs>
      <use xlink:href="#LinLibertineT-50" transform="scale(0.996264)"/>
      <use xlink:href="#LinLibertineT-44" transform="translate(53.897919 0)scale(0.996264)"/>
      <use xlink:href="#LinLibertineT-28" transform="translate(148.642648 0)scale(0.996264)"/>
      <use xlink:href="#LinLibertineT-6e" transform="translate(178.331349 0)scale(0.996264)"/>
      <use xlink:href="#LinLibertineT-61" transform="translate(232.32884 0)scale(0.996264)"/>
      <use xlink:href="#LinLibertineT-69" transform="translate(277.858072 0)scale(0.996264)"/>
      <use xlink:href="#LinLibertineT-76" transform="translate(304.856817 0)scale(0.996264)"/>
      <use xlink:href="#LinLibertineT-65" transform="translate(353.574045 0)scale(0.996264)"/>
      <use xlink:href="#LinLibertineT-29" transform="translate(398.106998 0)scale(0.996264)"/>
     </g>
    </g>
    <g id="line2d_40">
     <path d="M 396.534375 132.323719 
L 401.784375 132.323719 
L 407.034375 132.323719 
" style="fill: none; stroke: #d4682c; stroke-width: 1.2; stroke-linecap: square"/>
     <g>
      <use xlink:href="#mf58ee4adfc" x="401.784375" y="132.323719" style="fill: #d4682c"/>
     </g>
    </g>
    <g id="text_29">
     <!-- PD (IPW) -->
     <g transform="translate(409.834375 134.773719)scale(0.07 -0.07)">
      <defs>
       <path id="LinLibertineT-49" d="M 1222 794 
L 1222 3365 
C 1222 3897 1331 3929 1779 3948 
C 1818 3987 1818 4121 1779 4160 
C 1498 4153 1197 4147 947 4147 
C 736 4147 422 4153 122 4160 
C 83 4121 83 3987 122 3948 
C 570 3929 678 3897 678 3365 
L 678 794 
C 678 262 570 230 122 211 
C 83 172 83 38 122 0 
C 410 6 723 12 954 12 
C 1184 12 1491 6 1779 0 
C 1818 38 1818 172 1779 211 
C 1331 230 1222 262 1222 794 
z
" transform="scale(0.015625)"/>
       <path id="LinLibertineT-57" d="M 5184 3634 
L 4186 852 
L 4166 859 
L 3283 3564 
C 3174 3910 3398 3929 3616 3948 
C 3654 3987 3654 4121 3616 4160 
C 3354 4153 3072 4147 2816 4147 
C 2605 4147 2381 4153 2176 4160 
C 2138 4121 2138 3987 2176 3948 
C 2515 3929 2656 3730 2714 3564 
L 2861 3141 
C 2886 3064 2906 3000 2906 2942 
C 2906 2878 2899 2826 2848 2718 
L 2022 839 
L 1990 846 
L 1056 3679 
C 979 3903 1152 3935 1376 3948 
C 1414 3987 1414 4121 1376 4160 
C 1165 4153 883 4147 634 4147 
C 410 4147 224 4153 38 4160 
C 0 4121 0 3987 38 3948 
C 326 3929 371 3923 493 3576 
L 1696 109 
C 1728 6 1766 -64 1837 -64 
C 1920 -64 1958 0 2003 109 
L 2957 2256 
C 3014 2384 3034 2416 3066 2416 
C 3091 2416 3117 2346 3155 2237 
L 3891 109 
C 3930 0 3962 -64 4038 -64 
C 4109 -64 4154 6 4186 102 
L 5472 3557 
C 5555 3782 5670 3929 6022 3948 
C 6061 3987 6061 4121 6022 4160 
C 5837 4153 5632 4147 5466 4147 
C 5299 4147 5018 4153 4762 4160 
C 4723 4121 4723 3987 4762 3948 
C 5024 3929 5280 3910 5184 3634 
z
" transform="scale(0.015625)"/>
      </defs>
      <use xlink:href="#LinLibertineT-50" transform="scale(0.996264)"/>
      <use xlink:href="#LinLibertineT-44" transform="translate(53.897919 0)scale(0.996264)"/>
      <use xlink:href="#LinLibertineT-28" transform="translate(148.642648 0)scale(0.996264)"/>
      <use xlink:href="#LinLibertineT-49" transform="translate(178.331349 0)scale(0.996264)"/>
      <use xlink:href="#LinLibertineT-50" transform="translate(207.920372 0)scale(0.996264)"/>
      <use xlink:href="#LinLibertineT-57" transform="translate(264.209334 0)scale(0.996264)"/>
      <use xlink:href="#LinLibertineT-29" transform="translate(358.954063 0)scale(0.996264)"/>
     </g>
    </g>
   </g>
  </g>
 </g>
 <defs>
  <clipPath id="p8311ade933">
   <rect x="27.324254" y="15.88767" width="195.338785" height="126.810952"/>
  </clipPath>
  <clipPath id="pcac3b6cb81">
   <rect x="250.741216" y="15.88767" width="195.338785" height="126.810952"/>
  </clipPath>
 </defs>
</svg>
