<?xml version="1.0" encoding="utf-8" standalone="no"?>
<!DOCTYPE svg PUBLIC "-//W3C//DTD SVG 1.1//EN"
  "http://www.w3.org/Graphics/SVG/1.1/DTD/svg11.dtd">
<svg xmlns:xlink="http://www.w3.org/1999/xlink" width="240.108902pt" height="201.96pt" viewBox="0 0 240.108902 201.96" xmlns="http://www.w3.org/2000/svg" version="1.1">
 <metadata>
  <rdf:RDF xmlns:dc="http://purl.org/dc/elements/1.1/" xmlns:cc="http://creativecommons.org/ns#" xmlns:rdf="http://www.w3.org/1999/02/22-rdf-syntax-ns#">
   <cc:Work>
    <dc:type rdf:resource="http://purl.org/dc/dcmitype/StillImage"/>
    <dc:date>2026-02-05T10:12:12.501253</dc:date>
    <dc:format>image/svg+xml</dc:format>
    <dc:creator>
     <cc:Agent>
      <dc:title>Matplotlib v3.5.1, https://matplotlib.org/</dc:title>
     </cc:Agent>
    </dc:creator>
   </cc:Work>
  </rdf:RDF>
 </metadata>
 <defs>
  <style type="text/css">*{stroke-linejoin: round; stroke-linecap: butt}</style>
 </defs>
 <g id="figure_1">
  <g id="patch_1">
   <path d="M 0 201.96 
L 240.108902 201.96 
L 240.108902 0 
L 0 0 
z
" style="fill: #ffffff"/>
  </g>
  <g id="axes_1">
   <g id="patch_2">
    <path d="M 29.096752 174.992258 
L 216.720902 174.992258 
L 216.720902 15.88767 
L 29.096752 15.88767 
z
" style="fill: #ffffff"/>
   </g>
   <g id="matplotlib.axis_1">
    <g id="xtick_1">
     <g id="line2d_1">
      <path d="M 68.213228 174.992258 
L 68.213228 15.88767 
" clip-path="url(#p047dacfc2f)" style="fill: none; stroke: #cccccc; stroke-opacity: 0.5; stroke-width: 0.4; stroke-linecap: square"/>
     </g>
     <g id="line2d_2">
      <defs>
       <path id="mf574c00c43" d="M 0 0 
L 0 -3 
" style="stroke: #333333; stroke-width: 0.6"/>
      </defs>
      <g>
       <use xlink:href="#mf574c00c43" x="68.213228" y="174.992258" style="fill: #333333; stroke: #333333; stroke-width: 0.6"/>
      </g>
     </g>
     <g id="text_1">
      <!-- $\mathdefault{0.20}$ -->
      <g style="fill: #333333" transform="translate(61.55021 184.0813)scale(0.08 -0.08)">
       <defs>
        <path id="LinLibertineT-30" d="M 1485 3679 
C 1594 3679 1696 3641 1773 3571 
C 1971 3405 2144 2918 2144 2060 
C 2144 1472 2125 1068 2035 742 
C 1894 217 1581 160 1466 160 
C 870 160 806 1254 806 1811 
C 806 3385 1197 3679 1485 3679 
z
M 1459 -64 
C 1952 -64 2701 435 2701 1939 
C 2701 2572 2547 3116 2266 3488 
C 2099 3711 1830 3904 1485 3904 
C 851 3904 250 3148 250 1881 
C 250 1196 461 556 813 204 
C 992 25 1210 -64 1459 -64 
z
" transform="scale(0.015625)"/>
        <path id="LibertineMathMI-94" d="M 365 275 
C 365 89 518 -64 704 -64 
C 890 -64 1043 89 1043 275 
C 1043 460 890 614 704 614 
C 518 614 365 460 365 275 
z
" transform="scale(0.015625)"/>
        <path id="LinLibertineT-32" d="M 390 2999 
C 390 2866 512 2752 646 2752 
C 755 2752 947 2866 947 3006 
C 947 3057 934 3095 922 3139 
C 909 3184 870 3241 870 3292 
C 870 3451 1037 3679 1504 3679 
C 1734 3679 2061 3521 2061 2910 
C 2061 2501 1914 2168 1536 1783 
L 1062 1314 
C 435 672 333 364 333 -13 
C 333 -13 659 0 864 0 
L 1984 0 
C 2189 0 2483 -13 2483 -13 
C 2566 326 2630 807 2637 1000 
C 2598 1032 2515 1044 2451 1032 
C 2342 576 2234 416 2003 416 
L 864 416 
C 864 724 1306 1160 1338 1192 
L 1984 1815 
C 2349 2168 2624 2450 2624 2936 
C 2624 3622 2061 3904 1542 3904 
C 832 3904 390 3381 390 2999 
z
" transform="scale(0.015625)"/>
       </defs>
       <use xlink:href="#LinLibertineT-30" transform="scale(0.996264)"/>
       <use xlink:href="#LibertineMathMI-94" transform="translate(47.92029 0)scale(0.996264)"/>
       <use xlink:href="#LinLibertineT-32" transform="translate(71.531789 0)scale(0.996264)"/>
       <use xlink:href="#LinLibertineT-30" transform="translate(117.858081 0)scale(0.996264)"/>
      </g>
     </g>
    </g>
    <g id="xtick_2">
     <g id="line2d_3">
      <path d="M 111.987894 174.992258 
L 111.987894 15.88767 
" clip-path="url(#p047dacfc2f)" style="fill: none; stroke: #cccccc; stroke-opacity: 0.5; stroke-width: 0.4; stroke-linecap: square"/>
     </g>
     <g id="line2d_4">
      <g>
       <use xlink:href="#mf574c00c43" x="111.987894" y="174.992258" style="fill: #333333; stroke: #333333; stroke-width: 0.6"/>
      </g>
     </g>
     <g id="text_2">
      <!-- $\mathdefault{0.25}$ -->
      <g style="fill: #333333" transform="translate(105.324877 184.0813)scale(0.08 -0.08)">
       <defs>
        <path id="LinLibertineT-35" d="M 2042 1209 
C 2042 605 1722 160 1338 160 
C 1094 160 1011 318 915 446 
C 832 554 723 649 589 649 
C 467 649 346 541 346 414 
C 346 153 890 -64 1254 -64 
C 2048 -64 2611 522 2611 1323 
C 2611 1940 2182 2496 1466 2496 
C 1190 2496 954 2438 838 2393 
L 966 3468 
C 1203 3443 1408 3411 1715 3411 
C 1907 3404 2125 3417 2387 3443 
L 2490 3878 
L 2445 3904 
C 2080 3872 1734 3840 1395 3840 
C 1158 3840 928 3852 704 3872 
L 486 2023 
C 826 2150 1069 2176 1299 2176 
C 1715 2176 2042 1902 2042 1209 
z
" transform="scale(0.015625)"/>
       </defs>
       <use xlink:href="#LinLibertineT-30" transform="scale(0.996264)"/>
       <use xlink:href="#LibertineMathMI-94" transform="translate(47.92029 0)scale(0.996264)"/>
       <use xlink:href="#LinLibertineT-32" transform="translate(71.531789 0)scale(0.996264)"/>
       <use xlink:href="#LinLibertineT-35" transform="translate(117.858081 0)scale(0.996264)"/>
      </g>
     </g>
    </g>
    <g id="xtick_3">
     <g id="line2d_5">
      <path d="M 155.762561 174.992258 
L 155.762561 15.88767 
" clip-path="url(#p047dacfc2f)" style="fill: none; stroke: #cccccc; stroke-opacity: 0.5; stroke-width: 0.4; stroke-linecap: square"/>
     </g>
     <g id="line2d_6">
      <g>
       <use xlink:href="#mf574c00c43" x="155.762561" y="174.992258" style="fill: #333333; stroke: #333333; stroke-width: 0.6"/>
      </g>
     </g>
     <g id="text_3">
      <!-- $\mathdefault{0.30}$ -->
      <g style="fill: #333333" transform="translate(149.099544 184.0813)scale(0.08 -0.08)">
       <defs>
        <path id="LinLibertineT-33" d="M 1376 3679 
C 1651 3679 1907 3512 1907 3098 
C 1907 2776 1536 2279 902 2188 
L 934 1984 
C 1043 1996 1158 1996 1242 1996 
C 1606 1996 2080 1895 2080 1176 
C 2080 331 1510 160 1286 160 
C 960 160 902 306 826 420 
C 762 509 678 585 550 585 
C 416 585 282 465 282 363 
C 282 108 819 -64 1203 -64 
C 1965 -64 2643 426 2643 1265 
C 2643 1958 2118 2208 1741 2272 
L 1734 2285 
C 2259 2537 2406 2802 2406 3144 
C 2406 3337 2362 3492 2208 3654 
C 2067 3795 1843 3904 1510 3904 
C 570 3904 301 3286 301 3073 
C 301 2982 365 2853 518 2853 
C 742 2853 768 3066 768 3189 
C 768 3602 1210 3679 1376 3679 
z
" transform="scale(0.015625)"/>
       </defs>
       <use xlink:href="#LinLibertineT-30" transform="scale(0.996264)"/>
       <use xlink:href="#LibertineMathMI-94" transform="translate(47.92029 0)scale(0.996264)"/>
       <use xlink:href="#LinLibertineT-33" transform="translate(71.531789 0)scale(0.996264)"/>
       <use xlink:href="#LinLibertineT-30" transform="translate(117.858081 0)scale(0.996264)"/>
      </g>
     </g>
    </g>
    <g id="xtick_4">
     <g id="line2d_7">
      <path d="M 199.537228 174.992258 
L 199.537228 15.88767 
" clip-path="url(#p047dacfc2f)" style="fill: none; stroke: #cccccc; stroke-opacity: 0.5; stroke-width: 0.4; stroke-linecap: square"/>
     </g>
     <g id="line2d_8">
      <g>
       <use xlink:href="#mf574c00c43" x="199.537228" y="174.992258" style="fill: #333333; stroke: #333333; stroke-width: 0.6"/>
      </g>
     </g>
     <g id="text_4">
      <!-- $\mathdefault{0.35}$ -->
      <g style="fill: #333333" transform="translate(192.874211 184.0813)scale(0.08 -0.08)">
       <use xlink:href="#LinLibertineT-30" transform="scale(0.996264)"/>
       <use xlink:href="#LibertineMathMI-94" transform="translate(47.92029 0)scale(0.996264)"/>
       <use xlink:href="#LinLibertineT-33" transform="translate(71.531789 0)scale(0.996264)"/>
       <use xlink:href="#LinLibertineT-35" transform="translate(117.858081 0)scale(0.996264)"/>
      </g>
     </g>
    </g>
    <g id="text_5">
     <!-- Approver Heterogeneity (Hamming) -->
     <g style="fill: #333333" transform="translate(56.001846 196.226004)scale(0.09 -0.09)">
      <defs>
       <path id="LinLibertineT-41" d="M 1683 1804 
C 1542 1804 1498 1824 1523 1888 
L 2176 3559 
L 2214 3559 
L 2816 1804 
L 1683 1804 
z
M 992 514 
L 1344 1428 
C 1376 1510 1414 1536 1568 1536 
L 2918 1536 
L 3290 469 
C 3366 255 3123 230 2816 211 
C 2778 172 2778 38 2816 0 
C 3053 6 3405 12 3654 12 
C 3917 12 4160 6 4384 0 
C 4422 38 4422 172 4384 211 
C 4134 236 3917 255 3808 558 
L 2490 4224 
C 2394 4165 2221 4094 2138 4094 
L 685 659 
C 518 267 326 230 45 211 
C 6 172 6 38 45 0 
C 211 6 422 12 614 12 
C 877 12 1197 6 1434 0 
C 1472 38 1472 172 1434 211 
C 1190 230 890 255 992 514 
z
" transform="scale(0.015625)"/>
       <path id="LinLibertineT-70" d="M 1120 2123 
C 1286 2328 1581 2521 1766 2521 
C 2176 2521 2528 2059 2528 1334 
C 2528 808 2342 153 1626 153 
C 1510 153 1286 185 1171 288 
C 1043 403 1018 442 1018 673 
L 1018 1841 
C 1018 1976 1043 2033 1120 2123 
z
M 998 2361 
C 992 2553 979 2719 947 2783 
C 934 2816 922 2835 870 2835 
C 691 2764 525 2707 83 2649 
C 70 2611 83 2508 96 2470 
C 442 2438 512 2405 512 2033 
L 512 -725 
C 512 -1272 442 -1305 51 -1325 
C 13 -1364 13 -1498 51 -1536 
C 275 -1530 512 -1524 768 -1524 
C 1024 -1524 1331 -1530 1542 -1536 
C 1581 -1498 1581 -1364 1542 -1325 
C 1088 -1299 1018 -1272 1018 -725 
L 1018 -13 
C 1018 70 1043 64 1107 32 
C 1267 -26 1459 -64 1664 -64 
C 2022 -64 2342 44 2605 294 
C 2906 589 3078 987 3078 1507 
C 3078 2187 2598 2816 1946 2816 
C 1651 2816 1325 2617 1069 2335 
C 1030 2296 1005 2296 998 2361 
z
" transform="scale(0.015625)"/>
       <path id="LinLibertineT-72" d="M 1126 2298 
C 1114 2553 1107 2719 1075 2783 
C 1062 2816 1050 2835 998 2835 
C 819 2764 653 2707 211 2649 
C 198 2611 211 2508 224 2470 
C 570 2438 640 2406 640 2036 
L 640 791 
C 640 262 563 236 166 211 
C 128 172 128 38 166 0 
C 390 6 640 12 896 12 
C 1152 12 1446 6 1670 0 
C 1709 38 1709 172 1670 211 
C 1222 243 1146 262 1146 791 
L 1146 1679 
C 1146 1844 1222 1991 1299 2106 
C 1370 2208 1517 2419 1594 2419 
C 1651 2419 1709 2406 1760 2336 
C 1805 2272 1882 2189 1990 2189 
C 2144 2189 2291 2349 2291 2508 
C 2291 2630 2176 2816 1907 2816 
C 1606 2816 1344 2534 1197 2285 
C 1158 2215 1126 2266 1126 2298 
z
" transform="scale(0.015625)"/>
       <path id="LinLibertineT-6f" d="M 262 1315 
C 262 660 698 -64 1606 -64 
C 2016 -64 2330 83 2547 294 
C 2835 577 2963 981 2963 1372 
C 2963 2040 2598 2816 1619 2816 
C 1197 2816 851 2643 614 2367 
C 384 2091 262 1719 262 1315 
z
M 1523 2591 
C 2074 2591 2413 2091 2413 1167 
C 2413 358 1997 160 1696 160 
C 1030 160 813 968 813 1462 
C 813 2020 947 2591 1523 2591 
z
" transform="scale(0.015625)"/>
       <path id="LinLibertineT-76" d="M 2080 2540 
C 2426 2515 2464 2439 2330 2115 
L 1811 869 
C 1709 622 1677 622 1574 889 
L 1114 2115 
C 998 2420 973 2496 1312 2540 
C 1350 2579 1350 2713 1312 2752 
C 1101 2745 877 2739 666 2739 
C 454 2739 262 2745 70 2752 
C 32 2713 32 2579 70 2540 
C 410 2502 454 2401 582 2077 
L 1402 69 
C 1440 -26 1478 -64 1562 -64 
C 1626 -64 1670 -26 1715 82 
L 2566 2070 
C 2688 2350 2758 2509 3117 2540 
C 3155 2579 3155 2713 3117 2752 
C 2989 2745 2835 2739 2669 2739 
C 2458 2739 2240 2745 2080 2752 
C 2042 2713 2042 2579 2080 2540 
z
" transform="scale(0.015625)"/>
       <path id="LinLibertineT-65" d="M 794 1817 
C 915 2546 1363 2604 1517 2604 
C 1760 2604 2048 2469 2048 1927 
C 2048 1869 2022 1836 1952 1836 
L 794 1817 
z
M 2470 598 
C 2234 352 2048 249 1677 249 
C 1446 249 1178 385 979 714 
C 851 928 774 1225 774 1600 
L 2477 1587 
C 2554 1587 2598 1625 2598 1696 
C 2598 2237 2406 2816 1517 2816 
C 960 2816 237 2282 237 1302 
C 237 940 326 592 538 346 
C 755 89 1056 -64 1517 -64 
C 2003 -64 2349 160 2605 495 
C 2586 559 2547 592 2470 598 
z
" transform="scale(0.015625)"/>
       <path id="LinLibertineT-48" d="M 3955 787 
L 3955 3357 
C 3955 3896 4064 3929 4512 3948 
C 4550 3987 4550 4121 4512 4160 
C 4250 4153 3923 4147 3680 4147 
C 3443 4147 3136 4153 2854 4160 
C 2816 4121 2816 3987 2854 3948 
C 3302 3929 3411 3896 3411 3357 
L 3411 2316 
L 1222 2316 
L 1222 3357 
C 1222 3896 1331 3929 1779 3948 
C 1818 3987 1818 4121 1779 4160 
C 1536 4153 1274 4147 947 4147 
C 627 4147 365 4153 122 4160 
C 83 4121 83 3987 122 3948 
C 570 3929 678 3896 678 3357 
L 678 787 
C 678 261 570 230 122 211 
C 83 172 83 38 122 0 
C 403 6 710 12 954 12 
C 1184 12 1498 6 1779 0 
C 1818 38 1818 172 1779 211 
C 1331 230 1222 261 1222 787 
L 1222 2048 
L 3411 2048 
L 3411 787 
C 3411 261 3302 230 2854 211 
C 2816 172 2816 38 2854 0 
C 3142 6 3450 12 3686 12 
C 3923 12 4230 6 4512 0 
C 4550 38 4550 172 4512 211 
C 4064 230 3955 261 3955 787 
z
" transform="scale(0.015625)"/>
       <path id="LinLibertineT-74" d="M 275 2752 
C 186 2752 160 2675 160 2623 
L 160 2540 
C 160 2508 166 2502 192 2502 
L 570 2502 
L 570 570 
C 570 115 768 -64 1062 -64 
C 1357 -64 1677 76 1926 358 
C 1914 422 1875 461 1811 467 
C 1645 339 1453 288 1286 288 
C 1114 288 1075 480 1075 878 
L 1075 2502 
L 1741 2502 
C 1805 2502 1894 2527 1894 2585 
L 1894 2713 
C 1894 2739 1875 2752 1843 2752 
L 1075 2752 
L 1075 3001 
C 1075 3417 1101 3673 1101 3673 
C 1101 3712 1082 3731 1050 3731 
C 1024 3731 966 3705 909 3673 
C 838 3635 774 3603 691 3584 
C 614 3558 550 3539 550 3494 
C 550 3417 570 3462 570 2752 
L 275 2752 
z
" transform="scale(0.015625)"/>
       <path id="LinLibertineT-67" d="M 2042 1798 
C 2042 1208 1741 1088 1504 1088 
C 966 1088 909 1538 909 1944 
C 909 2389 1069 2617 1421 2617 
C 1824 2617 2042 2325 2042 1798 
z
M 845 -52 
C 915 -71 1018 -84 1101 -84 
C 1299 -84 1478 -64 1568 -64 
C 1888 -64 2157 -71 2342 -176 
C 2592 -319 2669 -411 2669 -581 
C 2669 -1051 1990 -1300 1414 -1300 
C 1184 -1300 646 -1110 646 -666 
C 646 -444 659 -280 845 -52 
z
M 2842 2484 
C 2963 2484 3078 2598 3078 2726 
C 3078 2860 2957 2963 2784 2963 
C 2618 2963 2310 2854 2144 2636 
C 2067 2687 1856 2816 1478 2816 
C 909 2816 384 2433 384 1849 
C 384 1506 538 1310 717 1138 
C 538 985 435 708 435 488 
C 435 256 563 76 730 -7 
C 384 -215 205 -515 205 -796 
C 205 -1364 730 -1536 1222 -1536 
C 2086 -1536 3021 -1117 3021 -411 
C 3021 -202 2925 -39 2739 115 
C 2490 320 2042 326 1805 326 
C 1690 326 1530 313 1376 294 
C 1280 288 1216 281 1184 281 
C 998 281 774 371 774 650 
C 774 779 813 915 890 1023 
C 1043 934 1222 889 1472 889 
C 2035 889 2554 1240 2554 1862 
C 2554 2160 2464 2331 2278 2522 
C 2323 2585 2451 2675 2534 2675 
C 2579 2675 2624 2655 2662 2598 
C 2688 2547 2771 2484 2842 2484 
z
" transform="scale(0.015625)"/>
       <path id="LinLibertineT-6e" d="M 1178 2298 
C 1139 2253 1101 2240 1101 2298 
C 1094 2470 1082 2719 1050 2783 
C 1037 2816 1024 2835 973 2835 
C 794 2764 627 2707 186 2649 
C 173 2611 186 2508 198 2470 
C 544 2438 614 2406 614 2036 
L 614 791 
C 614 268 550 243 166 211 
C 128 172 128 38 166 0 
C 358 6 614 12 870 12 
C 1126 12 1318 6 1510 0 
C 1549 38 1549 172 1510 211 
C 1184 243 1120 268 1120 791 
L 1120 1838 
C 1120 1972 1178 2049 1229 2106 
C 1472 2342 1760 2483 2010 2483 
C 2138 2483 2272 2400 2349 2253 
C 2413 2125 2426 1953 2426 1761 
L 2426 791 
C 2426 268 2362 243 2029 211 
C 1997 172 1997 38 2029 0 
C 2221 6 2426 12 2682 12 
C 2938 12 3168 6 3360 0 
C 3392 38 3392 172 3360 211 
C 3002 243 2931 268 2931 791 
L 2931 1742 
C 2931 2093 2906 2400 2758 2598 
C 2650 2739 2451 2816 2227 2816 
C 1914 2816 1555 2732 1178 2298 
z
" transform="scale(0.015625)"/>
       <path id="LinLibertineT-69" d="M 576 3852 
C 576 3686 730 3519 883 3519 
C 1062 3519 1216 3692 1216 3827 
C 1216 3980 1082 4160 909 4160 
C 755 4160 576 4006 576 3852 
z
M 1158 785 
L 1158 2040 
C 1158 2356 1184 2769 1184 2769 
C 1184 2796 1152 2816 1101 2816 
C 922 2743 666 2683 224 2624 
C 211 2585 224 2483 237 2444 
C 589 2413 653 2375 653 2015 
L 653 785 
C 653 261 582 242 192 211 
C 154 172 154 38 192 0 
C 403 6 653 12 909 12 
C 1165 12 1408 6 1619 0 
C 1658 38 1658 172 1619 211 
C 1229 236 1158 261 1158 785 
z
" transform="scale(0.015625)"/>
       <path id="LinLibertineT-79" d="M 1306 -1012 
C 1408 -833 1491 -655 1568 -464 
C 2080 765 2368 1420 2701 2133 
C 2829 2400 2918 2502 3219 2540 
C 3258 2579 3258 2713 3219 2752 
C 3091 2745 2944 2739 2765 2739 
C 2573 2739 2374 2745 2182 2752 
C 2144 2713 2144 2579 2182 2540 
C 2387 2521 2592 2483 2490 2254 
L 1856 796 
C 1811 694 1754 675 1702 803 
L 1133 2127 
C 1018 2394 986 2515 1344 2540 
C 1382 2579 1382 2713 1344 2752 
C 1107 2745 851 2739 621 2739 
C 403 2739 230 2745 102 2752 
C 64 2713 64 2579 102 2540 
C 358 2509 442 2451 608 2063 
L 1331 389 
C 1389 262 1485 -31 1421 -209 
C 1344 -419 1267 -598 1171 -795 
C 1101 -922 1011 -980 851 -980 
C 762 -980 736 -960 666 -960 
C 480 -960 384 -1152 384 -1236 
C 384 -1370 512 -1472 685 -1472 
C 819 -1472 1075 -1421 1306 -1012 
z
" transform="scale(0.015625)"/>
       <path id="LinLibertineT-28" d="M 282 1612 
C 282 1324 307 -154 1638 -1306 
C 1702 -1293 1754 -1249 1773 -1197 
C 1562 -954 813 -71 813 1612 
C 813 3296 1568 4179 1773 4409 
C 1754 4473 1709 4518 1638 4525 
C 877 3872 282 2803 282 1612 
z
" transform="scale(0.015625)"/>
       <path id="LinLibertineT-61" d="M 1875 1494 
L 1875 647 
C 1875 564 1837 519 1786 480 
C 1619 346 1402 198 1222 198 
C 902 198 762 455 762 654 
C 762 942 896 1237 1370 1359 
L 1875 1494 
z
M 1875 307 
C 1914 108 1984 -64 2304 -64 
C 2547 -64 2778 44 2912 172 
C 2899 249 2874 307 2803 345 
C 2758 307 2650 243 2566 243 
C 2381 243 2374 493 2374 788 
L 2374 1731 
C 2374 2643 1875 2816 1408 2816 
C 883 2816 352 2469 352 2104 
C 352 1950 429 1873 576 1873 
C 762 1873 877 2007 877 2091 
C 877 2136 870 2181 858 2206 
C 851 2226 845 2264 845 2335 
C 845 2534 1114 2604 1357 2604 
C 1574 2604 1875 2495 1875 1770 
C 1875 1725 1856 1699 1837 1693 
L 1286 1558 
C 672 1404 230 1064 230 628 
C 230 102 589 -64 1037 -64 
C 1261 -64 1453 -13 1734 204 
L 1862 307 
L 1875 307 
z
" transform="scale(0.015625)"/>
       <path id="LinLibertineT-6d" d="M 1088 2298 
C 1082 2489 1069 2719 1037 2783 
C 1024 2816 1011 2835 960 2835 
C 781 2764 614 2707 173 2649 
C 160 2611 173 2508 186 2470 
C 531 2438 602 2406 602 2036 
L 602 791 
C 602 268 518 236 166 211 
C 128 172 128 38 166 0 
C 358 6 602 12 858 12 
C 1114 12 1312 6 1504 0 
C 1542 38 1542 172 1504 211 
C 1178 243 1107 268 1107 791 
L 1107 1838 
C 1107 1972 1165 2049 1216 2106 
C 1472 2355 1709 2483 1907 2483 
C 2150 2483 2330 2329 2330 1902 
L 2330 791 
C 2330 268 2278 236 1933 211 
C 1901 172 1901 38 1933 0 
C 2093 6 2330 12 2586 12 
C 2842 12 3053 6 3213 0 
C 3245 38 3245 172 3213 211 
C 2893 236 2835 268 2835 791 
L 2835 1806 
C 2835 1896 2835 1985 2829 2061 
C 3136 2400 3424 2483 3674 2483 
C 3917 2483 4058 2342 4058 1915 
L 4058 791 
C 4058 268 3994 236 3661 211 
C 3629 172 3629 38 3661 0 
C 3821 6 4058 12 4314 12 
C 4570 12 4794 6 4973 0 
C 5005 38 5005 172 4973 211 
C 4621 236 4563 268 4563 791 
L 4563 1800 
C 4563 2368 4467 2816 3904 2816 
C 3578 2816 3181 2694 2848 2342 
C 2829 2323 2790 2291 2778 2349 
C 2720 2611 2470 2816 2138 2816 
C 1766 2816 1434 2598 1165 2298 
C 1133 2266 1094 2221 1088 2298 
z
" transform="scale(0.015625)"/>
       <path id="LinLibertineT-29" d="M 1626 1612 
C 1626 1900 1600 3379 269 4531 
C 205 4518 154 4473 134 4422 
C 346 4179 1094 3296 1094 1612 
C 1094 -71 339 -954 134 -1185 
C 154 -1249 198 -1293 269 -1300 
C 1030 -647 1626 422 1626 1612 
z
" transform="scale(0.015625)"/>
      </defs>
      <use xlink:href="#LinLibertineT-41" transform="scale(0.996264)"/>
      <use xlink:href="#LinLibertineT-70" transform="translate(69.240318 0)scale(0.996264)"/>
      <use xlink:href="#LinLibertineT-70" transform="translate(120.946414 0)scale(0.996264)"/>
      <use xlink:href="#LinLibertineT-72" transform="translate(172.65251 0)scale(0.996264)"/>
      <use xlink:href="#LinLibertineT-6f" transform="translate(208.916438 0)scale(0.996264)"/>
      <use xlink:href="#LinLibertineT-76" transform="translate(258.430726 0)scale(0.996264)"/>
      <use xlink:href="#LinLibertineT-65" transform="translate(307.147954 0)scale(0.996264)"/>
      <use xlink:href="#LinLibertineT-72" transform="translate(351.680907 0)scale(0.996264)"/>
      <use xlink:href="#LinLibertineT-48" transform="translate(413.648495 0)scale(0.996264)"/>
      <use xlink:href="#LinLibertineT-65" transform="translate(486.375722 0)scale(0.996264)"/>
      <use xlink:href="#LinLibertineT-74" transform="translate(530.908674 0)scale(0.996264)"/>
      <use xlink:href="#LinLibertineT-65" transform="translate(562.390608 0)scale(0.996264)"/>
      <use xlink:href="#LinLibertineT-72" transform="translate(606.923561 0)scale(0.996264)"/>
      <use xlink:href="#LinLibertineT-6f" transform="translate(643.187488 0)scale(0.996264)"/>
      <use xlink:href="#LinLibertineT-67" transform="translate(693.399158 0)scale(0.996264)"/>
      <use xlink:href="#LinLibertineT-65" transform="translate(743.212359 0)scale(0.996264)"/>
      <use xlink:href="#LinLibertineT-6e" transform="translate(787.745311 0)scale(0.996264)"/>
      <use xlink:href="#LinLibertineT-65" transform="translate(841.742802 0)scale(0.996264)"/>
      <use xlink:href="#LinLibertineT-69" transform="translate(886.275755 0)scale(0.996264)"/>
      <use xlink:href="#LinLibertineT-74" transform="translate(913.2745 0)scale(0.996264)"/>
      <use xlink:href="#LinLibertineT-79" transform="translate(944.756434 0)scale(0.996264)"/>
      <use xlink:href="#LinLibertineT-28" transform="translate(1020.970661 0)scale(0.996264)"/>
      <use xlink:href="#LinLibertineT-48" transform="translate(1050.659362 0)scale(0.996264)"/>
      <use xlink:href="#LinLibertineT-61" transform="translate(1123.386589 0)scale(0.996264)"/>
      <use xlink:href="#LinLibertineT-6d" transform="translate(1168.915821 0)scale(0.996264)"/>
      <use xlink:href="#LinLibertineT-6d" transform="translate(1247.620663 0)scale(0.996264)"/>
      <use xlink:href="#LinLibertineT-69" transform="translate(1326.325504 0)scale(0.996264)"/>
      <use xlink:href="#LinLibertineT-6e" transform="translate(1353.32425 0)scale(0.996264)"/>
      <use xlink:href="#LinLibertineT-67" transform="translate(1407.321741 0)scale(0.996264)"/>
      <use xlink:href="#LinLibertineT-29" transform="translate(1457.134941 0)scale(0.996264)"/>
     </g>
    </g>
   </g>
   <g id="matplotlib.axis_2">
    <g id="ytick_1">
     <g id="line2d_9">
      <path d="M 29.096752 171.981691 
L 216.720902 171.981691 
" clip-path="url(#p047dacfc2f)" style="fill: none; stroke: #cccccc; stroke-opacity: 0.5; stroke-width: 0.4; stroke-linecap: square"/>
     </g>
     <g id="line2d_10">
      <defs>
       <path id="md0ca217b7c" d="M 0 0 
L 3 0 
" style="stroke: #333333; stroke-width: 0.6"/>
      </defs>
      <g>
       <use xlink:href="#md0ca217b7c" x="29.096752" y="171.981691" style="fill: #333333; stroke: #333333; stroke-width: 0.6"/>
      </g>
     </g>
     <g id="text_6">
      <!-- $\mathdefault{0.0}$ -->
      <g style="fill: #333333" transform="translate(15.976821 174.776212)scale(0.08 -0.08)">
       <use xlink:href="#LinLibertineT-30" transform="scale(0.996264)"/>
       <use xlink:href="#LibertineMathMI-94" transform="translate(47.92029 0)scale(0.996264)"/>
       <use xlink:href="#LinLibertineT-30" transform="translate(71.531789 0)scale(0.996264)"/>
      </g>
     </g>
    </g>
    <g id="ytick_2">
     <g id="line2d_11">
      <path d="M 29.096752 140.476272 
L 216.720902 140.476272 
" clip-path="url(#p047dacfc2f)" style="fill: none; stroke: #cccccc; stroke-opacity: 0.5; stroke-width: 0.4; stroke-linecap: square"/>
     </g>
     <g id="line2d_12">
      <g>
       <use xlink:href="#md0ca217b7c" x="29.096752" y="140.476272" style="fill: #333333; stroke: #333333; stroke-width: 0.6"/>
      </g>
     </g>
     <g id="text_7">
      <!-- $\mathdefault{0.1}$ -->
      <g style="fill: #333333" transform="translate(15.976821 143.270793)scale(0.08 -0.08)">
       <defs>
        <path id="LinLibertineT-31" d="M 1843 793 
L 1843 3014 
C 1843 3398 1850 3789 1862 3872 
C 1862 3904 1850 3904 1824 3904 
C 1472 3686 1133 3526 570 3264 
C 582 3193 608 3129 666 3091 
C 960 3212 1101 3251 1222 3251 
C 1331 3251 1350 3097 1350 2880 
L 1350 793 
C 1350 262 1178 230 730 211 
C 691 172 691 38 730 0 
C 1043 6 1274 12 1619 12 
C 1926 12 2080 6 2400 0 
C 2438 38 2438 172 2400 211 
C 1952 230 1843 262 1843 793 
z
" transform="scale(0.015625)"/>
       </defs>
       <use xlink:href="#LinLibertineT-30" transform="scale(0.996264)"/>
       <use xlink:href="#LibertineMathMI-94" transform="translate(47.92029 0)scale(0.996264)"/>
       <use xlink:href="#LinLibertineT-31" transform="translate(71.531789 0)scale(0.996264)"/>
      </g>
     </g>
    </g>
    <g id="ytick_3">
     <g id="line2d_13">
      <path d="M 29.096752 108.970853 
L 216.720902 108.970853 
" clip-path="url(#p047dacfc2f)" style="fill: none; stroke: #cccccc; stroke-opacity: 0.5; stroke-width: 0.4; stroke-linecap: square"/>
     </g>
     <g id="line2d_14">
      <g>
       <use xlink:href="#md0ca217b7c" x="29.096752" y="108.970853" style="fill: #333333; stroke: #333333; stroke-width: 0.6"/>
      </g>
     </g>
     <g id="text_8">
      <!-- $\mathdefault{0.2}$ -->
      <g style="fill: #333333" transform="translate(15.976821 111.765374)scale(0.08 -0.08)">
       <use xlink:href="#LinLibertineT-30" transform="scale(0.996264)"/>
       <use xlink:href="#LibertineMathMI-94" transform="translate(47.92029 0)scale(0.996264)"/>
       <use xlink:href="#LinLibertineT-32" transform="translate(71.531789 0)scale(0.996264)"/>
      </g>
     </g>
    </g>
    <g id="ytick_4">
     <g id="line2d_15">
      <path d="M 29.096752 77.465434 
L 216.720902 77.465434 
" clip-path="url(#p047dacfc2f)" style="fill: none; stroke: #cccccc; stroke-opacity: 0.5; stroke-width: 0.4; stroke-linecap: square"/>
     </g>
     <g id="line2d_16">
      <g>
       <use xlink:href="#md0ca217b7c" x="29.096752" y="77.465434" style="fill: #333333; stroke: #333333; stroke-width: 0.6"/>
      </g>
     </g>
     <g id="text_9">
      <!-- $\mathdefault{0.3}$ -->
      <g style="fill: #333333" transform="translate(15.976821 80.259955)scale(0.08 -0.08)">
       <use xlink:href="#LinLibertineT-30" transform="scale(0.996264)"/>
       <use xlink:href="#LibertineMathMI-94" transform="translate(47.92029 0)scale(0.996264)"/>
       <use xlink:href="#LinLibertineT-33" transform="translate(71.531789 0)scale(0.996264)"/>
      </g>
     </g>
    </g>
    <g id="ytick_5">
     <g id="line2d_17">
      <path d="M 29.096752 45.960015 
L 216.720902 45.960015 
" clip-path="url(#p047dacfc2f)" style="fill: none; stroke: #cccccc; stroke-opacity: 0.5; stroke-width: 0.4; stroke-linecap: square"/>
     </g>
     <g id="line2d_18">
      <g>
       <use xlink:href="#md0ca217b7c" x="29.096752" y="45.960015" style="fill: #333333; stroke: #333333; stroke-width: 0.6"/>
      </g>
     </g>
     <g id="text_10">
      <!-- $\mathdefault{0.4}$ -->
      <g style="fill: #333333" transform="translate(15.976821 48.754535)scale(0.08 -0.08)">
       <defs>
        <path id="LinLibertineT-34" d="M 1734 3246 
L 1734 1408 
L 512 1408 
C 838 1931 1293 2646 1734 3246 
z
M 2752 1408 
L 2221 1408 
L 2221 3272 
C 2221 3591 2221 3840 2234 3891 
L 2221 3904 
L 2016 3904 
C 1971 3904 1939 3865 1914 3833 
C 1510 3342 768 2288 179 1375 
C 198 1279 237 1107 429 1107 
L 1734 1107 
L 1734 522 
C 1734 230 1491 230 1216 211 
C 1178 172 1178 38 1216 0 
C 1421 6 1677 12 1971 12 
C 2221 12 2464 6 2669 0 
C 2707 38 2707 172 2669 211 
C 2355 236 2221 223 2221 522 
L 2221 1107 
L 2662 1107 
C 2752 1107 2848 1228 2848 1305 
C 2848 1369 2822 1408 2752 1408 
z
" transform="scale(0.015625)"/>
       </defs>
       <use xlink:href="#LinLibertineT-30" transform="scale(0.996264)"/>
       <use xlink:href="#LibertineMathMI-94" transform="translate(47.92029 0)scale(0.996264)"/>
       <use xlink:href="#LinLibertineT-34" transform="translate(71.531789 0)scale(0.996264)"/>
      </g>
     </g>
    </g>
    <g id="text_11">
     <!-- Approval Rate -->
     <g style="fill: #333333" transform="translate(9.88767 121.751741)rotate(-90)scale(0.09 -0.09)">
      <defs>
       <path id="LinLibertineT-6c" d="M 608 790 
C 608 262 538 230 147 211 
C 109 172 109 38 147 0 
C 371 6 608 12 864 12 
C 1120 12 1363 6 1574 0 
C 1613 38 1613 172 1574 211 
C 1184 230 1114 262 1114 790 
L 1114 3726 
C 1114 4140 1139 4408 1139 4408 
C 1139 4458 1114 4480 1056 4480 
C 896 4408 416 4309 160 4288 
C 147 4236 160 4134 198 4096 
C 570 4070 608 4051 608 3573 
L 608 790 
z
" transform="scale(0.015625)"/>
       <path id="LinLibertineT-52" d="M 1741 4006 
C 2131 4006 2592 3864 2592 3101 
C 2592 2293 2138 2112 1517 2112 
L 1210 2112 
L 1210 3592 
C 1210 3780 1286 4006 1741 4006 
z
M 1210 812 
L 1210 1894 
C 1747 1894 1869 1798 1958 1651 
L 2643 537 
C 2829 206 3104 -64 3488 -64 
C 3584 -64 3693 -52 3757 -20 
C 3782 25 3776 83 3750 134 
C 3462 134 3302 356 3136 636 
L 2330 2003 
C 2605 2092 3181 2428 3181 3107 
C 3181 3431 3072 3696 2842 3915 
C 2534 4204 2138 4224 1734 4224 
C 1434 4224 1165 4179 934 4179 
C 710 4179 410 4185 109 4191 
C 70 4153 70 4019 109 3980 
C 557 3961 666 3928 666 3392 
L 666 792 
C 666 263 557 230 109 211 
C 70 172 70 38 109 0 
C 397 6 698 12 941 12 
C 1184 12 1485 6 1766 0 
C 1805 38 1805 172 1766 211 
C 1318 230 1210 263 1210 800 
L 1210 812 
z
" transform="scale(0.015625)"/>
      </defs>
      <use xlink:href="#LinLibertineT-41" transform="scale(0.996264)"/>
      <use xlink:href="#LinLibertineT-70" transform="translate(69.240318 0)scale(0.996264)"/>
      <use xlink:href="#LinLibertineT-70" transform="translate(120.946414 0)scale(0.996264)"/>
      <use xlink:href="#LinLibertineT-72" transform="translate(172.65251 0)scale(0.996264)"/>
      <use xlink:href="#LinLibertineT-6f" transform="translate(208.916438 0)scale(0.996264)"/>
      <use xlink:href="#LinLibertineT-76" transform="translate(258.430726 0)scale(0.996264)"/>
      <use xlink:href="#LinLibertineT-61" transform="translate(307.945014 0)scale(0.996264)"/>
      <use xlink:href="#LinLibertineT-6c" transform="translate(353.474246 0)scale(0.996264)"/>
      <use xlink:href="#LinLibertineT-52" transform="translate(404.68221 0)scale(0.996264)"/>
      <use xlink:href="#LinLibertineT-61" transform="translate(463.162889 0)scale(0.996264)"/>
      <use xlink:href="#LinLibertineT-74" transform="translate(508.692121 0)scale(0.996264)"/>
      <use xlink:href="#LinLibertineT-65" transform="translate(540.174054 0)scale(0.996264)"/>
     </g>
    </g>
   </g>
   <g id="PathCollection_1">
    <defs>
     <path id="ma31fec74ef" d="M 0 2.5 
C 0.663008 2.5 1.29895 2.236584 1.767767 1.767767 
C 2.236584 1.29895 2.5 0.663008 2.5 0 
C 2.5 -0.663008 2.236584 -1.29895 1.767767 -1.767767 
C 1.29895 -2.236584 0.663008 -2.5 0 -2.5 
C -0.663008 -2.5 -1.29895 -2.236584 -1.767767 -1.767767 
C -2.236584 -1.29895 -2.5 -0.663008 -2.5 0 
C -2.5 0.663008 -2.236584 1.29895 -1.767767 1.767767 
C -1.29895 2.236584 -0.663008 2.5 0 2.5 
z
" style="stroke: #6b6b6b; stroke-opacity: 0.5; stroke-width: 0.5"/>
    </defs>
    <g clip-path="url(#p047dacfc2f)">
     <use xlink:href="#ma31fec74ef" x="114.522756" y="101.216698" style="fill: #6b6b6b; fill-opacity: 0.5; stroke: #6b6b6b; stroke-opacity: 0.5; stroke-width: 0.5"/>
     <use xlink:href="#ma31fec74ef" x="122.548311" y="149.985665" style="fill: #6b6b6b; fill-opacity: 0.5; stroke: #6b6b6b; stroke-opacity: 0.5; stroke-width: 0.5"/>
     <use xlink:href="#ma31fec74ef" x="208.192532" y="167.760231" style="fill: #6b6b6b; fill-opacity: 0.5; stroke: #6b6b6b; stroke-opacity: 0.5; stroke-width: 0.5"/>
     <use xlink:href="#ma31fec74ef" x="61.950421" y="23.119697" style="fill: #6b6b6b; fill-opacity: 0.5; stroke: #6b6b6b; stroke-opacity: 0.5; stroke-width: 0.5"/>
     <use xlink:href="#ma31fec74ef" x="128.101588" y="137.654559" style="fill: #6b6b6b; fill-opacity: 0.5; stroke: #6b6b6b; stroke-opacity: 0.5; stroke-width: 0.5"/>
     <use xlink:href="#ma31fec74ef" x="108.811903" y="121.324176" style="fill: #6b6b6b; fill-opacity: 0.5; stroke: #6b6b6b; stroke-opacity: 0.5; stroke-width: 0.5"/>
     <use xlink:href="#ma31fec74ef" x="65.645282" y="145.097659" style="fill: #6b6b6b; fill-opacity: 0.5; stroke: #6b6b6b; stroke-opacity: 0.5; stroke-width: 0.5"/>
     <use xlink:href="#ma31fec74ef" x="78.549705" y="41.338627" style="fill: #6b6b6b; fill-opacity: 0.5; stroke: #6b6b6b; stroke-opacity: 0.5; stroke-width: 0.5"/>
     <use xlink:href="#ma31fec74ef" x="156.83154" y="161.872406" style="fill: #6b6b6b; fill-opacity: 0.5; stroke: #6b6b6b; stroke-opacity: 0.5; stroke-width: 0.5"/>
     <use xlink:href="#ma31fec74ef" x="59.332758" y="137.321286" style="fill: #6b6b6b; fill-opacity: 0.5; stroke: #6b6b6b; stroke-opacity: 0.5; stroke-width: 0.5"/>
     <use xlink:href="#ma31fec74ef" x="146.50835" y="144.208931" style="fill: #6b6b6b; fill-opacity: 0.5; stroke: #6b6b6b; stroke-opacity: 0.5; stroke-width: 0.5"/>
     <use xlink:href="#ma31fec74ef" x="37.625122" y="36.894986" style="fill: #6b6b6b; fill-opacity: 0.5; stroke: #6b6b6b; stroke-opacity: 0.5; stroke-width: 0.5"/>
    </g>
   </g>
   <g id="patch_3">
    <path d="M 29.096752 174.992258 
L 29.096752 15.88767 
" style="fill: none; stroke: #333333; stroke-width: 0.6; stroke-linejoin: miter; stroke-linecap: square"/>
   </g>
   <g id="patch_4">
    <path d="M 29.096752 174.992258 
L 216.720902 174.992258 
" style="fill: none; stroke: #333333; stroke-width: 0.6; stroke-linejoin: miter; stroke-linecap: square"/>
   </g>
   <g id="text_12">
    <!-- Besancenot -->
    <g style="opacity: 0.7" transform="translate(120.022756 98.216698)scale(0.06 -0.06)">
     <defs>
      <path id="LinLibertineT-42" d="M 1222 3540 
C 1222 3878 1222 3942 1779 3942 
C 2138 3942 2605 3751 2605 3101 
C 2605 2559 2227 2368 1696 2368 
L 1222 2368 
L 1222 3540 
z
M 1222 2150 
L 1664 2150 
C 2541 2150 2906 1654 2906 1074 
C 2906 604 2726 211 1754 211 
C 1306 211 1222 378 1222 771 
L 1222 2150 
z
M 122 4160 
C 83 4121 83 3987 122 3948 
C 570 3929 678 3897 678 3368 
L 678 797 
C 678 262 570 230 122 211 
C 83 172 83 38 122 0 
C 371 6 717 12 954 12 
C 1184 12 1350 0 1888 0 
C 3162 0 3501 642 3501 1196 
C 3501 1815 3072 2169 2515 2329 
L 2515 2342 
C 2835 2501 3123 2833 3123 3177 
C 3123 3604 2938 4160 1747 4160 
C 1523 4160 1178 4147 947 4147 
C 717 4147 371 4153 122 4160 
z
" transform="scale(0.015625)"/>
      <path id="LinLibertineT-73" d="M 307 885 
C 333 570 352 269 352 0 
C 416 12 480 19 512 19 
C 557 19 595 19 640 6 
C 813 -39 986 -64 1222 -64 
C 1581 -64 2240 108 2240 743 
C 2240 1180 1926 1437 1491 1597 
C 1107 1745 851 1841 851 2194 
C 851 2457 1082 2604 1299 2604 
C 1440 2604 1811 2553 1894 2008 
C 1933 1969 2061 1976 2099 2014 
C 2118 2245 2131 2482 2138 2694 
C 1939 2726 1632 2816 1299 2816 
C 826 2816 397 2508 397 2097 
C 397 1629 608 1430 1101 1225 
C 1632 1007 1754 872 1754 596 
C 1754 281 1446 147 1210 147 
C 960 147 819 230 755 301 
C 614 448 544 731 506 891 
C 467 930 346 923 307 885 
z
" transform="scale(0.015625)"/>
      <path id="LinLibertineT-63" d="M 2547 583 
C 2522 641 2470 666 2413 673 
C 2195 390 1920 249 1645 249 
C 1178 249 787 724 787 1475 
C 787 2181 1094 2604 1517 2604 
C 1894 2604 1946 2380 1971 2155 
C 1990 1982 2080 1924 2214 1924 
C 2349 1924 2528 2007 2528 2206 
C 2528 2559 2163 2816 1549 2816 
C 915 2816 237 2245 237 1334 
C 237 506 698 -64 1504 -64 
C 1888 -64 2227 57 2547 583 
z
" transform="scale(0.015625)"/>
     </defs>
     <use xlink:href="#LinLibertineT-42" transform="scale(0.996264)"/>
     <use xlink:href="#LinLibertineT-65" transform="translate(58.580342 0)scale(0.996264)"/>
     <use xlink:href="#LinLibertineT-73" transform="translate(103.113295 0)scale(0.996264)"/>
     <use xlink:href="#LinLibertineT-61" transform="translate(141.967621 0)scale(0.996264)"/>
     <use xlink:href="#LinLibertineT-6e" transform="translate(187.496853 0)scale(0.996264)"/>
     <use xlink:href="#LinLibertineT-63" transform="translate(241.494344 0)scale(0.996264)"/>
     <use xlink:href="#LinLibertineT-65" transform="translate(284.134477 0)scale(0.996264)"/>
     <use xlink:href="#LinLibertineT-6e" transform="translate(328.66743 0)scale(0.996264)"/>
     <use xlink:href="#LinLibertineT-6f" transform="translate(382.664921 0)scale(0.996264)"/>
     <use xlink:href="#LinLibertineT-74" transform="translate(432.876591 0)scale(0.996264)"/>
    </g>
   </g>
   <g id="text_13">
    <!-- Buffet -->
    <g style="opacity: 0.7" transform="translate(128.048311 146.985665)scale(0.06 -0.06)">
     <defs>
      <path id="LinLibertineT-75" d="M 1389 -64 
C 1638 -64 1939 64 2253 319 
C 2285 345 2342 358 2349 313 
C 2368 153 2419 -64 2419 -64 
C 2470 -84 2502 -77 2541 -64 
C 2682 51 2906 147 3296 192 
C 3334 230 3334 326 3296 364 
C 2886 396 2829 517 2829 830 
L 2829 2055 
C 2829 2247 2854 2713 2854 2713 
C 2854 2732 2835 2752 2803 2752 
C 2771 2745 2675 2739 2579 2739 
C 2374 2739 2144 2745 1926 2752 
C 1888 2713 1888 2579 1926 2540 
C 2240 2521 2323 2444 2323 2023 
L 2323 792 
C 2323 670 2310 619 2221 543 
C 1984 338 1741 236 1581 236 
C 1389 236 1069 326 1069 894 
L 1069 2055 
C 1069 2247 1094 2713 1094 2713 
C 1094 2732 1075 2752 1043 2752 
C 1011 2745 915 2739 819 2739 
C 614 2739 384 2745 166 2752 
C 128 2713 128 2579 166 2540 
C 474 2515 563 2444 563 2030 
L 563 804 
C 563 364 755 -64 1389 -64 
z
" transform="scale(0.015625)"/>
      <path id="LinLibertineT-82" d="M 2861 791 
L 2861 2502 
L 3450 2502 
C 3514 2502 3603 2527 3603 2585 
L 3603 2713 
C 3603 2739 3584 2752 3552 2752 
L 2861 2752 
L 2861 3092 
C 2861 3221 2867 3510 2906 3729 
C 2995 4198 3162 4255 3302 4255 
C 3456 4255 3590 4166 3648 4037 
C 3712 3902 3776 3780 3949 3780 
C 4077 3780 4173 3876 4173 4005 
C 4173 4268 3878 4480 3405 4480 
C 3168 4480 2803 4339 2586 3998 
C 2502 4134 2214 4352 1702 4352 
C 1530 4352 1363 4307 1229 4230 
C 787 3976 576 3525 576 2752 
L 262 2752 
C 147 2752 115 2675 115 2623 
L 115 2540 
C 115 2508 122 2502 147 2502 
L 576 2502 
L 576 791 
C 576 262 506 236 160 211 
C 122 172 122 38 160 0 
C 371 6 602 12 832 12 
C 1037 12 1254 6 1459 0 
C 1498 38 1498 172 1459 211 
C 1165 236 1082 262 1082 791 
L 1082 2502 
L 2355 2502 
L 2355 791 
C 2355 262 2285 236 2003 211 
C 1965 172 1965 38 2003 0 
C 2189 6 2394 12 2611 12 
C 2816 12 3091 6 3366 0 
C 3405 38 3405 172 3366 211 
C 2931 236 2861 262 2861 791 
z
M 2419 3619 
C 2362 3388 2355 3137 2355 3009 
L 2355 2752 
L 1082 2752 
L 1082 2809 
C 1082 3246 1133 3471 1171 3594 
C 1306 4108 1594 4178 1690 4178 
C 1914 4178 2029 4024 2099 3863 
C 2157 3735 2214 3606 2381 3606 
C 2394 3606 2413 3613 2419 3619 
z
" transform="scale(0.015625)"/>
     </defs>
     <use xlink:href="#LinLibertineT-42" transform="scale(0.996264)"/>
     <use xlink:href="#LinLibertineT-75" transform="translate(58.580342 0)scale(0.996264)"/>
     <use xlink:href="#LinLibertineT-82" transform="translate(111.481967 0)scale(0.996264)"/>
     <use xlink:href="#LinLibertineT-65" transform="translate(169.464499 0)scale(0.996264)"/>
     <use xlink:href="#LinLibertineT-74" transform="translate(213.997452 0)scale(0.996264)"/>
    </g>
   </g>
   <g id="text_14">
    <!-- Schivardi -->
    <g style="opacity: 0.7" transform="translate(213.692532 164.760231)scale(0.06 -0.06)">
     <defs>
      <path id="LinLibertineT-53" d="M 2528 4051 
C 2157 4102 2170 4224 1542 4224 
C 896 4224 326 3794 326 3113 
C 326 2439 883 2131 1446 1912 
C 1830 1765 2304 1585 2304 956 
C 2304 436 2016 166 1504 166 
C 909 166 525 442 384 1078 
C 301 1103 237 1091 173 1058 
C 198 564 224 397 301 83 
C 704 83 883 -64 1453 -64 
C 1741 -64 2016 6 2240 147 
C 2611 378 2842 769 2842 1180 
C 2842 1861 2330 2163 1805 2362 
C 1421 2503 781 2747 781 3286 
C 781 3646 1107 4006 1485 4006 
C 2106 4006 2304 3608 2432 3184 
C 2502 3171 2586 3177 2643 3222 
C 2618 3530 2592 3710 2528 4051 
z
" transform="scale(0.015625)"/>
      <path id="LinLibertineT-68" d="M 1069 1838 
C 1069 1972 1126 2049 1178 2106 
C 1421 2342 1747 2483 1997 2483 
C 2125 2483 2259 2400 2336 2253 
C 2400 2125 2413 1953 2413 1761 
L 2413 791 
C 2413 268 2349 243 2016 211 
C 1984 172 1984 38 2016 0 
C 2195 6 2413 12 2669 12 
C 2925 12 3136 6 3347 0 
C 3379 38 3379 172 3347 211 
C 2989 243 2918 268 2918 791 
L 2918 1742 
C 2918 2093 2893 2406 2746 2598 
C 2637 2739 2438 2816 2214 2816 
C 1901 2816 1517 2732 1126 2298 
C 1107 2272 1062 2208 1062 2298 
L 1069 3728 
C 1069 4140 1094 4408 1094 4408 
C 1094 4458 1069 4480 1011 4480 
C 851 4408 371 4309 115 4288 
C 102 4236 115 4134 154 4096 
C 486 4077 563 4108 563 3576 
L 563 791 
C 563 262 486 236 115 211 
C 77 172 77 38 115 0 
C 326 6 563 12 819 12 
C 1062 12 1274 6 1453 0 
C 1491 38 1491 172 1453 211 
C 1126 236 1069 262 1069 791 
L 1069 1838 
z
" transform="scale(0.015625)"/>
      <path id="LinLibertineT-64" d="M 2208 795 
C 2208 673 2195 621 2106 544 
C 1869 339 1664 236 1504 236 
C 1158 236 800 615 800 1417 
C 800 1879 890 2136 986 2271 
C 1184 2572 1453 2591 1581 2591 
C 1811 2591 1971 2508 2099 2360 
C 2189 2258 2208 2213 2208 2014 
L 2208 795 
z
M 2138 320 
C 2170 345 2227 358 2234 313 
C 2253 160 2304 -64 2304 -64 
C 2355 -84 2387 -77 2426 -64 
C 2566 51 2790 147 3181 192 
C 3219 230 3219 326 3181 364 
C 2771 396 2714 518 2714 833 
L 2714 3728 
C 2714 4140 2739 4408 2739 4408 
C 2739 4458 2714 4480 2656 4480 
C 2496 4408 2016 4309 1760 4288 
C 1747 4236 1760 4134 1798 4096 
C 2131 4077 2208 4108 2208 3576 
L 2208 2764 
C 2208 2719 2195 2707 2150 2707 
C 2125 2707 1862 2816 1651 2816 
C 1229 2816 947 2675 691 2431 
C 416 2155 250 1776 250 1301 
C 250 512 646 -64 1338 -64 
C 1587 -64 1824 64 2138 320 
z
" transform="scale(0.015625)"/>
     </defs>
     <use xlink:href="#LinLibertineT-53" transform="scale(0.996264)"/>
     <use xlink:href="#LinLibertineT-63" transform="translate(48.318759 0)scale(0.996264)"/>
     <use xlink:href="#LinLibertineT-68" transform="translate(90.958892 0)scale(0.996264)"/>
     <use xlink:href="#LinLibertineT-69" transform="translate(144.557899 0)scale(0.996264)"/>
     <use xlink:href="#LinLibertineT-76" transform="translate(171.556644 0)scale(0.996264)"/>
     <use xlink:href="#LinLibertineT-61" transform="translate(221.070932 0)scale(0.996264)"/>
     <use xlink:href="#LinLibertineT-72" transform="translate(266.600164 0)scale(0.996264)"/>
     <use xlink:href="#LinLibertineT-64" transform="translate(302.864092 0)scale(0.996264)"/>
     <use xlink:href="#LinLibertineT-69" transform="translate(353.274996 0)scale(0.996264)"/>
    </g>
   </g>
   <g id="text_15">
    <!-- Bayrou -->
    <g style="opacity: 0.7" transform="translate(72.109332 20.119697)scale(0.06 -0.06)">
     <use xlink:href="#LinLibertineT-42" transform="scale(0.996264)"/>
     <use xlink:href="#LinLibertineT-61" transform="translate(58.580342 0)scale(0.996264)"/>
     <use xlink:href="#LinLibertineT-79" transform="translate(104.109574 0)scale(0.996264)"/>
     <use xlink:href="#LinLibertineT-72" transform="translate(155.417201 0)scale(0.996264)"/>
     <use xlink:href="#LinLibertineT-6f" transform="translate(191.681129 0)scale(0.996264)"/>
     <use xlink:href="#LinLibertineT-75" transform="translate(241.892798 0)scale(0.996264)"/>
    </g>
   </g>
   <g id="text_16">
    <!-- Bové -->
    <g style="opacity: 0.7" transform="translate(133.601588 134.654559)scale(0.06 -0.06)">
     <defs>
      <path id="LinLibertineT-13" d="M 1120 4486 
L 634 3724 
C 582 3641 563 3616 563 3545 
C 563 3500 608 3462 653 3462 
C 698 3462 749 3488 845 3584 
L 1581 4281 
L 1562 4352 
C 1414 4492 1248 4499 1210 4499 
C 1178 4499 1139 4492 1120 4486 
z
" transform="scale(0.015625)"/>
     </defs>
     <use xlink:href="#LinLibertineT-42" transform="scale(0.996264)"/>
     <use xlink:href="#LinLibertineT-6f" transform="translate(58.580342 0)scale(0.996264)"/>
     <use xlink:href="#LinLibertineT-76" transform="translate(108.09463 0)scale(0.996264)"/>
     <use xlink:href="#LinLibertineT-13" transform="translate(162.88912 0.747168)scale(0.996264)"/>
     <use xlink:href="#LinLibertineT-65" transform="translate(157.608918 0)scale(0.996264)"/>
    </g>
   </g>
   <g id="text_17">
    <!-- Voynet -->
    <g style="opacity: 0.7" transform="translate(114.311903 118.324176)scale(0.06 -0.06)">
     <defs>
      <path id="LinLibertineT-56" d="M 2867 3948 
C 3341 3916 3341 3743 3206 3397 
L 2195 827 
L 2170 827 
L 1146 3435 
C 998 3820 1037 3903 1472 3948 
C 1510 3987 1510 4121 1472 4160 
C 1216 4153 928 4147 698 4147 
C 467 4147 243 4153 32 4160 
C -7 4121 0 3987 38 3948 
C 390 3916 442 3807 614 3365 
L 1875 83 
C 1914 -20 1958 -64 2022 -64 
C 2093 -64 2138 -7 2176 83 
L 3501 3352 
C 3622 3653 3725 3903 4128 3948 
C 4166 3987 4166 4121 4128 4160 
C 3936 4153 3712 4147 3565 4147 
C 3418 4147 3130 4153 2867 4160 
C 2829 4121 2829 3987 2867 3948 
z
" transform="scale(0.015625)"/>
     </defs>
     <use xlink:href="#LinLibertineT-56" transform="scale(0.996264)"/>
     <use xlink:href="#LinLibertineT-6f" transform="translate(56.986344 0)scale(0.996264)"/>
     <use xlink:href="#LinLibertineT-79" transform="translate(106.500632 0)scale(0.996264)"/>
     <use xlink:href="#LinLibertineT-6e" transform="translate(157.808259 0)scale(0.996264)"/>
     <use xlink:href="#LinLibertineT-65" transform="translate(211.80575 0)scale(0.996264)"/>
     <use xlink:href="#LinLibertineT-74" transform="translate(256.338702 0)scale(0.996264)"/>
    </g>
   </g>
   <g id="text_18">
    <!-- Villiers -->
    <g style="opacity: 0.7" transform="translate(71.145282 142.097659)scale(0.06 -0.06)">
     <use xlink:href="#LinLibertineT-56" transform="scale(0.996264)"/>
     <use xlink:href="#LinLibertineT-69" transform="translate(64.956456 0)scale(0.996264)"/>
     <use xlink:href="#LinLibertineT-6c" transform="translate(91.955202 0)scale(0.996264)"/>
     <use xlink:href="#LinLibertineT-6c" transform="translate(118.256565 0)scale(0.996264)"/>
     <use xlink:href="#LinLibertineT-69" transform="translate(144.557929 0)scale(0.996264)"/>
     <use xlink:href="#LinLibertineT-65" transform="translate(171.556675 0)scale(0.996264)"/>
     <use xlink:href="#LinLibertineT-72" transform="translate(216.089627 0)scale(0.996264)"/>
     <use xlink:href="#LinLibertineT-73" transform="translate(253.150615 0)scale(0.996264)"/>
    </g>
   </g>
   <g id="text_19">
    <!-- Royal -->
    <g style="opacity: 0.7" transform="translate(84.049705 38.338627)scale(0.06 -0.06)">
     <use xlink:href="#LinLibertineT-52" transform="scale(0.996264)"/>
     <use xlink:href="#LinLibertineT-6f" transform="translate(58.480679 0)scale(0.996264)"/>
     <use xlink:href="#LinLibertineT-79" transform="translate(107.994967 0)scale(0.996264)"/>
     <use xlink:href="#LinLibertineT-61" transform="translate(159.302594 0)scale(0.996264)"/>
     <use xlink:href="#LinLibertineT-6c" transform="translate(204.831826 0)scale(0.996264)"/>
    </g>
   </g>
   <g id="text_20">
    <!-- Nihous -->
    <g style="opacity: 0.7" transform="translate(162.33154 158.872406)scale(0.06 -0.06)">
     <defs>
      <path id="LinLibertineT-4e" d="M 3558 3294 
L 3558 1198 
C 3558 1076 3558 1006 3514 1006 
C 3488 1006 3392 1121 3206 1358 
L 1011 4147 
L 147 4160 
C 109 4121 109 3987 147 3948 
C 422 3929 614 3705 653 3538 
L 653 865 
C 653 294 544 256 96 211 
C 58 172 58 38 96 0 
C 371 6 659 12 813 12 
C 960 12 1254 6 1523 0 
C 1562 38 1562 172 1523 211 
C 1075 256 966 281 966 865 
L 966 2826 
C 966 3044 966 3141 1018 3141 
C 1056 3141 1126 3070 1235 2929 
L 3469 102 
C 3539 -7 3622 -64 3725 -64 
C 3814 -64 3872 13 3872 135 
L 3872 3292 
C 3872 3865 3981 3903 4429 3948 
C 4467 3987 4467 4121 4429 4160 
C 4166 4153 3866 4147 3712 4147 
C 3578 4147 3283 4153 3002 4160 
C 2963 4121 2963 3987 3002 3948 
C 3450 3904 3558 3878 3558 3294 
z
" transform="scale(0.015625)"/>
     </defs>
     <use xlink:href="#LinLibertineT-4e" transform="scale(0.996264)"/>
     <use xlink:href="#LinLibertineT-69" transform="translate(69.638879 0)scale(0.996264)"/>
     <use xlink:href="#LinLibertineT-68" transform="translate(96.637624 0)scale(0.996264)"/>
     <use xlink:href="#LinLibertineT-6f" transform="translate(150.236631 0)scale(0.996264)"/>
     <use xlink:href="#LinLibertineT-75" transform="translate(200.448301 0)scale(0.996264)"/>
     <use xlink:href="#LinLibertineT-73" transform="translate(253.349926 0)scale(0.996264)"/>
    </g>
   </g>
   <g id="text_21">
    <!-- Le Pen -->
    <g style="opacity: 0.7" transform="translate(64.832758 134.321286)scale(0.06 -0.06)">
     <defs>
      <path id="LinLibertineT-4c" d="M 954 0 
L 2317 0 
C 2490 12 3078 0 3078 0 
C 3142 320 3206 736 3245 1070 
C 3181 1102 3110 1115 3034 1102 
C 2906 629 2669 249 1990 249 
L 1587 249 
C 1338 249 1222 371 1222 699 
L 1222 3363 
C 1222 3897 1331 3929 1779 3948 
C 1818 3987 1818 4121 1779 4160 
C 1491 4153 1190 4147 947 4147 
C 717 4147 416 4153 122 4160 
C 83 4121 83 3987 122 3948 
C 570 3929 678 3897 678 3363 
L 678 783 
C 678 262 570 230 122 211 
C 83 172 83 38 122 0 
C 371 -7 736 0 954 0 
z
" transform="scale(0.015625)"/>
      <path id="LinLibertineT-50" d="M 1210 3591 
C 1210 3779 1306 4006 1766 4006 
C 2208 4006 2650 3857 2650 3033 
C 2650 2333 2317 2048 1696 2048 
C 1536 2048 1280 2060 1210 2080 
L 1210 3591 
z
M 666 3390 
L 666 798 
C 666 262 557 230 109 211 
C 70 172 70 38 109 0 
C 397 6 710 12 941 12 
C 1165 12 1542 6 1862 0 
C 1901 38 1901 172 1862 211 
C 1363 237 1210 262 1210 798 
L 1210 1894 
C 1350 1849 1504 1830 1728 1830 
C 2893 1830 3245 2599 3245 3150 
C 3245 3532 2995 4224 1811 4224 
C 1568 4224 1190 4179 934 4179 
C 698 4179 365 4185 109 4191 
C 70 4153 70 4019 109 3980 
C 557 3960 666 3928 666 3390 
z
" transform="scale(0.015625)"/>
     </defs>
     <use xlink:href="#LinLibertineT-4c" transform="scale(0.996264)"/>
     <use xlink:href="#LinLibertineT-65" transform="translate(52.602728 0)scale(0.996264)"/>
     <use xlink:href="#LinLibertineT-50" transform="translate(122.04228 0)scale(0.996264)"/>
     <use xlink:href="#LinLibertineT-65" transform="translate(175.9402 0)scale(0.996264)"/>
     <use xlink:href="#LinLibertineT-6e" transform="translate(220.473152 0)scale(0.996264)"/>
    </g>
   </g>
   <g id="text_22">
    <!-- Sarkozy -->
    <g style="opacity: 0.7" transform="translate(152.00835 141.208931)scale(0.06 -0.06)">
     <defs>
      <path id="LinLibertineT-6b" d="M 550 790 
C 550 262 480 236 122 211 
C 83 172 83 38 122 0 
C 333 6 550 12 806 12 
C 1030 12 1242 6 1389 0 
C 1427 38 1427 172 1389 211 
C 1126 236 1056 262 1056 790 
L 1056 1344 
C 1178 1337 1267 1331 1331 1312 
C 1402 1261 1459 1204 1536 1102 
L 2003 478 
C 2189 230 2266 108 2272 32 
C 2272 12 2278 0 2298 0 
C 2426 6 2566 12 2694 12 
C 2893 12 3091 6 3219 0 
C 3258 38 3258 172 3219 211 
C 3002 236 2842 262 2669 478 
L 1824 1535 
C 1798 1567 1779 1592 1779 1624 
C 1779 1649 1779 1662 1805 1687 
L 2368 2262 
C 2560 2464 2784 2515 3040 2540 
C 3078 2579 3078 2713 3040 2752 
C 2893 2745 2714 2739 2483 2739 
C 2240 2739 2003 2745 1856 2752 
C 1818 2713 1818 2579 1856 2540 
C 2214 2515 2061 2294 2003 2218 
C 1856 2035 1658 1820 1491 1700 
C 1350 1598 1178 1522 1056 1504 
L 1056 3724 
C 1056 4140 1082 4408 1082 4408 
C 1082 4458 1056 4480 998 4480 
C 838 4408 358 4309 102 4288 
C 90 4236 102 4134 141 4096 
C 474 4076 550 4108 550 3571 
L 550 790 
z
" transform="scale(0.015625)"/>
      <path id="LinLibertineT-7a" d="M 454 2816 
C 442 2816 416 2790 416 2777 
C 410 2489 378 2264 320 1950 
C 378 1924 454 1911 531 1931 
C 659 2399 858 2508 1050 2515 
L 1869 2534 
C 1434 1802 794 878 294 204 
C 237 128 237 108 237 76 
C 237 32 288 0 384 0 
L 2381 -20 
C 2458 198 2541 532 2586 852 
C 2541 878 2470 891 2394 891 
L 2304 705 
C 2138 365 2010 224 1677 217 
L 826 217 
C 1299 820 1965 1828 2362 2483 
C 2458 2643 2477 2694 2477 2719 
C 2477 2745 2445 2764 2400 2764 
C 2368 2764 2189 2752 2003 2752 
L 832 2752 
C 627 2752 550 2784 454 2816 
z
" transform="scale(0.015625)"/>
     </defs>
     <use xlink:href="#LinLibertineT-53" transform="scale(0.996264)"/>
     <use xlink:href="#LinLibertineT-61" transform="translate(48.318759 0)scale(0.996264)"/>
     <use xlink:href="#LinLibertineT-72" transform="translate(93.847991 0)scale(0.996264)"/>
     <use xlink:href="#LinLibertineT-6b" transform="translate(130.908978 0)scale(0.996264)"/>
     <use xlink:href="#LinLibertineT-6f" transform="translate(181.917693 0)scale(0.996264)"/>
     <use xlink:href="#LinLibertineT-7a" transform="translate(232.129362 0)scale(0.996264)"/>
     <use xlink:href="#LinLibertineT-79" transform="translate(274.370935 0)scale(0.996264)"/>
    </g>
   </g>
   <g id="text_23">
    <!-- Laguiller -->
    <g style="opacity: 0.7" transform="translate(43.125122 33.894986)scale(0.06 -0.06)">
     <use xlink:href="#LinLibertineT-4c" transform="scale(0.996264)"/>
     <use xlink:href="#LinLibertineT-61" transform="translate(52.602728 0)scale(0.996264)"/>
     <use xlink:href="#LinLibertineT-67" transform="translate(98.131959 0)scale(0.996264)"/>
     <use xlink:href="#LinLibertineT-75" transform="translate(147.94516 0)scale(0.996264)"/>
     <use xlink:href="#LinLibertineT-69" transform="translate(200.846785 0)scale(0.996264)"/>
     <use xlink:href="#LinLibertineT-6c" transform="translate(227.84553 0)scale(0.996264)"/>
     <use xlink:href="#LinLibertineT-6c" transform="translate(254.146894 0)scale(0.996264)"/>
     <use xlink:href="#LinLibertineT-65" transform="translate(280.448258 0)scale(0.996264)"/>
     <use xlink:href="#LinLibertineT-72" transform="translate(324.981211 0)scale(0.996264)"/>
    </g>
   </g>
   <g id="text_24">
    <!-- French Election 2007 -->
    <g transform="translate(84.801789 9.88767)scale(0.09 -0.09)">
     <defs>
      <path id="LinLibertineT-46" d="M 1811 2112 
C 2355 2112 2374 1962 2394 1669 
C 2432 1630 2566 1630 2605 1669 
C 2598 1832 2592 2020 2592 2240 
C 2592 2456 2598 2621 2605 2786 
C 2566 2824 2432 2824 2394 2786 
C 2374 2437 2355 2355 1811 2355 
L 1216 2355 
L 1216 3497 
C 1216 3840 1293 3903 1574 3903 
L 1862 3903 
C 2541 3903 2701 3650 2842 3212 
C 2918 3212 2989 3224 3040 3243 
C 3008 3504 2912 4115 2899 4166 
C 2899 4179 2893 4185 2874 4185 
C 2765 4166 2733 4160 2573 4160 
L 941 4160 
C 736 4147 371 4153 115 4160 
C 77 4121 77 3987 115 3948 
C 563 3929 672 3898 672 3375 
L 672 803 
C 672 263 563 230 115 211 
C 77 172 77 38 115 0 
C 339 6 659 12 947 12 
C 1235 12 1549 6 1773 0 
C 1811 38 1811 172 1773 211 
C 1325 230 1216 263 1216 803 
L 1216 2112 
L 1811 2112 
z
" transform="scale(0.015625)"/>
      <path id="LinLibertineT-45" d="M 1798 2355 
L 1216 2355 
L 1216 3497 
C 1216 3777 1293 3903 1638 3903 
L 2118 3903 
C 2598 3903 2701 3650 2842 3212 
C 2918 3199 2989 3212 3053 3243 
C 3021 3504 2925 4115 2912 4166 
C 2912 4179 2906 4185 2886 4185 
C 2778 4166 2726 4160 2573 4160 
L 941 4160 
C 749 4147 371 4153 115 4160 
C 77 4121 77 3987 115 3948 
C 563 3929 672 3898 672 3375 
L 672 803 
C 672 263 563 230 115 211 
C 77 172 77 38 115 0 
C 352 -7 736 0 947 0 
L 2323 0 
C 2630 12 3142 0 3142 0 
C 3232 321 3328 751 3379 1083 
C 3315 1122 3238 1135 3155 1116 
C 3027 636 2803 249 2317 249 
L 1574 249 
C 1306 249 1216 354 1216 662 
L 1216 2112 
L 1798 2112 
C 2342 2112 2362 1961 2381 1666 
C 2419 1626 2554 1626 2592 1666 
C 2586 1836 2579 2020 2579 2240 
C 2579 2418 2586 2634 2592 2786 
C 2554 2824 2419 2824 2381 2786 
C 2362 2437 2342 2355 1798 2355 
z
" transform="scale(0.015625)"/>
      <path id="LinLibertineT-37" d="M 1088 3423 
L 2234 3423 
C 1734 2189 1229 948 794 -20 
L 845 -64 
L 1280 -45 
C 1645 1037 1997 2093 2714 3833 
L 2611 3904 
C 2502 3878 2362 3840 2118 3840 
L 800 3840 
C 582 3840 595 3904 480 3929 
C 461 3923 454 3923 454 3904 
C 448 3599 378 3217 326 2886 
C 397 2867 461 2861 531 2867 
C 672 3379 883 3423 1088 3423 
z
" transform="scale(0.015625)"/>
     </defs>
     <use xlink:href="#LinLibertineT-46" transform="scale(0.996264)"/>
     <use xlink:href="#LinLibertineT-72" transform="translate(48.318759 0)scale(0.996264)"/>
     <use xlink:href="#LinLibertineT-65" transform="translate(84.582687 0)scale(0.996264)"/>
     <use xlink:href="#LinLibertineT-6e" transform="translate(129.115639 0)scale(0.996264)"/>
     <use xlink:href="#LinLibertineT-63" transform="translate(183.11313 0)scale(0.996264)"/>
     <use xlink:href="#LinLibertineT-68" transform="translate(225.753264 0)scale(0.996264)"/>
     <use xlink:href="#LinLibertineT-45" transform="translate(304.258871 0)scale(0.996264)"/>
     <use xlink:href="#LinLibertineT-6c" transform="translate(359.750788 0)scale(0.996264)"/>
     <use xlink:href="#LinLibertineT-65" transform="translate(386.052152 0)scale(0.996264)"/>
     <use xlink:href="#LinLibertineT-63" transform="translate(431.282486 0)scale(0.996264)"/>
     <use xlink:href="#LinLibertineT-74" transform="translate(473.922619 0)scale(0.996264)"/>
     <use xlink:href="#LinLibertineT-69" transform="translate(505.404553 0)scale(0.996264)"/>
     <use xlink:href="#LinLibertineT-6f" transform="translate(532.403298 0)scale(0.996264)"/>
     <use xlink:href="#LinLibertineT-6e" transform="translate(582.614968 0)scale(0.996264)"/>
     <use xlink:href="#LinLibertineT-32" transform="translate(661.519059 0)scale(0.996264)"/>
     <use xlink:href="#LinLibertineT-30" transform="translate(707.845351 0)scale(0.996264)"/>
     <use xlink:href="#LinLibertineT-30" transform="translate(754.171643 0)scale(0.996264)"/>
     <use xlink:href="#LinLibertineT-37" transform="translate(800.497934 0)scale(0.996264)"/>
    </g>
   </g>
   <g id="legend_1">
    <g id="PathCollection_2">
     <path d="M 182.448596 27.074948 
C 183.287242 27.074948 184.091652 26.74175 184.684664 26.148738 
C 185.277676 25.555726 185.610873 24.751316 185.610873 23.91267 
C 185.610873 23.074024 185.277676 22.269614 184.684664 21.676602 
C 184.091652 21.08359 183.287242 20.750392 182.448596 20.750392 
C 181.60995 20.750392 180.80554 21.08359 180.212528 21.676602 
C 179.619516 22.269614 179.286318 23.074024 179.286318 23.91267 
C 179.286318 24.751316 179.619516 25.555726 180.212528 26.148738 
C 180.80554 26.74175 181.60995 27.074948 182.448596 27.074948 
z
" style="fill: #e41a1c"/>
    </g>
    <g id="text_25">
     <!-- $p=1$ -->
     <g transform="translate(189.348596 25.48767)scale(0.06 -0.06)">
      <defs>
       <path id="LibertineMathMI-3f" d="M 1702 2591 
C 1728 2707 1786 2899 1786 2976 
C 1786 3084 1722 3148 1517 3148 
C 1274 3148 1274 2867 1222 2623 
L 1139 2245 
C 819 2014 582 1822 403 1597 
C 429 1507 486 1462 602 1462 
C 742 1648 883 1764 1062 1911 
L 403 -1031 
C 365 -1210 269 -1287 64 -1319 
L -58 -1338 
C -90 -1345 -122 -1351 -122 -1389 
L -122 -1511 
L -109 -1524 
C -109 -1524 326 -1492 557 -1492 
C 806 -1492 1242 -1505 1242 -1505 
L 1254 -1492 
L 1254 -1364 
C 1254 -1332 1242 -1319 1216 -1313 
L 1094 -1293 
C 998 -1281 832 -1249 883 -1031 
L 1165 147 
C 1261 44 1446 -64 1632 -64 
C 2086 -64 2458 192 2739 532 
C 3085 955 3258 1392 3258 1854 
C 3258 2393 3078 2816 2438 2816 
C 2112 2816 1875 2694 1702 2591 
z
M 2733 1751 
C 2733 1436 2605 994 2362 615 
C 2195 352 1939 160 1696 160 
C 1530 160 1357 243 1222 429 
L 1645 2303 
C 1805 2405 1990 2521 2234 2521 
C 2669 2521 2733 2065 2733 1751 
z
" transform="scale(0.015625)"/>
       <path id="txmiaX-3d" d="M 3533 2112 
L 3533 2470 
L 256 2470 
L 256 2112 
L 3533 2112 
z
M 3533 832 
L 3533 1190 
L 256 1190 
L 256 832 
L 3533 832 
z
" transform="scale(0.015625)"/>
      </defs>
      <use xlink:href="#LibertineMathMI-3f" transform="scale(0.996264)"/>
      <use xlink:href="#txmiaX-3d" transform="translate(83.414871 0)scale(0.996264)"/>
      <use xlink:href="#LinLibertineT-31" transform="translate(170.06763 0)scale(0.996264)"/>
     </g>
    </g>
    <g id="PathCollection_3">
     <path d="M 182.448596 34.616165 
C 183.287242 34.616165 184.091652 34.282968 184.684664 33.689955 
C 185.277676 33.096943 185.610873 32.292533 185.610873 31.453888 
C 185.610873 30.615242 185.277676 29.810832 184.684664 29.21782 
C 184.091652 28.624807 183.287242 28.29161 182.448596 28.29161 
C 181.60995 28.29161 180.80554 28.624807 180.212528 29.21782 
C 179.619516 29.810832 179.286318 30.615242 179.286318 31.453888 
C 179.286318 32.292533 179.619516 33.096943 180.212528 33.689955 
C 180.80554 34.282968 181.60995 34.616165 182.448596 34.616165 
z
" style="fill: #ff7f00"/>
    </g>
    <g id="text_26">
     <!-- $p=0$ -->
     <g transform="translate(189.348596 33.028888)scale(0.06 -0.06)">
      <use xlink:href="#LibertineMathMI-3f" transform="scale(0.996264)"/>
      <use xlink:href="#txmiaX-3d" transform="translate(83.414871 0)scale(0.996264)"/>
      <use xlink:href="#LinLibertineT-30" transform="translate(170.06763 0)scale(0.996264)"/>
     </g>
    </g>
    <g id="PathCollection_4">
     <path d="M 182.448596 42.157383 
C 183.287242 42.157383 184.091652 41.824185 184.684664 41.231173 
C 185.277676 40.638161 185.610873 39.833751 185.610873 38.995105 
C 185.610873 38.156459 185.277676 37.352049 184.684664 36.759037 
C 184.091652 36.166025 183.287242 35.832827 182.448596 35.832827 
C 181.60995 35.832827 180.80554 36.166025 180.212528 36.759037 
C 179.619516 37.352049 179.286318 38.156459 179.286318 38.995105 
C 179.286318 39.833751 179.619516 40.638161 180.212528 41.231173 
C 180.80554 41.824185 181.60995 42.157383 182.448596 42.157383 
z
" style="fill: #ffff33"/>
    </g>
    <g id="text_27">
     <!-- $p=-1$ -->
     <g transform="translate(189.348596 40.570105)scale(0.06 -0.06)">
      <defs>
       <path id="txsys-0" d="M 3674 1472 
L 3674 1830 
L 397 1830 
L 397 1472 
L 3674 1472 
z
" transform="scale(0.015625)"/>
      </defs>
      <use xlink:href="#LibertineMathMI-3f" transform="scale(0.996264)"/>
      <use xlink:href="#txmiaX-3d" transform="translate(83.414871 0)scale(0.996264)"/>
      <use xlink:href="#txsys-0" transform="translate(170.06763 0)scale(0.996264)"/>
      <use xlink:href="#LinLibertineT-31" transform="translate(233.429981 0)scale(0.996264)"/>
     </g>
    </g>
    <g id="PathCollection_5">
     <path d="M 182.448596 49.6986 
C 183.287242 49.6986 184.091652 49.365403 184.684664 48.772391 
C 185.277676 48.179378 185.610873 47.374968 185.610873 46.536323 
C 185.610873 45.697677 185.277676 44.893267 184.684664 44.300255 
C 184.091652 43.707242 183.287242 43.374045 182.448596 43.374045 
C 181.60995 43.374045 180.80554 43.707242 180.212528 44.300255 
C 179.619516 44.893267 179.286318 45.697677 179.286318 46.536323 
C 179.286318 47.374968 179.619516 48.179378 180.212528 48.772391 
C 180.80554 49.365403 181.60995 49.6986 182.448596 49.6986 
z
" style="fill: #4daf4a"/>
    </g>
    <g id="text_28">
     <!-- $p=-2$ -->
     <g transform="translate(189.348596 48.111323)scale(0.06 -0.06)">
      <use xlink:href="#LibertineMathMI-3f" transform="scale(0.996264)"/>
      <use xlink:href="#txmiaX-3d" transform="translate(83.414871 0)scale(0.996264)"/>
      <use xlink:href="#txsys-0" transform="translate(170.06763 0)scale(0.996264)"/>
      <use xlink:href="#LinLibertineT-32" transform="translate(233.429981 0)scale(0.996264)"/>
     </g>
    </g>
    <g id="PathCollection_6">
     <path d="M 182.448596 57.239818 
C 183.287242 57.239818 184.091652 56.90662 184.684664 56.313608 
C 185.277676 55.720596 185.610873 54.916186 185.610873 54.07754 
C 185.610873 53.238894 185.277676 52.434484 184.684664 51.841472 
C 184.091652 51.24846 183.287242 50.915262 182.448596 50.915262 
C 181.60995 50.915262 180.80554 51.24846 180.212528 51.841472 
C 179.619516 52.434484 179.286318 53.238894 179.286318 54.07754 
C 179.286318 54.916186 179.619516 55.720596 180.212528 56.313608 
C 180.80554 56.90662 181.60995 57.239818 182.448596 57.239818 
z
" style="fill: #377eb8"/>
    </g>
    <g id="text_29">
     <!-- $p=-5$ -->
     <g transform="translate(189.348596 55.65254)scale(0.06 -0.06)">
      <use xlink:href="#LibertineMathMI-3f" transform="scale(0.996264)"/>
      <use xlink:href="#txmiaX-3d" transform="translate(83.414871 0)scale(0.996264)"/>
      <use xlink:href="#txsys-0" transform="translate(170.06763 0)scale(0.996264)"/>
      <use xlink:href="#LinLibertineT-35" transform="translate(233.429981 0)scale(0.996264)"/>
     </g>
    </g>
    <g id="PathCollection_7">
     <path d="M 182.448596 64.781035 
C 183.287242 64.781035 184.091652 64.447838 184.684664 63.854826 
C 185.277676 63.261813 185.610873 62.457403 185.610873 61.618758 
C 185.610873 60.780112 185.277676 59.975702 184.684664 59.38269 
C 184.091652 58.789677 183.287242 58.45648 182.448596 58.45648 
C 181.60995 58.45648 180.80554 58.789677 180.212528 59.38269 
C 179.619516 59.975702 179.286318 60.780112 179.286318 61.618758 
C 179.286318 62.457403 179.619516 63.261813 180.212528 63.854826 
C 180.80554 64.447838 181.60995 64.781035 182.448596 64.781035 
z
" style="fill: #984ea3"/>
    </g>
    <g id="text_30">
     <!-- $p=-10$ -->
     <g transform="translate(189.348596 63.193758)scale(0.06 -0.06)">
      <use xlink:href="#LibertineMathMI-3f" transform="scale(0.996264)"/>
      <use xlink:href="#txmiaX-3d" transform="translate(83.414871 0)scale(0.996264)"/>
      <use xlink:href="#txsys-0" transform="translate(170.06763 0)scale(0.996264)"/>
      <use xlink:href="#LinLibertineT-31" transform="translate(233.429981 0)scale(0.996264)"/>
      <use xlink:href="#LinLibertineT-30" transform="translate(279.756273 0)scale(0.996264)"/>
     </g>
    </g>
    <g id="PathCollection_8">
     <path d="M 182.448596 72.322253 
C 183.287242 72.322253 184.091652 71.989055 184.684664 71.396043 
C 185.277676 70.803031 185.610873 69.998621 185.610873 69.159975 
C 185.610873 68.321329 185.277676 67.516919 184.684664 66.923907 
C 184.091652 66.330895 183.287242 65.997697 182.448596 65.997697 
C 181.60995 65.997697 180.80554 66.330895 180.212528 66.923907 
C 179.619516 67.516919 179.286318 68.321329 179.286318 69.159975 
C 179.286318 69.998621 179.619516 70.803031 180.212528 71.396043 
C 180.80554 71.989055 181.60995 72.322253 182.448596 72.322253 
z
"/>
    </g>
    <g id="text_31">
     <!-- $p=-\infty$ -->
     <g transform="translate(189.348596 70.734975)scale(0.06 -0.06)">
      <defs>
       <path id="txsys-31" d="M 5126 1723 
C 5126 2314 4813 2809 4179 2809 
C 3648 2809 3136 2301 2816 1911 
C 2547 2359 2029 2822 1491 2822 
C 787 2822 333 2138 333 1476 
C 333 885 666 384 1293 384 
C 1798 384 2368 905 2650 1301 
C 2950 853 3411 377 3981 377 
C 4685 377 5126 1073 5126 1723 
z
M 4762 1424 
C 4762 995 4550 640 4090 640 
C 3610 640 3174 1366 2925 1723 
C 3117 2015 3629 2496 3987 2496 
C 4499 2496 4762 1866 4762 1424 
z
M 2541 1483 
C 2355 1190 1830 723 1478 723 
C 966 723 710 1353 710 1794 
C 710 2229 928 2585 1395 2585 
C 1824 2585 2355 1846 2541 1483 
z
" transform="scale(0.015625)"/>
      </defs>
      <use xlink:href="#LibertineMathMI-3f" transform="scale(0.996264)"/>
      <use xlink:href="#txmiaX-3d" transform="translate(83.414871 0)scale(0.996264)"/>
      <use xlink:href="#txsys-0" transform="translate(170.06763 0)scale(0.996264)"/>
      <use xlink:href="#txsys-31" transform="translate(233.429981 0)scale(0.996264)"/>
     </g>
    </g>
   </g>
   <g id="PathCollection_9">
    <path d="M 61.950421 30.278607 
C 63.848987 30.278607 65.670047 29.524299 67.012535 28.181811 
C 68.355024 26.839323 69.109332 25.018262 69.109332 23.119697 
C 69.109332 21.221131 68.355024 19.400071 67.012535 18.057583 
C 65.670047 16.715094 63.848987 15.960786 61.950421 15.960786 
C 60.051856 15.960786 58.230795 16.715094 56.888307 18.057583 
C 55.545819 19.400071 54.791511 21.221131 54.791511 23.119697 
C 54.791511 25.018262 55.545819 26.839323 56.888307 28.181811 
C 58.230795 29.524299 60.051856 30.278607 61.950421 30.278607 
z
" clip-path="url(#p047dacfc2f)" style="fill: #e41a1c"/>
   </g>
   <g id="PathCollection_10">
    <path d="M 61.950421 29.734075 
C 63.704575 29.734075 65.387119 29.037142 66.627493 27.796768 
C 67.867867 26.556395 68.5648 24.87385 68.5648 23.119697 
C 68.5648 21.365543 67.867867 19.682999 66.627493 18.442625 
C 65.387119 17.202251 63.704575 16.505318 61.950421 16.505318 
C 60.196268 16.505318 58.513723 17.202251 57.27335 18.442625 
C 56.032976 19.682999 55.336043 21.365543 55.336043 23.119697 
C 55.336043 24.87385 56.032976 26.556395 57.27335 27.796768 
C 58.513723 29.037142 60.196268 29.734075 61.950421 29.734075 
z
" clip-path="url(#p047dacfc2f)" style="fill: #ff7f00"/>
   </g>
   <g id="PathCollection_11">
    <path d="M 61.950421 29.140494 
C 63.547155 29.140494 65.078706 28.506105 66.207768 27.377043 
C 67.336829 26.247982 67.971219 24.716431 67.971219 23.119697 
C 67.971219 21.522963 67.336829 19.991412 66.207768 18.86235 
C 65.078706 17.733289 63.547155 17.098899 61.950421 17.098899 
C 60.353687 17.098899 58.822136 17.733289 57.693075 18.86235 
C 56.564013 19.991412 55.929624 21.522963 55.929624 23.119697 
C 55.929624 24.716431 56.564013 26.247982 57.693075 27.377043 
C 58.822136 28.506105 60.353687 29.140494 61.950421 29.140494 
z
" clip-path="url(#p047dacfc2f)" style="fill: #ffff33"/>
   </g>
   <g id="PathCollection_12">
    <path d="M 61.950421 28.481599 
C 63.372414 28.481599 64.736358 27.916635 65.741859 26.911134 
C 66.74736 25.905633 67.312324 24.54169 67.312324 23.119697 
C 67.312324 21.697704 66.74736 20.33376 65.741859 19.328259 
C 64.736358 18.322758 63.372414 17.757794 61.950421 17.757794 
C 60.528428 17.757794 59.164485 18.322758 58.158984 19.328259 
C 57.153483 20.33376 56.588519 21.697704 56.588519 23.119697 
C 56.588519 24.54169 57.153483 25.905633 58.158984 26.911134 
C 59.164485 27.916635 60.528428 28.481599 61.950421 28.481599 
z
" clip-path="url(#p047dacfc2f)" style="fill: #4daf4a"/>
   </g>
   <g id="PathCollection_13">
    <path d="M 61.950421 27.729469 
C 63.172947 27.729469 64.345566 27.243754 65.210022 26.379298 
C 66.074479 25.514842 66.560193 24.342223 66.560193 23.119697 
C 66.560193 21.897171 66.074479 20.724552 65.210022 19.860096 
C 64.345566 18.995639 63.172947 18.509925 61.950421 18.509925 
C 60.727895 18.509925 59.555276 18.995639 58.69082 19.860096 
C 57.826364 20.724552 57.340649 21.897171 57.340649 23.119697 
C 57.340649 24.342223 57.826364 25.514842 58.69082 26.379298 
C 59.555276 27.243754 60.727895 27.729469 61.950421 27.729469 
z
" clip-path="url(#p047dacfc2f)" style="fill: #377eb8"/>
   </g>
   <g id="PathCollection_14">
    <path d="M 61.950421 26.827796 
C 62.933821 26.827796 63.877075 26.437087 64.572443 25.741719 
C 65.267812 25.04635 65.658521 24.103096 65.658521 23.119697 
C 65.658521 22.136297 65.267812 21.193043 64.572443 20.497675 
C 63.877075 19.802306 62.933821 19.411597 61.950421 19.411597 
C 60.967022 19.411597 60.023768 19.802306 59.328399 20.497675 
C 58.633031 21.193043 58.242322 22.136297 58.242322 23.119697 
C 58.242322 24.103096 58.633031 25.04635 59.328399 25.741719 
C 60.023768 26.437087 60.967022 26.827796 61.950421 26.827796 
z
" clip-path="url(#p047dacfc2f)" style="fill: #984ea3"/>
   </g>
   <g id="PathCollection_15">
    <path d="M 61.950421 25.619697 
C 62.613429 25.619697 63.249371 25.356281 63.718188 24.887464 
C 64.187005 24.418646 64.450421 23.782704 64.450421 23.119697 
C 64.450421 22.456689 64.187005 21.820747 63.718188 21.35193 
C 63.249371 20.883113 62.613429 20.619697 61.950421 20.619697 
C 61.287414 20.619697 60.651472 20.883113 60.182654 21.35193 
C 59.713837 21.820747 59.450421 22.456689 59.450421 23.119697 
C 59.450421 23.782704 59.713837 24.418646 60.182654 24.887464 
C 60.651472 25.356281 61.287414 25.619697 61.950421 25.619697 
z
" clip-path="url(#p047dacfc2f)"/>
   </g>
  </g>
 </g>
 <defs>
  <clipPath id="p047dacfc2f">
   <rect x="29.096752" y="15.88767" width="187.624151" height="159.104588"/>
  </clipPath>
 </defs>
</svg>
