<?xml version="1.0" encoding="utf-8" standalone="no"?>
<!DOCTYPE svg PUBLIC "-//W3C//DTD SVG 1.1//EN"
  "http://www.w3.org/Graphics/SVG/1.1/DTD/svg11.dtd">
<svg xmlns:xlink="http://www.w3.org/1999/xlink" width="455.76pt" height="311.76pt" viewBox="0 0 455.76 311.76" xmlns="http://www.w3.org/2000/svg" version="1.1">
 <metadata>
  <rdf:RDF xmlns:dc="http://purl.org/dc/elements/1.1/" xmlns:cc="http://creativecommons.org/ns#" xmlns:rdf="http://www.w3.org/1999/02/22-rdf-syntax-ns#">
   <cc:Work>
    <dc:type rdf:resource="http://purl.org/dc/dcmitype/StillImage"/>
    <dc:date>2026-02-03T15:24:44.373370</dc:date>
    <dc:format>image/svg+xml</dc:format>
    <dc:creator>
     <cc:Agent>
      <dc:title>Matplotlib v3.5.1, https://matplotlib.org/</dc:title>
     </cc:Agent>
    </dc:creator>
   </cc:Work>
  </rdf:RDF>
 </metadata>
 <defs>
  <style type="text/css">*{stroke-linejoin: round; stroke-linecap: butt}</style>
 </defs>
 <g id="figure_1">
  <g id="patch_1">
   <path d="M 0 311.76 
L 455.76 311.76 
L 455.76 0 
L 0 0 
z
" style="fill: #ffffff"/>
  </g>
  <g id="axes_1">
   <g id="patch_2">
    <path d="M 35.888139 141.425495 
L 233.02498 141.425495 
L 233.02498 15.88767 
L 35.888139 15.88767 
z
" style="fill: #ffffff"/>
   </g>
   <g id="matplotlib.axis_1">
    <g id="xtick_1">
     <g id="line2d_1">
      <defs>
       <path id="m41bc81ee7d" d="M 0 0 
L 0 -3 
" style="stroke: #333333; stroke-width: 0.6"/>
      </defs>
      <g>
       <use xlink:href="#m41bc81ee7d" x="49.969342" y="141.425495" style="fill: #333333; stroke: #333333; stroke-width: 0.6"/>
      </g>
     </g>
     <g id="text_1">
      <!-- $\mathdefault{0.3}$ -->
      <g style="fill: #333333" transform="translate(45.580253 149.815894)scale(0.07 -0.07)">
       <defs>
        <path id="LinLibertineT-30" d="M 1485 3679 
C 1594 3679 1696 3641 1773 3571 
C 1971 3405 2144 2918 2144 2060 
C 2144 1472 2125 1068 2035 742 
C 1894 217 1581 160 1466 160 
C 870 160 806 1254 806 1811 
C 806 3385 1197 3679 1485 3679 
z
M 1459 -64 
C 1952 -64 2701 435 2701 1939 
C 2701 2572 2547 3116 2266 3488 
C 2099 3711 1830 3904 1485 3904 
C 851 3904 250 3148 250 1881 
C 250 1196 461 556 813 204 
C 992 25 1210 -64 1459 -64 
z
" transform="scale(0.015625)"/>
        <path id="LibertineMathMI-94" d="M 365 275 
C 365 89 518 -64 704 -64 
C 890 -64 1043 89 1043 275 
C 1043 460 890 614 704 614 
C 518 614 365 460 365 275 
z
" transform="scale(0.015625)"/>
        <path id="LinLibertineT-33" d="M 1376 3679 
C 1651 3679 1907 3512 1907 3098 
C 1907 2776 1536 2279 902 2188 
L 934 1984 
C 1043 1996 1158 1996 1242 1996 
C 1606 1996 2080 1895 2080 1176 
C 2080 331 1510 160 1286 160 
C 960 160 902 306 826 420 
C 762 509 678 585 550 585 
C 416 585 282 465 282 363 
C 282 108 819 -64 1203 -64 
C 1965 -64 2643 426 2643 1265 
C 2643 1958 2118 2208 1741 2272 
L 1734 2285 
C 2259 2537 2406 2802 2406 3144 
C 2406 3337 2362 3492 2208 3654 
C 2067 3795 1843 3904 1510 3904 
C 570 3904 301 3286 301 3073 
C 301 2982 365 2853 518 2853 
C 742 2853 768 3066 768 3189 
C 768 3602 1210 3679 1376 3679 
z
" transform="scale(0.015625)"/>
       </defs>
       <use xlink:href="#LinLibertineT-30" transform="scale(0.996264)"/>
       <use xlink:href="#LibertineMathMI-94" transform="translate(47.92029 0)scale(0.996264)"/>
       <use xlink:href="#LinLibertineT-33" transform="translate(71.531789 0)scale(0.996264)"/>
      </g>
     </g>
    </g>
    <g id="xtick_2">
     <g id="line2d_2">
      <g>
       <use xlink:href="#m41bc81ee7d" x="106.294154" y="141.425495" style="fill: #333333; stroke: #333333; stroke-width: 0.6"/>
      </g>
     </g>
     <g id="text_2">
      <!-- $\mathdefault{0.5}$ -->
      <g style="fill: #333333" transform="translate(101.905065 149.815894)scale(0.07 -0.07)">
       <defs>
        <path id="LinLibertineT-35" d="M 2042 1209 
C 2042 605 1722 160 1338 160 
C 1094 160 1011 318 915 446 
C 832 554 723 649 589 649 
C 467 649 346 541 346 414 
C 346 153 890 -64 1254 -64 
C 2048 -64 2611 522 2611 1323 
C 2611 1940 2182 2496 1466 2496 
C 1190 2496 954 2438 838 2393 
L 966 3468 
C 1203 3443 1408 3411 1715 3411 
C 1907 3404 2125 3417 2387 3443 
L 2490 3878 
L 2445 3904 
C 2080 3872 1734 3840 1395 3840 
C 1158 3840 928 3852 704 3872 
L 486 2023 
C 826 2150 1069 2176 1299 2176 
C 1715 2176 2042 1902 2042 1209 
z
" transform="scale(0.015625)"/>
       </defs>
       <use xlink:href="#LinLibertineT-30" transform="scale(0.996264)"/>
       <use xlink:href="#LibertineMathMI-94" transform="translate(47.92029 0)scale(0.996264)"/>
       <use xlink:href="#LinLibertineT-35" transform="translate(71.531789 0)scale(0.996264)"/>
      </g>
     </g>
    </g>
    <g id="xtick_3">
     <g id="line2d_3">
      <g>
       <use xlink:href="#m41bc81ee7d" x="162.618966" y="141.425495" style="fill: #333333; stroke: #333333; stroke-width: 0.6"/>
      </g>
     </g>
     <g id="text_3">
      <!-- $\mathdefault{0.7}$ -->
      <g style="fill: #333333" transform="translate(158.229877 149.815894)scale(0.07 -0.07)">
       <defs>
        <path id="LinLibertineT-37" d="M 1088 3423 
L 2234 3423 
C 1734 2189 1229 948 794 -20 
L 845 -64 
L 1280 -45 
C 1645 1037 1997 2093 2714 3833 
L 2611 3904 
C 2502 3878 2362 3840 2118 3840 
L 800 3840 
C 582 3840 595 3904 480 3929 
C 461 3923 454 3923 454 3904 
C 448 3599 378 3217 326 2886 
C 397 2867 461 2861 531 2867 
C 672 3379 883 3423 1088 3423 
z
" transform="scale(0.015625)"/>
       </defs>
       <use xlink:href="#LinLibertineT-30" transform="scale(0.996264)"/>
       <use xlink:href="#LibertineMathMI-94" transform="translate(47.92029 0)scale(0.996264)"/>
       <use xlink:href="#LinLibertineT-37" transform="translate(71.531789 0)scale(0.996264)"/>
      </g>
     </g>
    </g>
    <g id="xtick_4">
     <g id="line2d_4">
      <g>
       <use xlink:href="#m41bc81ee7d" x="218.943777" y="141.425495" style="fill: #333333; stroke: #333333; stroke-width: 0.6"/>
      </g>
     </g>
     <g id="text_4">
      <!-- $\mathdefault{0.9}$ -->
      <g style="fill: #333333" transform="translate(214.554688 149.815894)scale(0.07 -0.07)">
       <defs>
        <path id="LinLibertineT-39" d="M 2150 1874 
C 1939 1734 1728 1728 1619 1728 
C 992 1728 851 2340 851 2659 
C 851 3361 1120 3679 1434 3679 
C 1837 3679 2202 3463 2202 2372 
C 2202 2231 2189 2059 2150 1874 
z
M 2093 1644 
C 1920 1064 1510 420 659 102 
C 659 25 685 -32 736 -64 
C 1382 127 1779 395 2138 809 
C 2534 1268 2733 1849 2733 2353 
C 2733 3648 1997 3904 1504 3904 
C 666 3904 320 3093 320 2544 
C 320 1995 614 1503 1485 1503 
C 1651 1503 1901 1555 2093 1644 
z
" transform="scale(0.015625)"/>
       </defs>
       <use xlink:href="#LinLibertineT-30" transform="scale(0.996264)"/>
       <use xlink:href="#LibertineMathMI-94" transform="translate(47.92029 0)scale(0.996264)"/>
       <use xlink:href="#LinLibertineT-39" transform="translate(71.531789 0)scale(0.996264)"/>
      </g>
     </g>
    </g>
   </g>
   <g id="matplotlib.axis_2">
    <g id="ytick_1">
     <g id="line2d_5">
      <path d="M 35.888139 141.425495 
L 233.02498 141.425495 
" clip-path="url(#pcaca1b4e06)" style="fill: none; stroke: #cccccc; stroke-opacity: 0.5; stroke-width: 0.4; stroke-linecap: square"/>
     </g>
     <g id="line2d_6">
      <defs>
       <path id="m86c01624e1" d="M 0 0 
L 3 0 
" style="stroke: #333333; stroke-width: 0.6"/>
      </defs>
      <g>
       <use xlink:href="#m86c01624e1" x="35.888139" y="141.425495" style="fill: #333333; stroke: #333333; stroke-width: 0.6"/>
      </g>
     </g>
     <g id="text_5">
      <!-- $\mathdefault{0.0}$ -->
      <g style="fill: #333333" transform="translate(23.609961 143.870694)scale(0.07 -0.07)">
       <use xlink:href="#LinLibertineT-30" transform="scale(0.996264)"/>
       <use xlink:href="#LibertineMathMI-94" transform="translate(47.92029 0)scale(0.996264)"/>
       <use xlink:href="#LinLibertineT-30" transform="translate(71.531789 0)scale(0.996264)"/>
      </g>
     </g>
    </g>
    <g id="ytick_2">
     <g id="line2d_7">
      <path d="M 35.888139 118.17775 
L 233.02498 118.17775 
" clip-path="url(#pcaca1b4e06)" style="fill: none; stroke: #cccccc; stroke-opacity: 0.5; stroke-width: 0.4; stroke-linecap: square"/>
     </g>
     <g id="line2d_8">
      <g>
       <use xlink:href="#m86c01624e1" x="35.888139" y="118.17775" style="fill: #333333; stroke: #333333; stroke-width: 0.6"/>
      </g>
     </g>
     <g id="text_6">
      <!-- $\mathdefault{0.2}$ -->
      <g style="fill: #333333" transform="translate(23.609961 120.622949)scale(0.07 -0.07)">
       <defs>
        <path id="LinLibertineT-32" d="M 390 2999 
C 390 2866 512 2752 646 2752 
C 755 2752 947 2866 947 3006 
C 947 3057 934 3095 922 3139 
C 909 3184 870 3241 870 3292 
C 870 3451 1037 3679 1504 3679 
C 1734 3679 2061 3521 2061 2910 
C 2061 2501 1914 2168 1536 1783 
L 1062 1314 
C 435 672 333 364 333 -13 
C 333 -13 659 0 864 0 
L 1984 0 
C 2189 0 2483 -13 2483 -13 
C 2566 326 2630 807 2637 1000 
C 2598 1032 2515 1044 2451 1032 
C 2342 576 2234 416 2003 416 
L 864 416 
C 864 724 1306 1160 1338 1192 
L 1984 1815 
C 2349 2168 2624 2450 2624 2936 
C 2624 3622 2061 3904 1542 3904 
C 832 3904 390 3381 390 2999 
z
" transform="scale(0.015625)"/>
       </defs>
       <use xlink:href="#LinLibertineT-30" transform="scale(0.996264)"/>
       <use xlink:href="#LibertineMathMI-94" transform="translate(47.92029 0)scale(0.996264)"/>
       <use xlink:href="#LinLibertineT-32" transform="translate(71.531789 0)scale(0.996264)"/>
      </g>
     </g>
    </g>
    <g id="ytick_3">
     <g id="line2d_9">
      <path d="M 35.888139 94.930005 
L 233.02498 94.930005 
" clip-path="url(#pcaca1b4e06)" style="fill: none; stroke: #cccccc; stroke-opacity: 0.5; stroke-width: 0.4; stroke-linecap: square"/>
     </g>
     <g id="line2d_10">
      <g>
       <use xlink:href="#m86c01624e1" x="35.888139" y="94.930005" style="fill: #333333; stroke: #333333; stroke-width: 0.6"/>
      </g>
     </g>
     <g id="text_7">
      <!-- $\mathdefault{0.4}$ -->
      <g style="fill: #333333" transform="translate(23.609961 97.375204)scale(0.07 -0.07)">
       <defs>
        <path id="LinLibertineT-34" d="M 1734 3246 
L 1734 1408 
L 512 1408 
C 838 1931 1293 2646 1734 3246 
z
M 2752 1408 
L 2221 1408 
L 2221 3272 
C 2221 3591 2221 3840 2234 3891 
L 2221 3904 
L 2016 3904 
C 1971 3904 1939 3865 1914 3833 
C 1510 3342 768 2288 179 1375 
C 198 1279 237 1107 429 1107 
L 1734 1107 
L 1734 522 
C 1734 230 1491 230 1216 211 
C 1178 172 1178 38 1216 0 
C 1421 6 1677 12 1971 12 
C 2221 12 2464 6 2669 0 
C 2707 38 2707 172 2669 211 
C 2355 236 2221 223 2221 522 
L 2221 1107 
L 2662 1107 
C 2752 1107 2848 1228 2848 1305 
C 2848 1369 2822 1408 2752 1408 
z
" transform="scale(0.015625)"/>
       </defs>
       <use xlink:href="#LinLibertineT-30" transform="scale(0.996264)"/>
       <use xlink:href="#LibertineMathMI-94" transform="translate(47.92029 0)scale(0.996264)"/>
       <use xlink:href="#LinLibertineT-34" transform="translate(71.531789 0)scale(0.996264)"/>
      </g>
     </g>
    </g>
    <g id="ytick_4">
     <g id="line2d_11">
      <path d="M 35.888139 71.682259 
L 233.02498 71.682259 
" clip-path="url(#pcaca1b4e06)" style="fill: none; stroke: #cccccc; stroke-opacity: 0.5; stroke-width: 0.4; stroke-linecap: square"/>
     </g>
     <g id="line2d_12">
      <g>
       <use xlink:href="#m86c01624e1" x="35.888139" y="71.682259" style="fill: #333333; stroke: #333333; stroke-width: 0.6"/>
      </g>
     </g>
     <g id="text_8">
      <!-- $\mathdefault{0.6}$ -->
      <g style="fill: #333333" transform="translate(23.609961 74.127458)scale(0.07 -0.07)">
       <defs>
        <path id="LinLibertineT-36" d="M 864 1965 
C 1075 2105 1286 2112 1395 2112 
C 2022 2112 2163 1499 2163 1180 
C 2163 478 1894 160 1581 160 
C 1178 160 813 376 813 1467 
C 813 1614 826 1780 864 1965 
z
M 922 2195 
C 1094 2775 1504 3419 2355 3737 
C 2355 3814 2330 3871 2278 3904 
C 1632 3712 1235 3444 877 3030 
C 480 2571 282 1990 282 1486 
C 282 191 1018 -64 1510 -64 
C 2349 -64 2694 746 2694 1295 
C 2694 1844 2400 2336 1530 2336 
C 1363 2336 1114 2284 922 2195 
z
" transform="scale(0.015625)"/>
       </defs>
       <use xlink:href="#LinLibertineT-30" transform="scale(0.996264)"/>
       <use xlink:href="#LibertineMathMI-94" transform="translate(47.92029 0)scale(0.996264)"/>
       <use xlink:href="#LinLibertineT-36" transform="translate(71.531789 0)scale(0.996264)"/>
      </g>
     </g>
    </g>
    <g id="ytick_5">
     <g id="line2d_13">
      <path d="M 35.888139 48.434514 
L 233.02498 48.434514 
" clip-path="url(#pcaca1b4e06)" style="fill: none; stroke: #cccccc; stroke-opacity: 0.5; stroke-width: 0.4; stroke-linecap: square"/>
     </g>
     <g id="line2d_14">
      <g>
       <use xlink:href="#m86c01624e1" x="35.888139" y="48.434514" style="fill: #333333; stroke: #333333; stroke-width: 0.6"/>
      </g>
     </g>
     <g id="text_9">
      <!-- $\mathdefault{0.8}$ -->
      <g style="fill: #333333" transform="translate(23.609961 50.879713)scale(0.07 -0.07)">
       <defs>
        <path id="LinLibertineT-38" d="M 1498 3679 
C 1914 3679 2067 3405 2067 3110 
C 2067 2764 1728 2476 1555 2348 
L 1357 2470 
C 954 2732 909 2944 909 3142 
C 909 3437 1114 3679 1498 3679 
z
M 2515 3104 
C 2515 3565 2157 3904 1530 3904 
C 877 3904 454 3513 454 3020 
C 454 2662 627 2400 1018 2156 
L 1184 2054 
C 998 1958 826 1843 666 1702 
C 403 1472 294 1184 294 934 
C 294 281 755 -64 1434 -64 
C 2272 -64 2682 550 2682 1036 
C 2682 1408 2522 1734 2182 1939 
L 1728 2214 
C 2029 2361 2515 2694 2515 3104 
z
M 1446 160 
C 1158 160 723 358 723 934 
C 723 1126 806 1574 1357 1939 
L 1658 1760 
C 2054 1516 2214 1216 2214 908 
C 2214 268 1734 160 1446 160 
z
" transform="scale(0.015625)"/>
       </defs>
       <use xlink:href="#LinLibertineT-30" transform="scale(0.996264)"/>
       <use xlink:href="#LibertineMathMI-94" transform="translate(47.92029 0)scale(0.996264)"/>
       <use xlink:href="#LinLibertineT-38" transform="translate(71.531789 0)scale(0.996264)"/>
      </g>
     </g>
    </g>
    <g id="ytick_6">
     <g id="line2d_15">
      <path d="M 35.888139 25.186768 
L 233.02498 25.186768 
" clip-path="url(#pcaca1b4e06)" style="fill: none; stroke: #cccccc; stroke-opacity: 0.5; stroke-width: 0.4; stroke-linecap: square"/>
     </g>
     <g id="line2d_16">
      <g>
       <use xlink:href="#m86c01624e1" x="35.888139" y="25.186768" style="fill: #333333; stroke: #333333; stroke-width: 0.6"/>
      </g>
     </g>
     <g id="text_10">
      <!-- $\mathdefault{1.0}$ -->
      <g style="fill: #333333" transform="translate(23.609961 27.631967)scale(0.07 -0.07)">
       <defs>
        <path id="LinLibertineT-31" d="M 1843 793 
L 1843 3014 
C 1843 3398 1850 3789 1862 3872 
C 1862 3904 1850 3904 1824 3904 
C 1472 3686 1133 3526 570 3264 
C 582 3193 608 3129 666 3091 
C 960 3212 1101 3251 1222 3251 
C 1331 3251 1350 3097 1350 2880 
L 1350 793 
C 1350 262 1178 230 730 211 
C 691 172 691 38 730 0 
C 1043 6 1274 12 1619 12 
C 1926 12 2080 6 2400 0 
C 2438 38 2438 172 2400 211 
C 1952 230 1843 262 1843 793 
z
" transform="scale(0.015625)"/>
       </defs>
       <use xlink:href="#LinLibertineT-31" transform="scale(0.996264)"/>
       <use xlink:href="#LibertineMathMI-94" transform="translate(47.92029 0)scale(0.996264)"/>
       <use xlink:href="#LinLibertineT-30" transform="translate(71.531789 0)scale(0.996264)"/>
      </g>
     </g>
    </g>
    <g id="text_11">
     <!-- MCAR -->
     <g style="fill: #333333" transform="translate(9.189042 89.683226)rotate(-90)scale(0.08 -0.08)">
      <defs>
       <path id="LinLibertineT-4d" d="M 4243 756 
C 4275 236 4250 230 3834 211 
C 3795 172 3795 38 3834 0 
C 4070 6 4326 12 4518 12 
C 4710 12 5005 6 5216 0 
C 5254 38 5254 172 5216 211 
C 4781 230 4762 256 4723 788 
L 4531 3487 
C 4506 3833 4538 3923 4973 3948 
C 5011 3987 5011 4121 4973 4160 
L 4134 4147 
L 2778 897 
C 2752 833 2733 807 2720 807 
C 2707 807 2688 839 2669 890 
L 1357 4147 
L 429 4160 
C 390 4121 390 3987 429 3948 
C 870 3923 909 3910 864 3429 
L 608 788 
C 570 403 493 243 128 211 
C 90 172 90 38 128 0 
C 320 6 525 12 678 12 
C 832 12 1088 6 1280 0 
C 1318 38 1318 172 1280 211 
C 858 243 826 442 858 801 
L 1101 3371 
L 1114 3371 
L 2438 44 
C 2458 -13 2496 -64 2534 -64 
C 2573 -64 2598 -19 2624 32 
L 4064 3434 
L 4077 3434 
L 4243 756 
z
" transform="scale(0.015625)"/>
       <path id="LinLibertineT-43" d="M 2285 -64 
C 2906 -64 3475 230 3910 802 
C 3878 859 3834 898 3763 898 
C 3309 397 2874 198 2278 198 
C 1414 198 819 1174 819 2112 
C 819 2664 966 3126 1197 3415 
C 1517 3807 1888 3987 2221 3987 
C 3104 3987 3456 3460 3622 2908 
C 3699 2882 3763 2902 3834 2940 
C 3802 3274 3757 3582 3693 3935 
C 3366 3968 3078 4224 2291 4224 
C 1747 4224 1293 4025 915 3679 
C 493 3287 237 2657 237 1990 
C 237 872 909 -64 2285 -64 
z
" transform="scale(0.015625)"/>
       <path id="LinLibertineT-41" d="M 1683 1804 
C 1542 1804 1498 1824 1523 1888 
L 2176 3559 
L 2214 3559 
L 2816 1804 
L 1683 1804 
z
M 992 514 
L 1344 1428 
C 1376 1510 1414 1536 1568 1536 
L 2918 1536 
L 3290 469 
C 3366 255 3123 230 2816 211 
C 2778 172 2778 38 2816 0 
C 3053 6 3405 12 3654 12 
C 3917 12 4160 6 4384 0 
C 4422 38 4422 172 4384 211 
C 4134 236 3917 255 3808 558 
L 2490 4224 
C 2394 4165 2221 4094 2138 4094 
L 685 659 
C 518 267 326 230 45 211 
C 6 172 6 38 45 0 
C 211 6 422 12 614 12 
C 877 12 1197 6 1434 0 
C 1472 38 1472 172 1434 211 
C 1190 230 890 255 992 514 
z
" transform="scale(0.015625)"/>
       <path id="LinLibertineT-52" d="M 1741 4006 
C 2131 4006 2592 3864 2592 3101 
C 2592 2293 2138 2112 1517 2112 
L 1210 2112 
L 1210 3592 
C 1210 3780 1286 4006 1741 4006 
z
M 1210 812 
L 1210 1894 
C 1747 1894 1869 1798 1958 1651 
L 2643 537 
C 2829 206 3104 -64 3488 -64 
C 3584 -64 3693 -52 3757 -20 
C 3782 25 3776 83 3750 134 
C 3462 134 3302 356 3136 636 
L 2330 2003 
C 2605 2092 3181 2428 3181 3107 
C 3181 3431 3072 3696 2842 3915 
C 2534 4204 2138 4224 1734 4224 
C 1434 4224 1165 4179 934 4179 
C 710 4179 410 4185 109 4191 
C 70 4153 70 4019 109 3980 
C 557 3961 666 3928 666 3392 
L 666 792 
C 666 263 557 230 109 211 
C 70 172 70 38 109 0 
C 397 6 698 12 941 12 
C 1184 12 1485 6 1766 0 
C 1805 38 1805 172 1766 211 
C 1318 230 1210 263 1210 800 
L 1210 812 
z
" transform="scale(0.015625)"/>
      </defs>
      <use xlink:href="#LinLibertineT-4d" transform="scale(0.996264)"/>
      <use xlink:href="#LinLibertineT-43" transform="translate(83.586514 0)scale(0.996264)"/>
      <use xlink:href="#LinLibertineT-41" transform="translate(147.94516 0)scale(0.996264)"/>
      <use xlink:href="#LinLibertineT-52" transform="translate(217.185478 0)scale(0.996264)"/>
     </g>
     <!-- Kendall $\tau$ -->
     <g style="fill: #333333" transform="translate(17.752926 93.584581)rotate(-90)scale(0.08 -0.08)">
      <defs>
       <path id="LinLibertineT-4b" d="M 1222 795 
L 1222 1996 
C 1440 1990 1626 1919 1754 1752 
L 2758 480 
C 2886 313 2976 140 2989 38 
C 2989 19 2995 0 3021 0 
C 3149 6 3232 12 3366 12 
C 3584 12 3802 6 4013 0 
C 4051 38 4051 172 4013 211 
C 3827 230 3648 249 3450 480 
L 2048 2150 
C 1997 2207 1965 2259 1965 2310 
C 1965 2355 1971 2400 2189 2624 
L 3130 3590 
C 3424 3904 3680 3929 3936 3948 
C 3974 3987 3974 4121 3936 4160 
C 3738 4153 3533 4147 3328 4147 
C 3091 4147 2842 4153 2605 4160 
C 2566 4121 2566 3987 2605 3948 
C 2835 3929 3053 3904 2784 3616 
L 1728 2489 
C 1594 2342 1446 2259 1222 2240 
L 1222 3366 
C 1222 3897 1331 3929 1779 3948 
C 1818 3987 1818 4121 1779 4160 
C 1485 4153 1184 4147 947 4147 
C 704 4147 410 4153 122 4160 
C 83 4121 83 3987 122 3948 
C 570 3929 678 3897 678 3366 
L 678 795 
C 678 262 570 230 122 211 
C 83 172 83 38 122 0 
C 410 6 704 12 954 12 
C 1197 12 1491 6 1779 0 
C 1818 38 1818 172 1779 211 
C 1331 230 1222 262 1222 795 
z
" transform="scale(0.015625)"/>
       <path id="LinLibertineT-65" d="M 794 1817 
C 915 2546 1363 2604 1517 2604 
C 1760 2604 2048 2469 2048 1927 
C 2048 1869 2022 1836 1952 1836 
L 794 1817 
z
M 2470 598 
C 2234 352 2048 249 1677 249 
C 1446 249 1178 385 979 714 
C 851 928 774 1225 774 1600 
L 2477 1587 
C 2554 1587 2598 1625 2598 1696 
C 2598 2237 2406 2816 1517 2816 
C 960 2816 237 2282 237 1302 
C 237 940 326 592 538 346 
C 755 89 1056 -64 1517 -64 
C 2003 -64 2349 160 2605 495 
C 2586 559 2547 592 2470 598 
z
" transform="scale(0.015625)"/>
       <path id="LinLibertineT-6e" d="M 1178 2298 
C 1139 2253 1101 2240 1101 2298 
C 1094 2470 1082 2719 1050 2783 
C 1037 2816 1024 2835 973 2835 
C 794 2764 627 2707 186 2649 
C 173 2611 186 2508 198 2470 
C 544 2438 614 2406 614 2036 
L 614 791 
C 614 268 550 243 166 211 
C 128 172 128 38 166 0 
C 358 6 614 12 870 12 
C 1126 12 1318 6 1510 0 
C 1549 38 1549 172 1510 211 
C 1184 243 1120 268 1120 791 
L 1120 1838 
C 1120 1972 1178 2049 1229 2106 
C 1472 2342 1760 2483 2010 2483 
C 2138 2483 2272 2400 2349 2253 
C 2413 2125 2426 1953 2426 1761 
L 2426 791 
C 2426 268 2362 243 2029 211 
C 1997 172 1997 38 2029 0 
C 2221 6 2426 12 2682 12 
C 2938 12 3168 6 3360 0 
C 3392 38 3392 172 3360 211 
C 3002 243 2931 268 2931 791 
L 2931 1742 
C 2931 2093 2906 2400 2758 2598 
C 2650 2739 2451 2816 2227 2816 
C 1914 2816 1555 2732 1178 2298 
z
" transform="scale(0.015625)"/>
       <path id="LinLibertineT-64" d="M 2208 795 
C 2208 673 2195 621 2106 544 
C 1869 339 1664 236 1504 236 
C 1158 236 800 615 800 1417 
C 800 1879 890 2136 986 2271 
C 1184 2572 1453 2591 1581 2591 
C 1811 2591 1971 2508 2099 2360 
C 2189 2258 2208 2213 2208 2014 
L 2208 795 
z
M 2138 320 
C 2170 345 2227 358 2234 313 
C 2253 160 2304 -64 2304 -64 
C 2355 -84 2387 -77 2426 -64 
C 2566 51 2790 147 3181 192 
C 3219 230 3219 326 3181 364 
C 2771 396 2714 518 2714 833 
L 2714 3728 
C 2714 4140 2739 4408 2739 4408 
C 2739 4458 2714 4480 2656 4480 
C 2496 4408 2016 4309 1760 4288 
C 1747 4236 1760 4134 1798 4096 
C 2131 4077 2208 4108 2208 3576 
L 2208 2764 
C 2208 2719 2195 2707 2150 2707 
C 2125 2707 1862 2816 1651 2816 
C 1229 2816 947 2675 691 2431 
C 416 2155 250 1776 250 1301 
C 250 512 646 -64 1338 -64 
C 1587 -64 1824 64 2138 320 
z
" transform="scale(0.015625)"/>
       <path id="LinLibertineT-61" d="M 1875 1494 
L 1875 647 
C 1875 564 1837 519 1786 480 
C 1619 346 1402 198 1222 198 
C 902 198 762 455 762 654 
C 762 942 896 1237 1370 1359 
L 1875 1494 
z
M 1875 307 
C 1914 108 1984 -64 2304 -64 
C 2547 -64 2778 44 2912 172 
C 2899 249 2874 307 2803 345 
C 2758 307 2650 243 2566 243 
C 2381 243 2374 493 2374 788 
L 2374 1731 
C 2374 2643 1875 2816 1408 2816 
C 883 2816 352 2469 352 2104 
C 352 1950 429 1873 576 1873 
C 762 1873 877 2007 877 2091 
C 877 2136 870 2181 858 2206 
C 851 2226 845 2264 845 2335 
C 845 2534 1114 2604 1357 2604 
C 1574 2604 1875 2495 1875 1770 
C 1875 1725 1856 1699 1837 1693 
L 1286 1558 
C 672 1404 230 1064 230 628 
C 230 102 589 -64 1037 -64 
C 1261 -64 1453 -13 1734 204 
L 1862 307 
L 1875 307 
z
" transform="scale(0.015625)"/>
       <path id="LinLibertineT-6c" d="M 608 790 
C 608 262 538 230 147 211 
C 109 172 109 38 147 0 
C 371 6 608 12 864 12 
C 1120 12 1363 6 1574 0 
C 1613 38 1613 172 1574 211 
C 1184 230 1114 262 1114 790 
L 1114 3726 
C 1114 4140 1139 4408 1139 4408 
C 1139 4458 1114 4480 1056 4480 
C 896 4408 416 4309 160 4288 
C 147 4236 160 4134 198 4096 
C 570 4070 608 4051 608 3573 
L 608 790 
z
" transform="scale(0.015625)"/>
       <path id="LibertineMathMI-67" d="M 1088 275 
C 1088 19 1222 -64 1472 -64 
C 1734 -64 2035 172 2298 453 
L 2214 568 
C 1907 300 1734 275 1626 275 
C 1542 275 1504 326 1504 447 
C 1504 651 1715 1404 2003 2316 
L 2675 2316 
C 2893 2316 3027 2457 3187 2675 
L 3136 2752 
L 1370 2752 
C 992 2752 710 2189 589 1851 
L 717 1819 
C 941 2208 1037 2316 1331 2316 
L 1664 2316 
C 1606 2150 1088 626 1088 275 
z
" transform="scale(0.015625)"/>
      </defs>
      <use xlink:href="#LinLibertineT-4b" transform="scale(0.996264)"/>
      <use xlink:href="#LinLibertineT-65" transform="translate(61.469441 0)scale(0.996264)"/>
      <use xlink:href="#LinLibertineT-6e" transform="translate(106.002393 0)scale(0.996264)"/>
      <use xlink:href="#LinLibertineT-64" transform="translate(159.999884 0)scale(0.996264)"/>
      <use xlink:href="#LinLibertineT-61" transform="translate(210.410789 0)scale(0.996264)"/>
      <use xlink:href="#LinLibertineT-6c" transform="translate(255.94002 0)scale(0.996264)"/>
      <use xlink:href="#LinLibertineT-6c" transform="translate(282.241384 0)scale(0.996264)"/>
      <use xlink:href="#LibertineMathMI-67" transform="translate(328.966145 0)scale(0.996264)"/>
     </g>
    </g>
   </g>
   <g id="PolyCollection_1">
    <defs>
     <path id="m06a03004b9" d="M 49.969342 -281.778154 
L 49.969342 -271.607726 
L 78.131748 -275.798212 
L 106.294154 -279.771961 
L 162.618966 -282.541637 
L 218.943777 -284.54391 
L 218.943777 -286.471511 
L 218.943777 -286.471511 
L 162.618966 -285.567815 
L 106.294154 -285.237791 
L 78.131748 -283.593336 
L 49.969342 -281.778154 
z
"/>
    </defs>
    <g clip-path="url(#pcaca1b4e06)">
     <use xlink:href="#m06a03004b9" x="0" y="311.76" style="fill: #59a257; fill-opacity: 0.15"/>
    </g>
   </g>
   <g id="PolyCollection_2">
    <defs>
     <path id="med9ca1cbcd" d="M 49.969342 -257.517275 
L 49.969342 -237.361779 
L 78.131748 -245.263396 
L 106.294154 -249.201522 
L 162.618966 -273.322777 
L 218.943777 -279.368193 
L 218.943777 -284.479173 
L 218.943777 -284.479173 
L 162.618966 -281.225491 
L 106.294154 -264.469459 
L 78.131748 -262.78938 
L 49.969342 -257.517275 
z
"/>
    </defs>
    <g clip-path="url(#pcaca1b4e06)">
     <use xlink:href="#med9ca1cbcd" x="0" y="311.76" style="fill: #d4682c; fill-opacity: 0.15"/>
    </g>
   </g>
   <g id="PolyCollection_3">
    <defs>
     <path id="m7cd4f2d02a" d="M 49.969342 -281.957557 
L 49.969342 -274.721754 
L 78.131748 -277.229816 
L 106.294154 -279.241429 
L 162.618966 -280.90517 
L 218.943777 -282.864091 
L 218.943777 -286.214017 
L 218.943777 -286.214017 
L 162.618966 -285.848164 
L 106.294154 -284.218474 
L 78.131748 -282.355462 
L 49.969342 -281.957557 
z
"/>
    </defs>
    <g clip-path="url(#pcaca1b4e06)">
     <use xlink:href="#m7cd4f2d02a" x="0" y="311.76" style="fill: #4878a6; fill-opacity: 0.15"/>
    </g>
   </g>
   <g id="line2d_17">
    <path d="M 49.969342 35.06706 
L 78.131748 32.064226 
L 106.294154 29.255124 
L 162.618966 27.705274 
L 218.943777 26.25229 
" clip-path="url(#pcaca1b4e06)" style="fill: none; stroke: #59a257; stroke-width: 1.2; stroke-linecap: square"/>
    <defs>
     <path id="mae2b4a94d1" d="M -0 3.535534 
L 3.535534 0 
L 0 -3.535534 
L -3.535534 -0 
z
"/>
    </defs>
    <g clip-path="url(#pcaca1b4e06)">
     <use xlink:href="#mae2b4a94d1" x="49.969342" y="35.06706" style="fill: #59a257"/>
     <use xlink:href="#mae2b4a94d1" x="78.131748" y="32.064226" style="fill: #59a257"/>
     <use xlink:href="#mae2b4a94d1" x="106.294154" y="29.255124" style="fill: #59a257"/>
     <use xlink:href="#mae2b4a94d1" x="162.618966" y="27.705274" style="fill: #59a257"/>
     <use xlink:href="#mae2b4a94d1" x="218.943777" y="26.25229" style="fill: #59a257"/>
    </g>
   </g>
   <g id="line2d_18">
    <path d="M 49.969342 64.320473 
L 78.131748 57.733612 
L 106.294154 54.924509 
L 162.618966 34.485866 
L 218.943777 29.836317 
" clip-path="url(#pcaca1b4e06)" style="fill: none; stroke: #d4682c; stroke-width: 1.2; stroke-linecap: square"/>
    <defs>
     <path id="m459c5707b4" d="M -2 2 
L 2 2 
L 2 -2 
L -2 -2 
z
"/>
    </defs>
    <g clip-path="url(#pcaca1b4e06)">
     <use xlink:href="#m459c5707b4" x="49.969342" y="64.320473" style="fill: #d4682c"/>
     <use xlink:href="#m459c5707b4" x="78.131748" y="57.733612" style="fill: #d4682c"/>
     <use xlink:href="#m459c5707b4" x="106.294154" y="54.924509" style="fill: #d4682c"/>
     <use xlink:href="#m459c5707b4" x="162.618966" y="34.485866" style="fill: #d4682c"/>
     <use xlink:href="#m459c5707b4" x="218.943777" y="29.836317" style="fill: #d4682c"/>
    </g>
   </g>
   <g id="line2d_19">
    <path d="M 49.969342 33.420345 
L 78.131748 31.967361 
L 106.294154 30.030048 
L 162.618966 28.383333 
L 218.943777 27.220946 
" clip-path="url(#pcaca1b4e06)" style="fill: none; stroke: #4878a6; stroke-width: 1.2; stroke-linecap: square"/>
    <defs>
     <path id="m8ac53bdaee" d="M 0 2 
C 0.530406 2 1.03916 1.789267 1.414214 1.414214 
C 1.789267 1.03916 2 0.530406 2 0 
C 2 -0.530406 1.789267 -1.03916 1.414214 -1.414214 
C 1.03916 -1.789267 0.530406 -2 0 -2 
C -0.530406 -2 -1.03916 -1.789267 -1.414214 -1.414214 
C -1.789267 -1.03916 -2 -0.530406 -2 0 
C -2 0.530406 -1.789267 1.03916 -1.414214 1.414214 
C -1.03916 1.789267 -0.530406 2 0 2 
z
"/>
    </defs>
    <g clip-path="url(#pcaca1b4e06)">
     <use xlink:href="#m8ac53bdaee" x="49.969342" y="33.420345" style="fill: #4878a6"/>
     <use xlink:href="#m8ac53bdaee" x="78.131748" y="31.967361" style="fill: #4878a6"/>
     <use xlink:href="#m8ac53bdaee" x="106.294154" y="30.030048" style="fill: #4878a6"/>
     <use xlink:href="#m8ac53bdaee" x="162.618966" y="28.383333" style="fill: #4878a6"/>
     <use xlink:href="#m8ac53bdaee" x="218.943777" y="27.220946" style="fill: #4878a6"/>
    </g>
   </g>
   <g id="patch_3">
    <path d="M 35.888139 141.425495 
L 35.888139 15.88767 
" style="fill: none; stroke: #333333; stroke-width: 0.6; stroke-linejoin: miter; stroke-linecap: square"/>
   </g>
   <g id="patch_4">
    <path d="M 35.888139 141.425495 
L 233.02498 141.425495 
" style="fill: none; stroke: #333333; stroke-width: 0.6; stroke-linejoin: miter; stroke-linecap: square"/>
   </g>
   <g id="text_12">
    <!-- 2002 -->
    <g transform="translate(126.117835 9.88767)scale(0.09 -0.09)">
     <use xlink:href="#LinLibertineT-32" transform="scale(0.996264)"/>
     <use xlink:href="#LinLibertineT-30" transform="translate(46.326292 0)scale(0.996264)"/>
     <use xlink:href="#LinLibertineT-30" transform="translate(92.652583 0)scale(0.996264)"/>
     <use xlink:href="#LinLibertineT-32" transform="translate(138.978875 0)scale(0.996264)"/>
    </g>
   </g>
  </g>
  <g id="axes_2">
   <g id="patch_5">
    <path d="M 255.023158 141.425495 
L 452.16 141.425495 
L 452.16 15.88767 
L 255.023158 15.88767 
z
" style="fill: #ffffff"/>
   </g>
   <g id="matplotlib.axis_3">
    <g id="xtick_5">
     <g id="line2d_20">
      <g>
       <use xlink:href="#m41bc81ee7d" x="269.104361" y="141.425495" style="fill: #333333; stroke: #333333; stroke-width: 0.6"/>
      </g>
     </g>
     <g id="text_13">
      <!-- $\mathdefault{0.3}$ -->
      <g style="fill: #333333" transform="translate(264.715272 149.815894)scale(0.07 -0.07)">
       <use xlink:href="#LinLibertineT-30" transform="scale(0.996264)"/>
       <use xlink:href="#LibertineMathMI-94" transform="translate(47.92029 0)scale(0.996264)"/>
       <use xlink:href="#LinLibertineT-33" transform="translate(71.531789 0)scale(0.996264)"/>
      </g>
     </g>
    </g>
    <g id="xtick_6">
     <g id="line2d_21">
      <g>
       <use xlink:href="#m41bc81ee7d" x="325.429173" y="141.425495" style="fill: #333333; stroke: #333333; stroke-width: 0.6"/>
      </g>
     </g>
     <g id="text_14">
      <!-- $\mathdefault{0.5}$ -->
      <g style="fill: #333333" transform="translate(321.040084 149.815894)scale(0.07 -0.07)">
       <use xlink:href="#LinLibertineT-30" transform="scale(0.996264)"/>
       <use xlink:href="#LibertineMathMI-94" transform="translate(47.92029 0)scale(0.996264)"/>
       <use xlink:href="#LinLibertineT-35" transform="translate(71.531789 0)scale(0.996264)"/>
      </g>
     </g>
    </g>
    <g id="xtick_7">
     <g id="line2d_22">
      <g>
       <use xlink:href="#m41bc81ee7d" x="381.753985" y="141.425495" style="fill: #333333; stroke: #333333; stroke-width: 0.6"/>
      </g>
     </g>
     <g id="text_15">
      <!-- $\mathdefault{0.7}$ -->
      <g style="fill: #333333" transform="translate(377.364896 149.815894)scale(0.07 -0.07)">
       <use xlink:href="#LinLibertineT-30" transform="scale(0.996264)"/>
       <use xlink:href="#LibertineMathMI-94" transform="translate(47.92029 0)scale(0.996264)"/>
       <use xlink:href="#LinLibertineT-37" transform="translate(71.531789 0)scale(0.996264)"/>
      </g>
     </g>
    </g>
    <g id="xtick_8">
     <g id="line2d_23">
      <g>
       <use xlink:href="#m41bc81ee7d" x="438.078797" y="141.425495" style="fill: #333333; stroke: #333333; stroke-width: 0.6"/>
      </g>
     </g>
     <g id="text_16">
      <!-- $\mathdefault{0.9}$ -->
      <g style="fill: #333333" transform="translate(433.689708 149.815894)scale(0.07 -0.07)">
       <use xlink:href="#LinLibertineT-30" transform="scale(0.996264)"/>
       <use xlink:href="#LibertineMathMI-94" transform="translate(47.92029 0)scale(0.996264)"/>
       <use xlink:href="#LinLibertineT-39" transform="translate(71.531789 0)scale(0.996264)"/>
      </g>
     </g>
    </g>
   </g>
   <g id="matplotlib.axis_4">
    <g id="ytick_7">
     <g id="line2d_24">
      <path d="M 255.023158 141.425495 
L 452.16 141.425495 
" clip-path="url(#p15b9fb81cd)" style="fill: none; stroke: #cccccc; stroke-opacity: 0.5; stroke-width: 0.4; stroke-linecap: square"/>
     </g>
     <g id="line2d_25">
      <g>
       <use xlink:href="#m86c01624e1" x="255.023158" y="141.425495" style="fill: #333333; stroke: #333333; stroke-width: 0.6"/>
      </g>
     </g>
     <g id="text_17">
      <!-- $\mathdefault{0.0}$ -->
      <g style="fill: #333333" transform="translate(242.74498 143.870694)scale(0.07 -0.07)">
       <use xlink:href="#LinLibertineT-30" transform="scale(0.996264)"/>
       <use xlink:href="#LibertineMathMI-94" transform="translate(47.92029 0)scale(0.996264)"/>
       <use xlink:href="#LinLibertineT-30" transform="translate(71.531789 0)scale(0.996264)"/>
      </g>
     </g>
    </g>
    <g id="ytick_8">
     <g id="line2d_26">
      <path d="M 255.023158 118.17775 
L 452.16 118.17775 
" clip-path="url(#p15b9fb81cd)" style="fill: none; stroke: #cccccc; stroke-opacity: 0.5; stroke-width: 0.4; stroke-linecap: square"/>
     </g>
     <g id="line2d_27">
      <g>
       <use xlink:href="#m86c01624e1" x="255.023158" y="118.17775" style="fill: #333333; stroke: #333333; stroke-width: 0.6"/>
      </g>
     </g>
     <g id="text_18">
      <!-- $\mathdefault{0.2}$ -->
      <g style="fill: #333333" transform="translate(242.74498 120.622949)scale(0.07 -0.07)">
       <use xlink:href="#LinLibertineT-30" transform="scale(0.996264)"/>
       <use xlink:href="#LibertineMathMI-94" transform="translate(47.92029 0)scale(0.996264)"/>
       <use xlink:href="#LinLibertineT-32" transform="translate(71.531789 0)scale(0.996264)"/>
      </g>
     </g>
    </g>
    <g id="ytick_9">
     <g id="line2d_28">
      <path d="M 255.023158 94.930005 
L 452.16 94.930005 
" clip-path="url(#p15b9fb81cd)" style="fill: none; stroke: #cccccc; stroke-opacity: 0.5; stroke-width: 0.4; stroke-linecap: square"/>
     </g>
     <g id="line2d_29">
      <g>
       <use xlink:href="#m86c01624e1" x="255.023158" y="94.930005" style="fill: #333333; stroke: #333333; stroke-width: 0.6"/>
      </g>
     </g>
     <g id="text_19">
      <!-- $\mathdefault{0.4}$ -->
      <g style="fill: #333333" transform="translate(242.74498 97.375204)scale(0.07 -0.07)">
       <use xlink:href="#LinLibertineT-30" transform="scale(0.996264)"/>
       <use xlink:href="#LibertineMathMI-94" transform="translate(47.92029 0)scale(0.996264)"/>
       <use xlink:href="#LinLibertineT-34" transform="translate(71.531789 0)scale(0.996264)"/>
      </g>
     </g>
    </g>
    <g id="ytick_10">
     <g id="line2d_30">
      <path d="M 255.023158 71.682259 
L 452.16 71.682259 
" clip-path="url(#p15b9fb81cd)" style="fill: none; stroke: #cccccc; stroke-opacity: 0.5; stroke-width: 0.4; stroke-linecap: square"/>
     </g>
     <g id="line2d_31">
      <g>
       <use xlink:href="#m86c01624e1" x="255.023158" y="71.682259" style="fill: #333333; stroke: #333333; stroke-width: 0.6"/>
      </g>
     </g>
     <g id="text_20">
      <!-- $\mathdefault{0.6}$ -->
      <g style="fill: #333333" transform="translate(242.74498 74.127458)scale(0.07 -0.07)">
       <use xlink:href="#LinLibertineT-30" transform="scale(0.996264)"/>
       <use xlink:href="#LibertineMathMI-94" transform="translate(47.92029 0)scale(0.996264)"/>
       <use xlink:href="#LinLibertineT-36" transform="translate(71.531789 0)scale(0.996264)"/>
      </g>
     </g>
    </g>
    <g id="ytick_11">
     <g id="line2d_32">
      <path d="M 255.023158 48.434514 
L 452.16 48.434514 
" clip-path="url(#p15b9fb81cd)" style="fill: none; stroke: #cccccc; stroke-opacity: 0.5; stroke-width: 0.4; stroke-linecap: square"/>
     </g>
     <g id="line2d_33">
      <g>
       <use xlink:href="#m86c01624e1" x="255.023158" y="48.434514" style="fill: #333333; stroke: #333333; stroke-width: 0.6"/>
      </g>
     </g>
     <g id="text_21">
      <!-- $\mathdefault{0.8}$ -->
      <g style="fill: #333333" transform="translate(242.74498 50.879713)scale(0.07 -0.07)">
       <use xlink:href="#LinLibertineT-30" transform="scale(0.996264)"/>
       <use xlink:href="#LibertineMathMI-94" transform="translate(47.92029 0)scale(0.996264)"/>
       <use xlink:href="#LinLibertineT-38" transform="translate(71.531789 0)scale(0.996264)"/>
      </g>
     </g>
    </g>
    <g id="ytick_12">
     <g id="line2d_34">
      <path d="M 255.023158 25.186768 
L 452.16 25.186768 
" clip-path="url(#p15b9fb81cd)" style="fill: none; stroke: #cccccc; stroke-opacity: 0.5; stroke-width: 0.4; stroke-linecap: square"/>
     </g>
     <g id="line2d_35">
      <g>
       <use xlink:href="#m86c01624e1" x="255.023158" y="25.186768" style="fill: #333333; stroke: #333333; stroke-width: 0.6"/>
      </g>
     </g>
     <g id="text_22">
      <!-- $\mathdefault{1.0}$ -->
      <g style="fill: #333333" transform="translate(242.74498 27.631967)scale(0.07 -0.07)">
       <use xlink:href="#LinLibertineT-31" transform="scale(0.996264)"/>
       <use xlink:href="#LibertineMathMI-94" transform="translate(47.92029 0)scale(0.996264)"/>
       <use xlink:href="#LinLibertineT-30" transform="translate(71.531789 0)scale(0.996264)"/>
      </g>
     </g>
    </g>
   </g>
   <g id="PolyCollection_4">
    <defs>
     <path id="m3f3a4ae665" d="M 269.104361 -282.858977 
L 269.104361 -273.027797 
L 297.266767 -276.908755 
L 325.429173 -278.89515 
L 381.753985 -283.660326 
L 438.078797 -284.787131 
L 438.078797 -287.302617 
L 438.078797 -287.302617 
L 381.753985 -287.020468 
L 325.429173 -285.797588 
L 297.266767 -283.909358 
L 269.104361 -282.858977 
z
"/>
    </defs>
    <g clip-path="url(#p15b9fb81cd)">
     <use xlink:href="#m3f3a4ae665" x="0" y="311.76" style="fill: #59a257; fill-opacity: 0.15"/>
    </g>
   </g>
   <g id="PolyCollection_5">
    <defs>
     <path id="m247d03701b" d="M 269.104361 -243.401303 
L 269.104361 -220.198966 
L 297.266767 -239.857711 
L 325.429173 -249.844944 
L 381.753985 -264.463101 
L 438.078797 -269.705163 
L 438.078797 -275.966693 
L 438.078797 -275.966693 
L 381.753985 -272.050552 
L 325.429173 -265.534395 
L 297.266767 -256.148507 
L 269.104361 -243.401303 
z
"/>
    </defs>
    <g clip-path="url(#p15b9fb81cd)">
     <use xlink:href="#m247d03701b" x="0" y="311.76" style="fill: #d4682c; fill-opacity: 0.15"/>
    </g>
   </g>
   <g id="PolyCollection_6">
    <defs>
     <path id="ma3771b67da" d="M 269.104361 -285.98693 
L 269.104361 -276.944615 
L 297.266767 -279.518118 
L 325.429173 -281.119411 
L 381.753985 -282.911743 
L 438.078797 -283.438668 
L 438.078797 -286.889887 
L 438.078797 -286.889887 
L 381.753985 -287.064574 
L 325.429173 -286.391235 
L 297.266767 -285.526858 
L 269.104361 -285.98693 
z
"/>
    </defs>
    <g clip-path="url(#p15b9fb81cd)">
     <use xlink:href="#ma3771b67da" x="0" y="311.76" style="fill: #4878a6; fill-opacity: 0.15"/>
    </g>
   </g>
   <g id="line2d_36">
    <path d="M 269.104361 33.816613 
L 297.266767 31.350943 
L 325.429173 29.413631 
L 381.753985 26.419603 
L 438.078797 25.715126 
" clip-path="url(#p15b9fb81cd)" style="fill: none; stroke: #59a257; stroke-width: 1.2; stroke-linecap: square"/>
    <g clip-path="url(#p15b9fb81cd)">
     <use xlink:href="#mae2b4a94d1" x="269.104361" y="33.816613" style="fill: #59a257"/>
     <use xlink:href="#mae2b4a94d1" x="297.266767" y="31.350943" style="fill: #59a257"/>
     <use xlink:href="#mae2b4a94d1" x="325.429173" y="29.413631" style="fill: #59a257"/>
     <use xlink:href="#mae2b4a94d1" x="381.753985" y="26.419603" style="fill: #59a257"/>
     <use xlink:href="#mae2b4a94d1" x="438.078797" y="25.715126" style="fill: #59a257"/>
    </g>
   </g>
   <g id="line2d_37">
    <path d="M 269.104361 79.959865 
L 297.266767 63.756891 
L 325.429173 54.070331 
L 381.753985 43.503174 
L 438.078797 38.924072 
" clip-path="url(#p15b9fb81cd)" style="fill: none; stroke: #d4682c; stroke-width: 1.2; stroke-linecap: square"/>
    <g clip-path="url(#p15b9fb81cd)">
     <use xlink:href="#m459c5707b4" x="269.104361" y="79.959865" style="fill: #d4682c"/>
     <use xlink:href="#m459c5707b4" x="297.266767" y="63.756891" style="fill: #d4682c"/>
     <use xlink:href="#m459c5707b4" x="325.429173" y="54.070331" style="fill: #d4682c"/>
     <use xlink:href="#m459c5707b4" x="381.753985" y="43.503174" style="fill: #d4682c"/>
     <use xlink:href="#m459c5707b4" x="438.078797" y="38.924072" style="fill: #d4682c"/>
    </g>
   </g>
   <g id="line2d_38">
    <path d="M 269.104361 30.294227 
L 297.266767 29.237512 
L 325.429173 28.004677 
L 381.753985 26.771842 
L 438.078797 26.595722 
" clip-path="url(#p15b9fb81cd)" style="fill: none; stroke: #4878a6; stroke-width: 1.2; stroke-linecap: square"/>
    <g clip-path="url(#p15b9fb81cd)">
     <use xlink:href="#m8ac53bdaee" x="269.104361" y="30.294227" style="fill: #4878a6"/>
     <use xlink:href="#m8ac53bdaee" x="297.266767" y="29.237512" style="fill: #4878a6"/>
     <use xlink:href="#m8ac53bdaee" x="325.429173" y="28.004677" style="fill: #4878a6"/>
     <use xlink:href="#m8ac53bdaee" x="381.753985" y="26.771842" style="fill: #4878a6"/>
     <use xlink:href="#m8ac53bdaee" x="438.078797" y="26.595722" style="fill: #4878a6"/>
    </g>
   </g>
   <g id="patch_6">
    <path d="M 255.023158 141.425495 
L 255.023158 15.88767 
" style="fill: none; stroke: #333333; stroke-width: 0.6; stroke-linejoin: miter; stroke-linecap: square"/>
   </g>
   <g id="patch_7">
    <path d="M 255.023158 141.425495 
L 452.16 141.425495 
" style="fill: none; stroke: #333333; stroke-width: 0.6; stroke-linejoin: miter; stroke-linecap: square"/>
   </g>
   <g id="text_23">
    <!-- 2007 -->
    <g transform="translate(345.252854 9.88767)scale(0.09 -0.09)">
     <use xlink:href="#LinLibertineT-32" transform="scale(0.996264)"/>
     <use xlink:href="#LinLibertineT-30" transform="translate(46.326292 0)scale(0.996264)"/>
     <use xlink:href="#LinLibertineT-30" transform="translate(92.652583 0)scale(0.996264)"/>
     <use xlink:href="#LinLibertineT-37" transform="translate(138.978875 0)scale(0.996264)"/>
    </g>
   </g>
   <g id="legend_1">
    <g id="line2d_39">
     <path d="M 404.190449 113.694783 
L 409.440449 113.694783 
L 414.690449 113.694783 
" style="fill: none; stroke: #59a257; stroke-width: 1.2; stroke-linecap: square"/>
     <g>
      <use xlink:href="#mae2b4a94d1" x="409.440449" y="113.694783" style="fill: #59a257"/>
     </g>
    </g>
    <g id="text_24">
     <!-- $p$-mean -->
     <g transform="translate(417.490449 116.144783)scale(0.07 -0.07)">
      <defs>
       <path id="LibertineMathMI-3f" d="M 1702 2591 
C 1728 2707 1786 2899 1786 2976 
C 1786 3084 1722 3148 1517 3148 
C 1274 3148 1274 2867 1222 2623 
L 1139 2245 
C 819 2014 582 1822 403 1597 
C 429 1507 486 1462 602 1462 
C 742 1648 883 1764 1062 1911 
L 403 -1031 
C 365 -1210 269 -1287 64 -1319 
L -58 -1338 
C -90 -1345 -122 -1351 -122 -1389 
L -122 -1511 
L -109 -1524 
C -109 -1524 326 -1492 557 -1492 
C 806 -1492 1242 -1505 1242 -1505 
L 1254 -1492 
L 1254 -1364 
C 1254 -1332 1242 -1319 1216 -1313 
L 1094 -1293 
C 998 -1281 832 -1249 883 -1031 
L 1165 147 
C 1261 44 1446 -64 1632 -64 
C 2086 -64 2458 192 2739 532 
C 3085 955 3258 1392 3258 1854 
C 3258 2393 3078 2816 2438 2816 
C 2112 2816 1875 2694 1702 2591 
z
M 2733 1751 
C 2733 1436 2605 994 2362 615 
C 2195 352 1939 160 1696 160 
C 1530 160 1357 243 1222 429 
L 1645 2303 
C 1805 2405 1990 2521 2234 2521 
C 2669 2521 2733 2065 2733 1751 
z
" transform="scale(0.015625)"/>
       <path id="LinLibertineT-2d" d="M 1734 1408 
C 1818 1408 1907 1587 1907 1664 
C 1907 1728 1882 1792 1818 1792 
L 416 1792 
C 339 1792 256 1644 256 1529 
C 256 1465 294 1408 352 1408 
L 1734 1408 
z
" transform="scale(0.015625)"/>
       <path id="LinLibertineT-6d" d="M 1088 2298 
C 1082 2489 1069 2719 1037 2783 
C 1024 2816 1011 2835 960 2835 
C 781 2764 614 2707 173 2649 
C 160 2611 173 2508 186 2470 
C 531 2438 602 2406 602 2036 
L 602 791 
C 602 268 518 236 166 211 
C 128 172 128 38 166 0 
C 358 6 602 12 858 12 
C 1114 12 1312 6 1504 0 
C 1542 38 1542 172 1504 211 
C 1178 243 1107 268 1107 791 
L 1107 1838 
C 1107 1972 1165 2049 1216 2106 
C 1472 2355 1709 2483 1907 2483 
C 2150 2483 2330 2329 2330 1902 
L 2330 791 
C 2330 268 2278 236 1933 211 
C 1901 172 1901 38 1933 0 
C 2093 6 2330 12 2586 12 
C 2842 12 3053 6 3213 0 
C 3245 38 3245 172 3213 211 
C 2893 236 2835 268 2835 791 
L 2835 1806 
C 2835 1896 2835 1985 2829 2061 
C 3136 2400 3424 2483 3674 2483 
C 3917 2483 4058 2342 4058 1915 
L 4058 791 
C 4058 268 3994 236 3661 211 
C 3629 172 3629 38 3661 0 
C 3821 6 4058 12 4314 12 
C 4570 12 4794 6 4973 0 
C 5005 38 5005 172 4973 211 
C 4621 236 4563 268 4563 791 
L 4563 1800 
C 4563 2368 4467 2816 3904 2816 
C 3578 2816 3181 2694 2848 2342 
C 2829 2323 2790 2291 2778 2349 
C 2720 2611 2470 2816 2138 2816 
C 1766 2816 1434 2598 1165 2298 
C 1133 2266 1094 2221 1088 2298 
z
" transform="scale(0.015625)"/>
      </defs>
      <use xlink:href="#LibertineMathMI-3f" transform="scale(0.996264)"/>
      <use xlink:href="#LinLibertineT-2d" transform="translate(55.740938 0)scale(0.996264)"/>
      <use xlink:href="#LinLibertineT-6d" transform="translate(89.41468 0)scale(0.996264)"/>
      <use xlink:href="#LinLibertineT-65" transform="translate(168.119521 0)scale(0.996264)"/>
      <use xlink:href="#LinLibertineT-61" transform="translate(212.652474 0)scale(0.996264)"/>
      <use xlink:href="#LinLibertineT-6e" transform="translate(258.181706 0)scale(0.996264)"/>
     </g>
    </g>
    <g id="line2d_40">
     <path d="M 404.190449 122.425689 
L 409.440449 122.425689 
L 414.690449 122.425689 
" style="fill: none; stroke: #d4682c; stroke-width: 1.2; stroke-linecap: square"/>
     <g>
      <use xlink:href="#m459c5707b4" x="409.440449" y="122.425689" style="fill: #d4682c"/>
     </g>
    </g>
    <g id="text_25">
     <!-- Pol.is GIC -->
     <g transform="translate(417.490449 124.875689)scale(0.07 -0.07)">
      <defs>
       <path id="LinLibertineT-50" d="M 1210 3591 
C 1210 3779 1306 4006 1766 4006 
C 2208 4006 2650 3857 2650 3033 
C 2650 2333 2317 2048 1696 2048 
C 1536 2048 1280 2060 1210 2080 
L 1210 3591 
z
M 666 3390 
L 666 798 
C 666 262 557 230 109 211 
C 70 172 70 38 109 0 
C 397 6 710 12 941 12 
C 1165 12 1542 6 1862 0 
C 1901 38 1901 172 1862 211 
C 1363 237 1210 262 1210 798 
L 1210 1894 
C 1350 1849 1504 1830 1728 1830 
C 2893 1830 3245 2599 3245 3150 
C 3245 3532 2995 4224 1811 4224 
C 1568 4224 1190 4179 934 4179 
C 698 4179 365 4185 109 4191 
C 70 4153 70 4019 109 3980 
C 557 3960 666 3928 666 3390 
z
" transform="scale(0.015625)"/>
       <path id="LinLibertineT-6f" d="M 262 1315 
C 262 660 698 -64 1606 -64 
C 2016 -64 2330 83 2547 294 
C 2835 577 2963 981 2963 1372 
C 2963 2040 2598 2816 1619 2816 
C 1197 2816 851 2643 614 2367 
C 384 2091 262 1719 262 1315 
z
M 1523 2591 
C 2074 2591 2413 2091 2413 1167 
C 2413 358 1997 160 1696 160 
C 1030 160 813 968 813 1462 
C 813 2020 947 2591 1523 2591 
z
" transform="scale(0.015625)"/>
       <path id="LinLibertineT-2e" d="M 365 275 
C 365 89 518 -64 704 -64 
C 890 -64 1043 89 1043 275 
C 1043 460 890 614 704 614 
C 518 614 365 460 365 275 
z
" transform="scale(0.015625)"/>
       <path id="LinLibertineT-69" d="M 576 3852 
C 576 3686 730 3519 883 3519 
C 1062 3519 1216 3692 1216 3827 
C 1216 3980 1082 4160 909 4160 
C 755 4160 576 4006 576 3852 
z
M 1158 785 
L 1158 2040 
C 1158 2356 1184 2769 1184 2769 
C 1184 2796 1152 2816 1101 2816 
C 922 2743 666 2683 224 2624 
C 211 2585 224 2483 237 2444 
C 589 2413 653 2375 653 2015 
L 653 785 
C 653 261 582 242 192 211 
C 154 172 154 38 192 0 
C 403 6 653 12 909 12 
C 1165 12 1408 6 1619 0 
C 1658 38 1658 172 1619 211 
C 1229 236 1158 261 1158 785 
z
" transform="scale(0.015625)"/>
       <path id="LinLibertineT-73" d="M 307 885 
C 333 570 352 269 352 0 
C 416 12 480 19 512 19 
C 557 19 595 19 640 6 
C 813 -39 986 -64 1222 -64 
C 1581 -64 2240 108 2240 743 
C 2240 1180 1926 1437 1491 1597 
C 1107 1745 851 1841 851 2194 
C 851 2457 1082 2604 1299 2604 
C 1440 2604 1811 2553 1894 2008 
C 1933 1969 2061 1976 2099 2014 
C 2118 2245 2131 2482 2138 2694 
C 1939 2726 1632 2816 1299 2816 
C 826 2816 397 2508 397 2097 
C 397 1629 608 1430 1101 1225 
C 1632 1007 1754 872 1754 596 
C 1754 281 1446 147 1210 147 
C 960 147 819 230 755 301 
C 614 448 544 731 506 891 
C 467 930 346 923 307 885 
z
" transform="scale(0.015625)"/>
       <path id="LinLibertineT-47" d="M 2413 4224 
C 1344 4224 237 3379 237 1958 
C 237 810 1030 -64 2253 -64 
C 3008 -64 3603 96 4038 465 
C 3968 523 3936 574 3936 644 
L 3936 1383 
C 3936 1606 4045 1670 4230 1689 
C 4269 1727 4269 1881 4230 1920 
C 4077 1913 3917 1907 3661 1907 
C 3450 1907 3149 1913 2867 1920 
C 2829 1881 2829 1727 2867 1689 
C 3219 1664 3392 1638 3392 1383 
L 3392 408 
C 3174 204 2746 166 2400 166 
C 1389 166 851 1243 851 2087 
C 851 3218 1581 3993 2323 3993 
C 3251 3993 3514 3457 3680 2901 
C 3750 2895 3821 2908 3891 2940 
C 3878 3211 3846 3470 3744 3935 
C 3360 3999 3123 4224 2413 4224 
z
" transform="scale(0.015625)"/>
       <path id="LinLibertineT-49" d="M 1222 794 
L 1222 3365 
C 1222 3897 1331 3929 1779 3948 
C 1818 3987 1818 4121 1779 4160 
C 1498 4153 1197 4147 947 4147 
C 736 4147 422 4153 122 4160 
C 83 4121 83 3987 122 3948 
C 570 3929 678 3897 678 3365 
L 678 794 
C 678 262 570 230 122 211 
C 83 172 83 38 122 0 
C 410 6 723 12 954 12 
C 1184 12 1491 6 1779 0 
C 1818 38 1818 172 1779 211 
C 1331 230 1222 262 1222 794 
z
" transform="scale(0.015625)"/>
      </defs>
      <use xlink:href="#LinLibertineT-50" transform="scale(0.996264)"/>
      <use xlink:href="#LinLibertineT-6f" transform="translate(53.897919 0)scale(0.996264)"/>
      <use xlink:href="#LinLibertineT-6c" transform="translate(104.109589 0)scale(0.996264)"/>
      <use xlink:href="#LinLibertineT-2e" transform="translate(130.410953 0)scale(0.996264)"/>
      <use xlink:href="#LinLibertineT-69" transform="translate(152.328776 0)scale(0.996264)"/>
      <use xlink:href="#LinLibertineT-73" transform="translate(179.327522 0)scale(0.996264)"/>
      <use xlink:href="#LinLibertineT-47" transform="translate(243.088449 0)scale(0.996264)"/>
      <use xlink:href="#LinLibertineT-49" transform="translate(311.332564 0)scale(0.996264)"/>
      <use xlink:href="#LinLibertineT-43" transform="translate(340.921587 0)scale(0.996264)"/>
     </g>
    </g>
    <g id="line2d_41">
     <path d="M 404.190449 131.050592 
L 409.440449 131.050592 
L 414.690449 131.050592 
" style="fill: none; stroke: #4878a6; stroke-width: 1.2; stroke-linecap: square"/>
     <g>
      <use xlink:href="#m8ac53bdaee" x="409.440449" y="131.050592" style="fill: #4878a6"/>
     </g>
    </g>
    <g id="text_26">
     <!-- PD -->
     <g transform="translate(417.490449 133.500592)scale(0.07 -0.07)">
      <defs>
       <path id="LinLibertineT-44" d="M 1222 550 
L 1222 3628 
C 1222 3852 1446 3942 1760 3942 
C 3142 3942 3597 2820 3597 1833 
C 3597 538 2822 217 1920 217 
C 1293 217 1222 345 1222 550 
z
M 122 4160 
C 83 4121 83 3987 122 3948 
C 570 3929 678 3897 678 3365 
L 678 794 
C 678 262 570 230 122 211 
C 83 172 83 38 122 0 
C 371 6 710 12 954 12 
C 1190 12 1459 0 2118 0 
C 3021 0 4211 409 4211 1987 
C 4211 3179 3232 4160 2003 4160 
C 1549 4160 1197 4147 947 4147 
C 717 4147 378 4153 122 4160 
z
" transform="scale(0.015625)"/>
      </defs>
      <use xlink:href="#LinLibertineT-50" transform="scale(0.996264)"/>
      <use xlink:href="#LinLibertineT-44" transform="translate(53.897919 0)scale(0.996264)"/>
     </g>
    </g>
   </g>
  </g>
  <g id="axes_3">
   <g id="patch_8">
    <path d="M 35.888139 286.698622 
L 233.02498 286.698622 
L 233.02498 161.160797 
L 35.888139 161.160797 
z
" style="fill: #ffffff"/>
   </g>
   <g id="matplotlib.axis_5">
    <g id="xtick_9">
     <g id="line2d_42">
      <g>
       <use xlink:href="#m41bc81ee7d" x="49.969342" y="286.698622" style="fill: #333333; stroke: #333333; stroke-width: 0.6"/>
      </g>
     </g>
     <g id="text_27">
      <!-- $\mathdefault{0.3}$ -->
      <g style="fill: #333333" transform="translate(45.580253 295.08902)scale(0.07 -0.07)">
       <use xlink:href="#LinLibertineT-30" transform="scale(0.996264)"/>
       <use xlink:href="#LibertineMathMI-94" transform="translate(47.92029 0)scale(0.996264)"/>
       <use xlink:href="#LinLibertineT-33" transform="translate(71.531789 0)scale(0.996264)"/>
      </g>
     </g>
    </g>
    <g id="xtick_10">
     <g id="line2d_43">
      <g>
       <use xlink:href="#m41bc81ee7d" x="106.294154" y="286.698622" style="fill: #333333; stroke: #333333; stroke-width: 0.6"/>
      </g>
     </g>
     <g id="text_28">
      <!-- $\mathdefault{0.5}$ -->
      <g style="fill: #333333" transform="translate(101.905065 295.08902)scale(0.07 -0.07)">
       <use xlink:href="#LinLibertineT-30" transform="scale(0.996264)"/>
       <use xlink:href="#LibertineMathMI-94" transform="translate(47.92029 0)scale(0.996264)"/>
       <use xlink:href="#LinLibertineT-35" transform="translate(71.531789 0)scale(0.996264)"/>
      </g>
     </g>
    </g>
    <g id="xtick_11">
     <g id="line2d_44">
      <g>
       <use xlink:href="#m41bc81ee7d" x="162.618966" y="286.698622" style="fill: #333333; stroke: #333333; stroke-width: 0.6"/>
      </g>
     </g>
     <g id="text_29">
      <!-- $\mathdefault{0.7}$ -->
      <g style="fill: #333333" transform="translate(158.229877 295.08902)scale(0.07 -0.07)">
       <use xlink:href="#LinLibertineT-30" transform="scale(0.996264)"/>
       <use xlink:href="#LibertineMathMI-94" transform="translate(47.92029 0)scale(0.996264)"/>
       <use xlink:href="#LinLibertineT-37" transform="translate(71.531789 0)scale(0.996264)"/>
      </g>
     </g>
    </g>
    <g id="xtick_12">
     <g id="line2d_45">
      <g>
       <use xlink:href="#m41bc81ee7d" x="218.943777" y="286.698622" style="fill: #333333; stroke: #333333; stroke-width: 0.6"/>
      </g>
     </g>
     <g id="text_30">
      <!-- $\mathdefault{0.9}$ -->
      <g style="fill: #333333" transform="translate(214.554688 295.08902)scale(0.07 -0.07)">
       <use xlink:href="#LinLibertineT-30" transform="scale(0.996264)"/>
       <use xlink:href="#LibertineMathMI-94" transform="translate(47.92029 0)scale(0.996264)"/>
       <use xlink:href="#LinLibertineT-39" transform="translate(71.531789 0)scale(0.996264)"/>
      </g>
     </g>
    </g>
    <g id="text_31">
     <!-- Observation Rate -->
     <g style="fill: #333333" transform="translate(106.31014 306.302965)scale(0.08 -0.08)">
      <defs>
       <path id="LinLibertineT-4f" d="M 2118 3993 
C 2963 3993 3648 3287 3648 1990 
C 3648 840 3098 166 2368 166 
C 1587 166 851 866 851 2099 
C 851 3447 1485 3993 2118 3993 
z
M 4262 2112 
C 4262 3441 3347 4224 2202 4224 
C 960 4224 237 3236 237 1990 
C 237 725 1152 -64 2240 -64 
C 2950 -64 3514 243 3866 744 
C 4122 1110 4262 1572 4262 2112 
z
" transform="scale(0.015625)"/>
       <path id="LinLibertineT-62" d="M 1114 2328 
C 1280 2476 1472 2534 1658 2534 
C 2048 2534 2368 2059 2368 1437 
C 2368 705 2074 153 1466 153 
C 1267 153 1133 294 1005 455 
L 1005 2059 
C 1005 2194 1030 2258 1114 2328 
z
M 1069 2527 
C 1030 2489 1005 2502 1005 2559 
L 1005 3728 
C 1005 4140 1030 4408 1030 4408 
C 1030 4458 1005 4480 947 4480 
C 787 4408 307 4309 51 4288 
C 38 4236 51 4134 90 4096 
C 422 4077 499 4108 499 3576 
L 499 455 
C 499 204 493 89 474 0 
C 506 -52 538 -77 614 -77 
C 653 -39 717 19 768 76 
C 832 153 870 153 941 96 
C 1088 -26 1280 -64 1504 -64 
C 2157 -64 2918 532 2918 1552 
C 2918 2335 2342 2816 1786 2816 
C 1510 2816 1267 2707 1069 2527 
z
" transform="scale(0.015625)"/>
       <path id="LinLibertineT-72" d="M 1126 2298 
C 1114 2553 1107 2719 1075 2783 
C 1062 2816 1050 2835 998 2835 
C 819 2764 653 2707 211 2649 
C 198 2611 211 2508 224 2470 
C 570 2438 640 2406 640 2036 
L 640 791 
C 640 262 563 236 166 211 
C 128 172 128 38 166 0 
C 390 6 640 12 896 12 
C 1152 12 1446 6 1670 0 
C 1709 38 1709 172 1670 211 
C 1222 243 1146 262 1146 791 
L 1146 1679 
C 1146 1844 1222 1991 1299 2106 
C 1370 2208 1517 2419 1594 2419 
C 1651 2419 1709 2406 1760 2336 
C 1805 2272 1882 2189 1990 2189 
C 2144 2189 2291 2349 2291 2508 
C 2291 2630 2176 2816 1907 2816 
C 1606 2816 1344 2534 1197 2285 
C 1158 2215 1126 2266 1126 2298 
z
" transform="scale(0.015625)"/>
       <path id="LinLibertineT-76" d="M 2080 2540 
C 2426 2515 2464 2439 2330 2115 
L 1811 869 
C 1709 622 1677 622 1574 889 
L 1114 2115 
C 998 2420 973 2496 1312 2540 
C 1350 2579 1350 2713 1312 2752 
C 1101 2745 877 2739 666 2739 
C 454 2739 262 2745 70 2752 
C 32 2713 32 2579 70 2540 
C 410 2502 454 2401 582 2077 
L 1402 69 
C 1440 -26 1478 -64 1562 -64 
C 1626 -64 1670 -26 1715 82 
L 2566 2070 
C 2688 2350 2758 2509 3117 2540 
C 3155 2579 3155 2713 3117 2752 
C 2989 2745 2835 2739 2669 2739 
C 2458 2739 2240 2745 2080 2752 
C 2042 2713 2042 2579 2080 2540 
z
" transform="scale(0.015625)"/>
       <path id="LinLibertineT-74" d="M 275 2752 
C 186 2752 160 2675 160 2623 
L 160 2540 
C 160 2508 166 2502 192 2502 
L 570 2502 
L 570 570 
C 570 115 768 -64 1062 -64 
C 1357 -64 1677 76 1926 358 
C 1914 422 1875 461 1811 467 
C 1645 339 1453 288 1286 288 
C 1114 288 1075 480 1075 878 
L 1075 2502 
L 1741 2502 
C 1805 2502 1894 2527 1894 2585 
L 1894 2713 
C 1894 2739 1875 2752 1843 2752 
L 1075 2752 
L 1075 3001 
C 1075 3417 1101 3673 1101 3673 
C 1101 3712 1082 3731 1050 3731 
C 1024 3731 966 3705 909 3673 
C 838 3635 774 3603 691 3584 
C 614 3558 550 3539 550 3494 
C 550 3417 570 3462 570 2752 
L 275 2752 
z
" transform="scale(0.015625)"/>
      </defs>
      <use xlink:href="#LinLibertineT-4f" transform="scale(0.996264)"/>
      <use xlink:href="#LinLibertineT-62" transform="translate(69.9377 0)scale(0.996264)"/>
      <use xlink:href="#LinLibertineT-73" transform="translate(119.053519 0)scale(0.996264)"/>
      <use xlink:href="#LinLibertineT-65" transform="translate(157.907846 0)scale(0.996264)"/>
      <use xlink:href="#LinLibertineT-72" transform="translate(202.440798 0)scale(0.996264)"/>
      <use xlink:href="#LinLibertineT-76" transform="translate(240.996212 0)scale(0.996264)"/>
      <use xlink:href="#LinLibertineT-61" transform="translate(290.5105 0)scale(0.996264)"/>
      <use xlink:href="#LinLibertineT-74" transform="translate(336.039732 0)scale(0.996264)"/>
      <use xlink:href="#LinLibertineT-69" transform="translate(367.521666 0)scale(0.996264)"/>
      <use xlink:href="#LinLibertineT-6f" transform="translate(394.520411 0)scale(0.996264)"/>
      <use xlink:href="#LinLibertineT-6e" transform="translate(444.732081 0)scale(0.996264)"/>
      <use xlink:href="#LinLibertineT-52" transform="translate(523.636172 0)scale(0.996264)"/>
      <use xlink:href="#LinLibertineT-61" transform="translate(582.116851 0)scale(0.996264)"/>
      <use xlink:href="#LinLibertineT-74" transform="translate(627.646083 0)scale(0.996264)"/>
      <use xlink:href="#LinLibertineT-65" transform="translate(659.128017 0)scale(0.996264)"/>
     </g>
    </g>
   </g>
   <g id="matplotlib.axis_6">
    <g id="ytick_13">
     <g id="line2d_46">
      <path d="M 35.888139 286.698622 
L 233.02498 286.698622 
" clip-path="url(#p1f14b498d5)" style="fill: none; stroke: #cccccc; stroke-opacity: 0.5; stroke-width: 0.4; stroke-linecap: square"/>
     </g>
     <g id="line2d_47">
      <g>
       <use xlink:href="#m86c01624e1" x="35.888139" y="286.698622" style="fill: #333333; stroke: #333333; stroke-width: 0.6"/>
      </g>
     </g>
     <g id="text_32">
      <!-- $\mathdefault{0.0}$ -->
      <g style="fill: #333333" transform="translate(23.609961 289.143821)scale(0.07 -0.07)">
       <use xlink:href="#LinLibertineT-30" transform="scale(0.996264)"/>
       <use xlink:href="#LibertineMathMI-94" transform="translate(47.92029 0)scale(0.996264)"/>
       <use xlink:href="#LinLibertineT-30" transform="translate(71.531789 0)scale(0.996264)"/>
      </g>
     </g>
    </g>
    <g id="ytick_14">
     <g id="line2d_48">
      <path d="M 35.888139 263.450877 
L 233.02498 263.450877 
" clip-path="url(#p1f14b498d5)" style="fill: none; stroke: #cccccc; stroke-opacity: 0.5; stroke-width: 0.4; stroke-linecap: square"/>
     </g>
     <g id="line2d_49">
      <g>
       <use xlink:href="#m86c01624e1" x="35.888139" y="263.450877" style="fill: #333333; stroke: #333333; stroke-width: 0.6"/>
      </g>
     </g>
     <g id="text_33">
      <!-- $\mathdefault{0.2}$ -->
      <g style="fill: #333333" transform="translate(23.609961 265.896076)scale(0.07 -0.07)">
       <use xlink:href="#LinLibertineT-30" transform="scale(0.996264)"/>
       <use xlink:href="#LibertineMathMI-94" transform="translate(47.92029 0)scale(0.996264)"/>
       <use xlink:href="#LinLibertineT-32" transform="translate(71.531789 0)scale(0.996264)"/>
      </g>
     </g>
    </g>
    <g id="ytick_15">
     <g id="line2d_50">
      <path d="M 35.888139 240.203131 
L 233.02498 240.203131 
" clip-path="url(#p1f14b498d5)" style="fill: none; stroke: #cccccc; stroke-opacity: 0.5; stroke-width: 0.4; stroke-linecap: square"/>
     </g>
     <g id="line2d_51">
      <g>
       <use xlink:href="#m86c01624e1" x="35.888139" y="240.203131" style="fill: #333333; stroke: #333333; stroke-width: 0.6"/>
      </g>
     </g>
     <g id="text_34">
      <!-- $\mathdefault{0.4}$ -->
      <g style="fill: #333333" transform="translate(23.609961 242.64833)scale(0.07 -0.07)">
       <use xlink:href="#LinLibertineT-30" transform="scale(0.996264)"/>
       <use xlink:href="#LibertineMathMI-94" transform="translate(47.92029 0)scale(0.996264)"/>
       <use xlink:href="#LinLibertineT-34" transform="translate(71.531789 0)scale(0.996264)"/>
      </g>
     </g>
    </g>
    <g id="ytick_16">
     <g id="line2d_52">
      <path d="M 35.888139 216.955386 
L 233.02498 216.955386 
" clip-path="url(#p1f14b498d5)" style="fill: none; stroke: #cccccc; stroke-opacity: 0.5; stroke-width: 0.4; stroke-linecap: square"/>
     </g>
     <g id="line2d_53">
      <g>
       <use xlink:href="#m86c01624e1" x="35.888139" y="216.955386" style="fill: #333333; stroke: #333333; stroke-width: 0.6"/>
      </g>
     </g>
     <g id="text_35">
      <!-- $\mathdefault{0.6}$ -->
      <g style="fill: #333333" transform="translate(23.609961 219.400585)scale(0.07 -0.07)">
       <use xlink:href="#LinLibertineT-30" transform="scale(0.996264)"/>
       <use xlink:href="#LibertineMathMI-94" transform="translate(47.92029 0)scale(0.996264)"/>
       <use xlink:href="#LinLibertineT-36" transform="translate(71.531789 0)scale(0.996264)"/>
      </g>
     </g>
    </g>
    <g id="ytick_17">
     <g id="line2d_54">
      <path d="M 35.888139 193.707641 
L 233.02498 193.707641 
" clip-path="url(#p1f14b498d5)" style="fill: none; stroke: #cccccc; stroke-opacity: 0.5; stroke-width: 0.4; stroke-linecap: square"/>
     </g>
     <g id="line2d_55">
      <g>
       <use xlink:href="#m86c01624e1" x="35.888139" y="193.707641" style="fill: #333333; stroke: #333333; stroke-width: 0.6"/>
      </g>
     </g>
     <g id="text_36">
      <!-- $\mathdefault{0.8}$ -->
      <g style="fill: #333333" transform="translate(23.609961 196.15284)scale(0.07 -0.07)">
       <use xlink:href="#LinLibertineT-30" transform="scale(0.996264)"/>
       <use xlink:href="#LibertineMathMI-94" transform="translate(47.92029 0)scale(0.996264)"/>
       <use xlink:href="#LinLibertineT-38" transform="translate(71.531789 0)scale(0.996264)"/>
      </g>
     </g>
    </g>
    <g id="ytick_18">
     <g id="line2d_56">
      <path d="M 35.888139 170.459895 
L 233.02498 170.459895 
" clip-path="url(#p1f14b498d5)" style="fill: none; stroke: #cccccc; stroke-opacity: 0.5; stroke-width: 0.4; stroke-linecap: square"/>
     </g>
     <g id="line2d_57">
      <g>
       <use xlink:href="#m86c01624e1" x="35.888139" y="170.459895" style="fill: #333333; stroke: #333333; stroke-width: 0.6"/>
      </g>
     </g>
     <g id="text_37">
      <!-- $\mathdefault{1.0}$ -->
      <g style="fill: #333333" transform="translate(23.609961 172.905094)scale(0.07 -0.07)">
       <use xlink:href="#LinLibertineT-31" transform="scale(0.996264)"/>
       <use xlink:href="#LibertineMathMI-94" transform="translate(47.92029 0)scale(0.996264)"/>
       <use xlink:href="#LinLibertineT-30" transform="translate(71.531789 0)scale(0.996264)"/>
      </g>
     </g>
    </g>
    <g id="text_38">
     <!-- Routing -->
     <g style="fill: #333333" transform="translate(9.149198 236.885125)rotate(-90)scale(0.08 -0.08)">
      <defs>
       <path id="LinLibertineT-75" d="M 1389 -64 
C 1638 -64 1939 64 2253 319 
C 2285 345 2342 358 2349 313 
C 2368 153 2419 -64 2419 -64 
C 2470 -84 2502 -77 2541 -64 
C 2682 51 2906 147 3296 192 
C 3334 230 3334 326 3296 364 
C 2886 396 2829 517 2829 830 
L 2829 2055 
C 2829 2247 2854 2713 2854 2713 
C 2854 2732 2835 2752 2803 2752 
C 2771 2745 2675 2739 2579 2739 
C 2374 2739 2144 2745 1926 2752 
C 1888 2713 1888 2579 1926 2540 
C 2240 2521 2323 2444 2323 2023 
L 2323 792 
C 2323 670 2310 619 2221 543 
C 1984 338 1741 236 1581 236 
C 1389 236 1069 326 1069 894 
L 1069 2055 
C 1069 2247 1094 2713 1094 2713 
C 1094 2732 1075 2752 1043 2752 
C 1011 2745 915 2739 819 2739 
C 614 2739 384 2745 166 2752 
C 128 2713 128 2579 166 2540 
C 474 2515 563 2444 563 2030 
L 563 804 
C 563 364 755 -64 1389 -64 
z
" transform="scale(0.015625)"/>
       <path id="LinLibertineT-67" d="M 2042 1798 
C 2042 1208 1741 1088 1504 1088 
C 966 1088 909 1538 909 1944 
C 909 2389 1069 2617 1421 2617 
C 1824 2617 2042 2325 2042 1798 
z
M 845 -52 
C 915 -71 1018 -84 1101 -84 
C 1299 -84 1478 -64 1568 -64 
C 1888 -64 2157 -71 2342 -176 
C 2592 -319 2669 -411 2669 -581 
C 2669 -1051 1990 -1300 1414 -1300 
C 1184 -1300 646 -1110 646 -666 
C 646 -444 659 -280 845 -52 
z
M 2842 2484 
C 2963 2484 3078 2598 3078 2726 
C 3078 2860 2957 2963 2784 2963 
C 2618 2963 2310 2854 2144 2636 
C 2067 2687 1856 2816 1478 2816 
C 909 2816 384 2433 384 1849 
C 384 1506 538 1310 717 1138 
C 538 985 435 708 435 488 
C 435 256 563 76 730 -7 
C 384 -215 205 -515 205 -796 
C 205 -1364 730 -1536 1222 -1536 
C 2086 -1536 3021 -1117 3021 -411 
C 3021 -202 2925 -39 2739 115 
C 2490 320 2042 326 1805 326 
C 1690 326 1530 313 1376 294 
C 1280 288 1216 281 1184 281 
C 998 281 774 371 774 650 
C 774 779 813 915 890 1023 
C 1043 934 1222 889 1472 889 
C 2035 889 2554 1240 2554 1862 
C 2554 2160 2464 2331 2278 2522 
C 2323 2585 2451 2675 2534 2675 
C 2579 2675 2624 2655 2662 2598 
C 2688 2547 2771 2484 2842 2484 
z
" transform="scale(0.015625)"/>
      </defs>
      <use xlink:href="#LinLibertineT-52" transform="scale(0.996264)"/>
      <use xlink:href="#LinLibertineT-6f" transform="translate(58.480679 0)scale(0.996264)"/>
      <use xlink:href="#LinLibertineT-75" transform="translate(108.692349 0)scale(0.996264)"/>
      <use xlink:href="#LinLibertineT-74" transform="translate(161.593974 0)scale(0.996264)"/>
      <use xlink:href="#LinLibertineT-69" transform="translate(193.075907 0)scale(0.996264)"/>
      <use xlink:href="#LinLibertineT-6e" transform="translate(220.074653 0)scale(0.996264)"/>
      <use xlink:href="#LinLibertineT-67" transform="translate(274.072144 0)scale(0.996264)"/>
     </g>
     <!-- Kendall $\tau$ -->
     <g style="fill: #333333" transform="translate(17.752926 238.857708)rotate(-90)scale(0.08 -0.08)">
      <use xlink:href="#LinLibertineT-4b" transform="scale(0.996264)"/>
      <use xlink:href="#LinLibertineT-65" transform="translate(61.469441 0)scale(0.996264)"/>
      <use xlink:href="#LinLibertineT-6e" transform="translate(106.002393 0)scale(0.996264)"/>
      <use xlink:href="#LinLibertineT-64" transform="translate(159.999884 0)scale(0.996264)"/>
      <use xlink:href="#LinLibertineT-61" transform="translate(210.410789 0)scale(0.996264)"/>
      <use xlink:href="#LinLibertineT-6c" transform="translate(255.94002 0)scale(0.996264)"/>
      <use xlink:href="#LinLibertineT-6c" transform="translate(282.241384 0)scale(0.996264)"/>
      <use xlink:href="#LibertineMathMI-67" transform="translate(328.966145 0)scale(0.996264)"/>
     </g>
    </g>
   </g>
   <g id="PolyCollection_7">
    <defs>
     <path id="m4fe8f82bb1" d="M 49.969342 -116.312876 
L 49.969342 -96.097819 
L 106.294154 -122.897696 
L 134.45656 -120.782825 
L 162.618966 -130.556386 
L 218.943777 -137.425481 
L 218.943777 -141.300105 
L 218.943777 -141.300105 
L 162.618966 -136.157865 
L 134.45656 -134.644044 
L 106.294154 -132.686758 
L 49.969342 -116.312876 
z
"/>
    </defs>
    <g clip-path="url(#p1f14b498d5)">
     <use xlink:href="#m4fe8f82bb1" x="0" y="311.76" style="fill: #59a257; fill-opacity: 0.15"/>
    </g>
   </g>
   <g id="PolyCollection_8">
    <defs>
     <path id="m36bcb532d8" d="M 49.969342 -14.721889 
L 49.969342 18.431173 
L 106.294154 -71.191188 
L 134.45656 -74.381948 
L 162.618966 -90.208292 
L 218.943777 -135.303262 
L 218.943777 -139.5477 
L 218.943777 -139.5477 
L 162.618966 -127.879424 
L 134.45656 -110.190269 
L 106.294154 -105.631781 
L 49.969342 -14.721889 
z
"/>
    </defs>
    <g clip-path="url(#p1f14b498d5)">
     <use xlink:href="#m36bcb532d8" x="0" y="311.76" style="fill: #d4682c; fill-opacity: 0.15"/>
    </g>
   </g>
   <g id="PolyCollection_9">
    <defs>
     <path id="me680697435" d="M 49.969342 -115.515915 
L 49.969342 -98.259896 
L 106.294154 -114.883087 
L 134.45656 -114.631795 
L 162.618966 -121.711294 
L 218.943777 -137.179501 
L 218.943777 -139.027579 
L 218.943777 -139.027579 
L 162.618966 -130.279384 
L 134.45656 -124.322235 
L 106.294154 -124.028298 
L 49.969342 -115.515915 
z
"/>
    </defs>
    <g clip-path="url(#p1f14b498d5)">
     <use xlink:href="#me680697435" x="0" y="311.76" style="fill: #4878a6; fill-opacity: 0.15"/>
    </g>
   </g>
   <g id="line2d_58">
    <path d="M 49.969342 205.554652 
L 106.294154 183.967773 
L 134.45656 184.046565 
L 162.618966 178.402875 
L 218.943777 172.397207 
" clip-path="url(#p1f14b498d5)" style="fill: none; stroke: #59a257; stroke-width: 1.2; stroke-linecap: square"/>
    <g clip-path="url(#p1f14b498d5)">
     <use xlink:href="#mae2b4a94d1" x="49.969342" y="205.554652" style="fill: #59a257"/>
     <use xlink:href="#mae2b4a94d1" x="106.294154" y="183.967773" style="fill: #59a257"/>
     <use xlink:href="#mae2b4a94d1" x="134.45656" y="184.046565" style="fill: #59a257"/>
     <use xlink:href="#mae2b4a94d1" x="162.618966" y="178.402875" style="fill: #59a257"/>
     <use xlink:href="#mae2b4a94d1" x="218.943777" y="172.397207" style="fill: #59a257"/>
    </g>
   </g>
   <g id="line2d_59">
    <path d="M 50.502627 312.76 
L 106.294154 223.348516 
L 134.45656 219.473892 
L 162.618966 202.716142 
L 218.943777 174.334519 
" clip-path="url(#p1f14b498d5)" style="fill: none; stroke: #d4682c; stroke-width: 1.2; stroke-linecap: square"/>
    <g clip-path="url(#p1f14b498d5)">
     <use xlink:href="#m459c5707b4" x="49.969342" y="313.614642" style="fill: #d4682c"/>
     <use xlink:href="#m459c5707b4" x="106.294154" y="223.348516" style="fill: #d4682c"/>
     <use xlink:href="#m459c5707b4" x="134.45656" y="219.473892" style="fill: #d4682c"/>
     <use xlink:href="#m459c5707b4" x="162.618966" y="202.716142" style="fill: #d4682c"/>
     <use xlink:href="#m459c5707b4" x="218.943777" y="174.334519" style="fill: #d4682c"/>
    </g>
   </g>
   <g id="line2d_60">
    <path d="M 49.969342 204.872094 
L 106.294154 192.304307 
L 134.45656 192.282985 
L 162.618966 185.764661 
L 218.943777 173.65646 
" clip-path="url(#p1f14b498d5)" style="fill: none; stroke: #4878a6; stroke-width: 1.2; stroke-linecap: square"/>
    <g clip-path="url(#p1f14b498d5)">
     <use xlink:href="#m8ac53bdaee" x="49.969342" y="204.872094" style="fill: #4878a6"/>
     <use xlink:href="#m8ac53bdaee" x="106.294154" y="192.304307" style="fill: #4878a6"/>
     <use xlink:href="#m8ac53bdaee" x="134.45656" y="192.282985" style="fill: #4878a6"/>
     <use xlink:href="#m8ac53bdaee" x="162.618966" y="185.764661" style="fill: #4878a6"/>
     <use xlink:href="#m8ac53bdaee" x="218.943777" y="173.65646" style="fill: #4878a6"/>
    </g>
   </g>
   <g id="patch_9">
    <path d="M 35.888139 286.698622 
L 35.888139 161.160797 
" style="fill: none; stroke: #333333; stroke-width: 0.6; stroke-linejoin: miter; stroke-linecap: square"/>
   </g>
   <g id="patch_10">
    <path d="M 35.888139 286.698622 
L 233.02498 286.698622 
" style="fill: none; stroke: #333333; stroke-width: 0.6; stroke-linejoin: miter; stroke-linecap: square"/>
   </g>
  </g>
  <g id="axes_4">
   <g id="patch_11">
    <path d="M 255.023158 286.698622 
L 452.16 286.698622 
L 452.16 161.160797 
L 255.023158 161.160797 
z
" style="fill: #ffffff"/>
   </g>
   <g id="matplotlib.axis_7">
    <g id="xtick_13">
     <g id="line2d_61">
      <g>
       <use xlink:href="#m41bc81ee7d" x="269.104361" y="286.698622" style="fill: #333333; stroke: #333333; stroke-width: 0.6"/>
      </g>
     </g>
     <g id="text_39">
      <!-- $\mathdefault{0.3}$ -->
      <g style="fill: #333333" transform="translate(264.715272 295.08902)scale(0.07 -0.07)">
       <use xlink:href="#LinLibertineT-30" transform="scale(0.996264)"/>
       <use xlink:href="#LibertineMathMI-94" transform="translate(47.92029 0)scale(0.996264)"/>
       <use xlink:href="#LinLibertineT-33" transform="translate(71.531789 0)scale(0.996264)"/>
      </g>
     </g>
    </g>
    <g id="xtick_14">
     <g id="line2d_62">
      <g>
       <use xlink:href="#m41bc81ee7d" x="325.429173" y="286.698622" style="fill: #333333; stroke: #333333; stroke-width: 0.6"/>
      </g>
     </g>
     <g id="text_40">
      <!-- $\mathdefault{0.5}$ -->
      <g style="fill: #333333" transform="translate(321.040084 295.08902)scale(0.07 -0.07)">
       <use xlink:href="#LinLibertineT-30" transform="scale(0.996264)"/>
       <use xlink:href="#LibertineMathMI-94" transform="translate(47.92029 0)scale(0.996264)"/>
       <use xlink:href="#LinLibertineT-35" transform="translate(71.531789 0)scale(0.996264)"/>
      </g>
     </g>
    </g>
    <g id="xtick_15">
     <g id="line2d_63">
      <g>
       <use xlink:href="#m41bc81ee7d" x="381.753985" y="286.698622" style="fill: #333333; stroke: #333333; stroke-width: 0.6"/>
      </g>
     </g>
     <g id="text_41">
      <!-- $\mathdefault{0.7}$ -->
      <g style="fill: #333333" transform="translate(377.364896 295.08902)scale(0.07 -0.07)">
       <use xlink:href="#LinLibertineT-30" transform="scale(0.996264)"/>
       <use xlink:href="#LibertineMathMI-94" transform="translate(47.92029 0)scale(0.996264)"/>
       <use xlink:href="#LinLibertineT-37" transform="translate(71.531789 0)scale(0.996264)"/>
      </g>
     </g>
    </g>
    <g id="xtick_16">
     <g id="line2d_64">
      <g>
       <use xlink:href="#m41bc81ee7d" x="438.078797" y="286.698622" style="fill: #333333; stroke: #333333; stroke-width: 0.6"/>
      </g>
     </g>
     <g id="text_42">
      <!-- $\mathdefault{0.9}$ -->
      <g style="fill: #333333" transform="translate(433.689708 295.08902)scale(0.07 -0.07)">
       <use xlink:href="#LinLibertineT-30" transform="scale(0.996264)"/>
       <use xlink:href="#LibertineMathMI-94" transform="translate(47.92029 0)scale(0.996264)"/>
       <use xlink:href="#LinLibertineT-39" transform="translate(71.531789 0)scale(0.996264)"/>
      </g>
     </g>
    </g>
    <g id="text_43">
     <!-- Observation Rate -->
     <g style="fill: #333333" transform="translate(325.44516 306.302965)scale(0.08 -0.08)">
      <use xlink:href="#LinLibertineT-4f" transform="scale(0.996264)"/>
      <use xlink:href="#LinLibertineT-62" transform="translate(69.9377 0)scale(0.996264)"/>
      <use xlink:href="#LinLibertineT-73" transform="translate(119.053519 0)scale(0.996264)"/>
      <use xlink:href="#LinLibertineT-65" transform="translate(157.907846 0)scale(0.996264)"/>
      <use xlink:href="#LinLibertineT-72" transform="translate(202.440798 0)scale(0.996264)"/>
      <use xlink:href="#LinLibertineT-76" transform="translate(240.996212 0)scale(0.996264)"/>
      <use xlink:href="#LinLibertineT-61" transform="translate(290.5105 0)scale(0.996264)"/>
      <use xlink:href="#LinLibertineT-74" transform="translate(336.039732 0)scale(0.996264)"/>
      <use xlink:href="#LinLibertineT-69" transform="translate(367.521666 0)scale(0.996264)"/>
      <use xlink:href="#LinLibertineT-6f" transform="translate(394.520411 0)scale(0.996264)"/>
      <use xlink:href="#LinLibertineT-6e" transform="translate(444.732081 0)scale(0.996264)"/>
      <use xlink:href="#LinLibertineT-52" transform="translate(523.636172 0)scale(0.996264)"/>
      <use xlink:href="#LinLibertineT-61" transform="translate(582.116851 0)scale(0.996264)"/>
      <use xlink:href="#LinLibertineT-74" transform="translate(627.646083 0)scale(0.996264)"/>
      <use xlink:href="#LinLibertineT-65" transform="translate(659.128017 0)scale(0.996264)"/>
     </g>
    </g>
   </g>
   <g id="matplotlib.axis_8">
    <g id="ytick_19">
     <g id="line2d_65">
      <path d="M 255.023158 286.698622 
L 452.16 286.698622 
" clip-path="url(#p0fe3b07de2)" style="fill: none; stroke: #cccccc; stroke-opacity: 0.5; stroke-width: 0.4; stroke-linecap: square"/>
     </g>
     <g id="line2d_66">
      <g>
       <use xlink:href="#m86c01624e1" x="255.023158" y="286.698622" style="fill: #333333; stroke: #333333; stroke-width: 0.6"/>
      </g>
     </g>
     <g id="text_44">
      <!-- $\mathdefault{0.0}$ -->
      <g style="fill: #333333" transform="translate(242.74498 289.143821)scale(0.07 -0.07)">
       <use xlink:href="#LinLibertineT-30" transform="scale(0.996264)"/>
       <use xlink:href="#LibertineMathMI-94" transform="translate(47.92029 0)scale(0.996264)"/>
       <use xlink:href="#LinLibertineT-30" transform="translate(71.531789 0)scale(0.996264)"/>
      </g>
     </g>
    </g>
    <g id="ytick_20">
     <g id="line2d_67">
      <path d="M 255.023158 263.450877 
L 452.16 263.450877 
" clip-path="url(#p0fe3b07de2)" style="fill: none; stroke: #cccccc; stroke-opacity: 0.5; stroke-width: 0.4; stroke-linecap: square"/>
     </g>
     <g id="line2d_68">
      <g>
       <use xlink:href="#m86c01624e1" x="255.023158" y="263.450877" style="fill: #333333; stroke: #333333; stroke-width: 0.6"/>
      </g>
     </g>
     <g id="text_45">
      <!-- $\mathdefault{0.2}$ -->
      <g style="fill: #333333" transform="translate(242.74498 265.896076)scale(0.07 -0.07)">
       <use xlink:href="#LinLibertineT-30" transform="scale(0.996264)"/>
       <use xlink:href="#LibertineMathMI-94" transform="translate(47.92029 0)scale(0.996264)"/>
       <use xlink:href="#LinLibertineT-32" transform="translate(71.531789 0)scale(0.996264)"/>
      </g>
     </g>
    </g>
    <g id="ytick_21">
     <g id="line2d_69">
      <path d="M 255.023158 240.203131 
L 452.16 240.203131 
" clip-path="url(#p0fe3b07de2)" style="fill: none; stroke: #cccccc; stroke-opacity: 0.5; stroke-width: 0.4; stroke-linecap: square"/>
     </g>
     <g id="line2d_70">
      <g>
       <use xlink:href="#m86c01624e1" x="255.023158" y="240.203131" style="fill: #333333; stroke: #333333; stroke-width: 0.6"/>
      </g>
     </g>
     <g id="text_46">
      <!-- $\mathdefault{0.4}$ -->
      <g style="fill: #333333" transform="translate(242.74498 242.64833)scale(0.07 -0.07)">
       <use xlink:href="#LinLibertineT-30" transform="scale(0.996264)"/>
       <use xlink:href="#LibertineMathMI-94" transform="translate(47.92029 0)scale(0.996264)"/>
       <use xlink:href="#LinLibertineT-34" transform="translate(71.531789 0)scale(0.996264)"/>
      </g>
     </g>
    </g>
    <g id="ytick_22">
     <g id="line2d_71">
      <path d="M 255.023158 216.955386 
L 452.16 216.955386 
" clip-path="url(#p0fe3b07de2)" style="fill: none; stroke: #cccccc; stroke-opacity: 0.5; stroke-width: 0.4; stroke-linecap: square"/>
     </g>
     <g id="line2d_72">
      <g>
       <use xlink:href="#m86c01624e1" x="255.023158" y="216.955386" style="fill: #333333; stroke: #333333; stroke-width: 0.6"/>
      </g>
     </g>
     <g id="text_47">
      <!-- $\mathdefault{0.6}$ -->
      <g style="fill: #333333" transform="translate(242.74498 219.400585)scale(0.07 -0.07)">
       <use xlink:href="#LinLibertineT-30" transform="scale(0.996264)"/>
       <use xlink:href="#LibertineMathMI-94" transform="translate(47.92029 0)scale(0.996264)"/>
       <use xlink:href="#LinLibertineT-36" transform="translate(71.531789 0)scale(0.996264)"/>
      </g>
     </g>
    </g>
    <g id="ytick_23">
     <g id="line2d_73">
      <path d="M 255.023158 193.707641 
L 452.16 193.707641 
" clip-path="url(#p0fe3b07de2)" style="fill: none; stroke: #cccccc; stroke-opacity: 0.5; stroke-width: 0.4; stroke-linecap: square"/>
     </g>
     <g id="line2d_74">
      <g>
       <use xlink:href="#m86c01624e1" x="255.023158" y="193.707641" style="fill: #333333; stroke: #333333; stroke-width: 0.6"/>
      </g>
     </g>
     <g id="text_48">
      <!-- $\mathdefault{0.8}$ -->
      <g style="fill: #333333" transform="translate(242.74498 196.15284)scale(0.07 -0.07)">
       <use xlink:href="#LinLibertineT-30" transform="scale(0.996264)"/>
       <use xlink:href="#LibertineMathMI-94" transform="translate(47.92029 0)scale(0.996264)"/>
       <use xlink:href="#LinLibertineT-38" transform="translate(71.531789 0)scale(0.996264)"/>
      </g>
     </g>
    </g>
    <g id="ytick_24">
     <g id="line2d_75">
      <path d="M 255.023158 170.459895 
L 452.16 170.459895 
" clip-path="url(#p0fe3b07de2)" style="fill: none; stroke: #cccccc; stroke-opacity: 0.5; stroke-width: 0.4; stroke-linecap: square"/>
     </g>
     <g id="line2d_76">
      <g>
       <use xlink:href="#m86c01624e1" x="255.023158" y="170.459895" style="fill: #333333; stroke: #333333; stroke-width: 0.6"/>
      </g>
     </g>
     <g id="text_49">
      <!-- $\mathdefault{1.0}$ -->
      <g style="fill: #333333" transform="translate(242.74498 172.905094)scale(0.07 -0.07)">
       <use xlink:href="#LinLibertineT-31" transform="scale(0.996264)"/>
       <use xlink:href="#LibertineMathMI-94" transform="translate(47.92029 0)scale(0.996264)"/>
       <use xlink:href="#LinLibertineT-30" transform="translate(71.531789 0)scale(0.996264)"/>
      </g>
     </g>
    </g>
   </g>
   <g id="PolyCollection_10">
    <defs>
     <path id="m4c95fc48e7" d="M 269.104361 -132.264386 
L 269.104361 -113.153699 
L 325.429173 -130.216047 
L 353.591579 -130.180501 
L 381.753985 -133.583012 
L 438.078797 -137.837265 
L 438.078797 -141.945037 
L 438.078797 -141.945037 
L 381.753985 -141.26795 
L 353.591579 -139.60215 
L 325.429173 -139.856084 
L 269.104361 -132.264386 
z
"/>
    </defs>
    <g clip-path="url(#p0fe3b07de2)">
     <use xlink:href="#m4c95fc48e7" x="0" y="311.76" style="fill: #59a257; fill-opacity: 0.15"/>
    </g>
   </g>
   <g id="PolyCollection_11">
    <defs>
     <path id="m5fdc0b6172" d="M 269.104361 -7.861013 
L 269.104361 41.267374 
L 325.429173 -82.816445 
L 353.591579 -104.616577 
L 381.753985 -107.535695 
L 438.078797 -124.053011 
L 438.078797 -133.890499 
L 438.078797 -133.890499 
L 381.753985 -122.22873 
L 353.591579 -120.568746 
L 325.429173 -108.553975 
L 269.104361 -7.861013 
z
"/>
    </defs>
    <g clip-path="url(#p0fe3b07de2)">
     <use xlink:href="#m5fdc0b6172" x="0" y="311.76" style="fill: #d4682c; fill-opacity: 0.15"/>
    </g>
   </g>
   <g id="PolyCollection_12">
    <defs>
     <path id="m23e76fd26b" d="M 269.104361 -130.094531 
L 269.104361 -110.236204 
L 325.429173 -128.584365 
L 353.591579 -130.447914 
L 381.753985 -134.211642 
L 438.078797 -141.300105 
L 438.078797 -141.300105 
L 438.078797 -141.300105 
L 381.753985 -139.934842 
L 353.591579 -137.218606 
L 325.429173 -136.897867 
L 269.104361 -130.094531 
z
"/>
    </defs>
    <g clip-path="url(#p0fe3b07de2)">
     <use xlink:href="#m23e76fd26b" x="0" y="311.76" style="fill: #4878a6; fill-opacity: 0.15"/>
    </g>
   </g>
   <g id="line2d_77">
    <path d="M 269.104361 189.050957 
L 325.429173 176.723935 
L 353.591579 176.868675 
L 381.753985 174.334519 
L 438.078797 171.868849 
" clip-path="url(#p0fe3b07de2)" style="fill: none; stroke: #59a257; stroke-width: 1.2; stroke-linecap: square"/>
    <g clip-path="url(#p0fe3b07de2)">
     <use xlink:href="#mae2b4a94d1" x="269.104361" y="189.050957" style="fill: #59a257"/>
     <use xlink:href="#mae2b4a94d1" x="325.429173" y="176.723935" style="fill: #59a257"/>
     <use xlink:href="#mae2b4a94d1" x="353.591579" y="176.868675" style="fill: #59a257"/>
     <use xlink:href="#mae2b4a94d1" x="381.753985" y="174.334519" style="fill: #59a257"/>
     <use xlink:href="#mae2b4a94d1" x="438.078797" y="171.868849" style="fill: #59a257"/>
    </g>
   </g>
   <g id="line2d_78">
    <path d="M 276.974202 312.76 
L 325.429173 216.07479 
L 353.591579 199.167338 
L 381.753985 196.877788 
L 438.078797 182.788245 
" clip-path="url(#p0fe3b07de2)" style="fill: none; stroke: #d4682c; stroke-width: 1.2; stroke-linecap: square"/>
    <g clip-path="url(#p0fe3b07de2)">
     <use xlink:href="#m459c5707b4" x="269.104361" y="328.46318" style="fill: #d4682c"/>
     <use xlink:href="#m459c5707b4" x="325.429173" y="216.07479" style="fill: #d4682c"/>
     <use xlink:href="#m459c5707b4" x="353.591579" y="199.167338" style="fill: #d4682c"/>
     <use xlink:href="#m459c5707b4" x="381.753985" y="196.877788" style="fill: #d4682c"/>
     <use xlink:href="#m459c5707b4" x="438.078797" y="182.788245" style="fill: #d4682c"/>
    </g>
   </g>
   <g id="line2d_79">
    <path d="M 269.104361 191.594633 
L 325.429173 179.018884 
L 353.591579 177.92674 
L 381.753985 174.686758 
L 438.078797 170.459895 
" clip-path="url(#p0fe3b07de2)" style="fill: none; stroke: #4878a6; stroke-width: 1.2; stroke-linecap: square"/>
    <g clip-path="url(#p0fe3b07de2)">
     <use xlink:href="#m8ac53bdaee" x="269.104361" y="191.594633" style="fill: #4878a6"/>
     <use xlink:href="#m8ac53bdaee" x="325.429173" y="179.018884" style="fill: #4878a6"/>
     <use xlink:href="#m8ac53bdaee" x="353.591579" y="177.92674" style="fill: #4878a6"/>
     <use xlink:href="#m8ac53bdaee" x="381.753985" y="174.686758" style="fill: #4878a6"/>
     <use xlink:href="#m8ac53bdaee" x="438.078797" y="170.459895" style="fill: #4878a6"/>
    </g>
   </g>
   <g id="patch_12">
    <path d="M 255.023158 286.698622 
L 255.023158 161.160797 
" style="fill: none; stroke: #333333; stroke-width: 0.6; stroke-linejoin: miter; stroke-linecap: square"/>
   </g>
   <g id="patch_13">
    <path d="M 255.023158 286.698622 
L 452.16 286.698622 
" style="fill: none; stroke: #333333; stroke-width: 0.6; stroke-linejoin: miter; stroke-linecap: square"/>
   </g>
  </g>
 </g>
 <defs>
  <clipPath id="pcaca1b4e06">
   <rect x="35.888139" y="15.88767" width="197.136842" height="125.537825"/>
  </clipPath>
  <clipPath id="p15b9fb81cd">
   <rect x="255.023158" y="15.88767" width="197.136842" height="125.537825"/>
  </clipPath>
  <clipPath id="p1f14b498d5">
   <rect x="35.888139" y="161.160797" width="197.136842" height="125.537825"/>
  </clipPath>
  <clipPath id="p0fe3b07de2">
   <rect x="255.023158" y="161.160797" width="197.136842" height="125.537825"/>
  </clipPath>
 </defs>
</svg>
