<?xml version="1.0" encoding="utf-8" standalone="no"?>
<!DOCTYPE svg PUBLIC "-//W3C//DTD SVG 1.1//EN"
  "http://www.w3.org/Graphics/SVG/1.1/DTD/svg11.dtd">
<svg xmlns:xlink="http://www.w3.org/1999/xlink" width="253.19952pt" height="190.19952pt" viewBox="0 0 253.19952 190.19952" xmlns="http://www.w3.org/2000/svg" version="1.1">
 <metadata>
  <rdf:RDF xmlns:dc="http://purl.org/dc/elements/1.1/" xmlns:cc="http://creativecommons.org/ns#" xmlns:rdf="http://www.w3.org/1999/02/22-rdf-syntax-ns#">
   <cc:Work>
    <dc:type rdf:resource="http://purl.org/dc/dcmitype/StillImage"/>
    <dc:date>2026-02-05T14:42:14.435700</dc:date>
    <dc:format>image/svg+xml</dc:format>
    <dc:creator>
     <cc:Agent>
      <dc:title>Matplotlib v3.5.1, https://matplotlib.org/</dc:title>
     </cc:Agent>
    </dc:creator>
   </cc:Work>
  </rdf:RDF>
 </metadata>
 <defs>
  <style type="text/css">*{stroke-linejoin: round; stroke-linecap: butt}</style>
 </defs>
 <g id="figure_1">
  <g id="patch_1">
   <path d="M 0 190.19952 
L 253.19952 190.19952 
L 253.19952 0 
L 0 0 
z
" style="fill: #ffffff"/>
  </g>
  <g id="axes_1">
   <g id="patch_2">
    <path d="M 29.096752 163.276623 
L 249.59952 163.276623 
L 249.59952 3.6 
L 29.096752 3.6 
z
" style="fill: #ffffff"/>
   </g>
   <g id="matplotlib.axis_1">
    <g id="xtick_1">
     <g id="line2d_1">
      <defs>
       <path id="m323a5eedf5" d="M 0 0 
L 0 -3 
" style="stroke: #333333; stroke-width: 0.6"/>
      </defs>
      <g>
       <use xlink:href="#m323a5eedf5" x="44.846949" y="163.276623" style="fill: #333333; stroke: #333333; stroke-width: 0.6"/>
      </g>
     </g>
     <g id="text_1">
      <!-- $\mathdefault{0.3}$ -->
      <g style="fill: #333333" transform="translate(40.036984 172.365665)scale(0.08 -0.08)">
       <defs>
        <path id="LinLibertineT-30" d="M 1485 3679 
C 1594 3679 1696 3641 1773 3571 
C 1971 3405 2144 2918 2144 2060 
C 2144 1472 2125 1068 2035 742 
C 1894 217 1581 160 1466 160 
C 870 160 806 1254 806 1811 
C 806 3385 1197 3679 1485 3679 
z
M 1459 -64 
C 1952 -64 2701 435 2701 1939 
C 2701 2572 2547 3116 2266 3488 
C 2099 3711 1830 3904 1485 3904 
C 851 3904 250 3148 250 1881 
C 250 1196 461 556 813 204 
C 992 25 1210 -64 1459 -64 
z
" transform="scale(0.015625)"/>
        <path id="LibertineMathMI-94" d="M 365 275 
C 365 89 518 -64 704 -64 
C 890 -64 1043 89 1043 275 
C 1043 460 890 614 704 614 
C 518 614 365 460 365 275 
z
" transform="scale(0.015625)"/>
        <path id="LinLibertineT-33" d="M 1376 3679 
C 1651 3679 1907 3512 1907 3098 
C 1907 2776 1536 2279 902 2188 
L 934 1984 
C 1043 1996 1158 1996 1242 1996 
C 1606 1996 2080 1895 2080 1176 
C 2080 331 1510 160 1286 160 
C 960 160 902 306 826 420 
C 762 509 678 585 550 585 
C 416 585 282 465 282 363 
C 282 108 819 -64 1203 -64 
C 1965 -64 2643 426 2643 1265 
C 2643 1958 2118 2208 1741 2272 
L 1734 2285 
C 2259 2537 2406 2802 2406 3144 
C 2406 3337 2362 3492 2208 3654 
C 2067 3795 1843 3904 1510 3904 
C 570 3904 301 3286 301 3073 
C 301 2982 365 2853 518 2853 
C 742 2853 768 3066 768 3189 
C 768 3602 1210 3679 1376 3679 
z
" transform="scale(0.015625)"/>
       </defs>
       <use xlink:href="#LinLibertineT-30" transform="scale(0.996264)"/>
       <use xlink:href="#LibertineMathMI-94" transform="translate(47.92029 0)scale(0.996264)"/>
       <use xlink:href="#LinLibertineT-33" transform="translate(71.531789 0)scale(0.996264)"/>
      </g>
     </g>
    </g>
    <g id="xtick_2">
     <g id="line2d_2">
      <g>
       <use xlink:href="#m323a5eedf5" x="107.84774" y="163.276623" style="fill: #333333; stroke: #333333; stroke-width: 0.6"/>
      </g>
     </g>
     <g id="text_2">
      <!-- $\mathdefault{0.5}$ -->
      <g style="fill: #333333" transform="translate(103.037775 172.365665)scale(0.08 -0.08)">
       <defs>
        <path id="LinLibertineT-35" d="M 2042 1209 
C 2042 605 1722 160 1338 160 
C 1094 160 1011 318 915 446 
C 832 554 723 649 589 649 
C 467 649 346 541 346 414 
C 346 153 890 -64 1254 -64 
C 2048 -64 2611 522 2611 1323 
C 2611 1940 2182 2496 1466 2496 
C 1190 2496 954 2438 838 2393 
L 966 3468 
C 1203 3443 1408 3411 1715 3411 
C 1907 3404 2125 3417 2387 3443 
L 2490 3878 
L 2445 3904 
C 2080 3872 1734 3840 1395 3840 
C 1158 3840 928 3852 704 3872 
L 486 2023 
C 826 2150 1069 2176 1299 2176 
C 1715 2176 2042 1902 2042 1209 
z
" transform="scale(0.015625)"/>
       </defs>
       <use xlink:href="#LinLibertineT-30" transform="scale(0.996264)"/>
       <use xlink:href="#LibertineMathMI-94" transform="translate(47.92029 0)scale(0.996264)"/>
       <use xlink:href="#LinLibertineT-35" transform="translate(71.531789 0)scale(0.996264)"/>
      </g>
     </g>
    </g>
    <g id="xtick_3">
     <g id="line2d_3">
      <g>
       <use xlink:href="#m323a5eedf5" x="170.848531" y="163.276623" style="fill: #333333; stroke: #333333; stroke-width: 0.6"/>
      </g>
     </g>
     <g id="text_3">
      <!-- $\mathdefault{0.7}$ -->
      <g style="fill: #333333" transform="translate(166.038566 172.365665)scale(0.08 -0.08)">
       <defs>
        <path id="LinLibertineT-37" d="M 1088 3423 
L 2234 3423 
C 1734 2189 1229 948 794 -20 
L 845 -64 
L 1280 -45 
C 1645 1037 1997 2093 2714 3833 
L 2611 3904 
C 2502 3878 2362 3840 2118 3840 
L 800 3840 
C 582 3840 595 3904 480 3929 
C 461 3923 454 3923 454 3904 
C 448 3599 378 3217 326 2886 
C 397 2867 461 2861 531 2867 
C 672 3379 883 3423 1088 3423 
z
" transform="scale(0.015625)"/>
       </defs>
       <use xlink:href="#LinLibertineT-30" transform="scale(0.996264)"/>
       <use xlink:href="#LibertineMathMI-94" transform="translate(47.92029 0)scale(0.996264)"/>
       <use xlink:href="#LinLibertineT-37" transform="translate(71.531789 0)scale(0.996264)"/>
      </g>
     </g>
    </g>
    <g id="xtick_4">
     <g id="line2d_4">
      <g>
       <use xlink:href="#m323a5eedf5" x="233.849322" y="163.276623" style="fill: #333333; stroke: #333333; stroke-width: 0.6"/>
      </g>
     </g>
     <g id="text_4">
      <!-- $\mathdefault{0.9}$ -->
      <g style="fill: #333333" transform="translate(229.039357 172.365665)scale(0.08 -0.08)">
       <defs>
        <path id="LinLibertineT-39" d="M 2150 1874 
C 1939 1734 1728 1728 1619 1728 
C 992 1728 851 2340 851 2659 
C 851 3361 1120 3679 1434 3679 
C 1837 3679 2202 3463 2202 2372 
C 2202 2231 2189 2059 2150 1874 
z
M 2093 1644 
C 1920 1064 1510 420 659 102 
C 659 25 685 -32 736 -64 
C 1382 127 1779 395 2138 809 
C 2534 1268 2733 1849 2733 2353 
C 2733 3648 1997 3904 1504 3904 
C 666 3904 320 3093 320 2544 
C 320 1995 614 1503 1485 1503 
C 1651 1503 1901 1555 2093 1644 
z
" transform="scale(0.015625)"/>
       </defs>
       <use xlink:href="#LinLibertineT-30" transform="scale(0.996264)"/>
       <use xlink:href="#LibertineMathMI-94" transform="translate(47.92029 0)scale(0.996264)"/>
       <use xlink:href="#LinLibertineT-39" transform="translate(71.531789 0)scale(0.996264)"/>
      </g>
     </g>
    </g>
    <g id="text_5">
     <!-- Observation Rate -->
     <g style="fill: #333333" transform="translate(107.683431 184.510369)scale(0.09 -0.09)">
      <defs>
       <path id="LinLibertineT-4f" d="M 2118 3993 
C 2963 3993 3648 3287 3648 1990 
C 3648 840 3098 166 2368 166 
C 1587 166 851 866 851 2099 
C 851 3447 1485 3993 2118 3993 
z
M 4262 2112 
C 4262 3441 3347 4224 2202 4224 
C 960 4224 237 3236 237 1990 
C 237 725 1152 -64 2240 -64 
C 2950 -64 3514 243 3866 744 
C 4122 1110 4262 1572 4262 2112 
z
" transform="scale(0.015625)"/>
       <path id="LinLibertineT-62" d="M 1114 2328 
C 1280 2476 1472 2534 1658 2534 
C 2048 2534 2368 2059 2368 1437 
C 2368 705 2074 153 1466 153 
C 1267 153 1133 294 1005 455 
L 1005 2059 
C 1005 2194 1030 2258 1114 2328 
z
M 1069 2527 
C 1030 2489 1005 2502 1005 2559 
L 1005 3728 
C 1005 4140 1030 4408 1030 4408 
C 1030 4458 1005 4480 947 4480 
C 787 4408 307 4309 51 4288 
C 38 4236 51 4134 90 4096 
C 422 4077 499 4108 499 3576 
L 499 455 
C 499 204 493 89 474 0 
C 506 -52 538 -77 614 -77 
C 653 -39 717 19 768 76 
C 832 153 870 153 941 96 
C 1088 -26 1280 -64 1504 -64 
C 2157 -64 2918 532 2918 1552 
C 2918 2335 2342 2816 1786 2816 
C 1510 2816 1267 2707 1069 2527 
z
" transform="scale(0.015625)"/>
       <path id="LinLibertineT-73" d="M 307 885 
C 333 570 352 269 352 0 
C 416 12 480 19 512 19 
C 557 19 595 19 640 6 
C 813 -39 986 -64 1222 -64 
C 1581 -64 2240 108 2240 743 
C 2240 1180 1926 1437 1491 1597 
C 1107 1745 851 1841 851 2194 
C 851 2457 1082 2604 1299 2604 
C 1440 2604 1811 2553 1894 2008 
C 1933 1969 2061 1976 2099 2014 
C 2118 2245 2131 2482 2138 2694 
C 1939 2726 1632 2816 1299 2816 
C 826 2816 397 2508 397 2097 
C 397 1629 608 1430 1101 1225 
C 1632 1007 1754 872 1754 596 
C 1754 281 1446 147 1210 147 
C 960 147 819 230 755 301 
C 614 448 544 731 506 891 
C 467 930 346 923 307 885 
z
" transform="scale(0.015625)"/>
       <path id="LinLibertineT-65" d="M 794 1817 
C 915 2546 1363 2604 1517 2604 
C 1760 2604 2048 2469 2048 1927 
C 2048 1869 2022 1836 1952 1836 
L 794 1817 
z
M 2470 598 
C 2234 352 2048 249 1677 249 
C 1446 249 1178 385 979 714 
C 851 928 774 1225 774 1600 
L 2477 1587 
C 2554 1587 2598 1625 2598 1696 
C 2598 2237 2406 2816 1517 2816 
C 960 2816 237 2282 237 1302 
C 237 940 326 592 538 346 
C 755 89 1056 -64 1517 -64 
C 2003 -64 2349 160 2605 495 
C 2586 559 2547 592 2470 598 
z
" transform="scale(0.015625)"/>
       <path id="LinLibertineT-72" d="M 1126 2298 
C 1114 2553 1107 2719 1075 2783 
C 1062 2816 1050 2835 998 2835 
C 819 2764 653 2707 211 2649 
C 198 2611 211 2508 224 2470 
C 570 2438 640 2406 640 2036 
L 640 791 
C 640 262 563 236 166 211 
C 128 172 128 38 166 0 
C 390 6 640 12 896 12 
C 1152 12 1446 6 1670 0 
C 1709 38 1709 172 1670 211 
C 1222 243 1146 262 1146 791 
L 1146 1679 
C 1146 1844 1222 1991 1299 2106 
C 1370 2208 1517 2419 1594 2419 
C 1651 2419 1709 2406 1760 2336 
C 1805 2272 1882 2189 1990 2189 
C 2144 2189 2291 2349 2291 2508 
C 2291 2630 2176 2816 1907 2816 
C 1606 2816 1344 2534 1197 2285 
C 1158 2215 1126 2266 1126 2298 
z
" transform="scale(0.015625)"/>
       <path id="LinLibertineT-76" d="M 2080 2540 
C 2426 2515 2464 2439 2330 2115 
L 1811 869 
C 1709 622 1677 622 1574 889 
L 1114 2115 
C 998 2420 973 2496 1312 2540 
C 1350 2579 1350 2713 1312 2752 
C 1101 2745 877 2739 666 2739 
C 454 2739 262 2745 70 2752 
C 32 2713 32 2579 70 2540 
C 410 2502 454 2401 582 2077 
L 1402 69 
C 1440 -26 1478 -64 1562 -64 
C 1626 -64 1670 -26 1715 82 
L 2566 2070 
C 2688 2350 2758 2509 3117 2540 
C 3155 2579 3155 2713 3117 2752 
C 2989 2745 2835 2739 2669 2739 
C 2458 2739 2240 2745 2080 2752 
C 2042 2713 2042 2579 2080 2540 
z
" transform="scale(0.015625)"/>
       <path id="LinLibertineT-61" d="M 1875 1494 
L 1875 647 
C 1875 564 1837 519 1786 480 
C 1619 346 1402 198 1222 198 
C 902 198 762 455 762 654 
C 762 942 896 1237 1370 1359 
L 1875 1494 
z
M 1875 307 
C 1914 108 1984 -64 2304 -64 
C 2547 -64 2778 44 2912 172 
C 2899 249 2874 307 2803 345 
C 2758 307 2650 243 2566 243 
C 2381 243 2374 493 2374 788 
L 2374 1731 
C 2374 2643 1875 2816 1408 2816 
C 883 2816 352 2469 352 2104 
C 352 1950 429 1873 576 1873 
C 762 1873 877 2007 877 2091 
C 877 2136 870 2181 858 2206 
C 851 2226 845 2264 845 2335 
C 845 2534 1114 2604 1357 2604 
C 1574 2604 1875 2495 1875 1770 
C 1875 1725 1856 1699 1837 1693 
L 1286 1558 
C 672 1404 230 1064 230 628 
C 230 102 589 -64 1037 -64 
C 1261 -64 1453 -13 1734 204 
L 1862 307 
L 1875 307 
z
" transform="scale(0.015625)"/>
       <path id="LinLibertineT-74" d="M 275 2752 
C 186 2752 160 2675 160 2623 
L 160 2540 
C 160 2508 166 2502 192 2502 
L 570 2502 
L 570 570 
C 570 115 768 -64 1062 -64 
C 1357 -64 1677 76 1926 358 
C 1914 422 1875 461 1811 467 
C 1645 339 1453 288 1286 288 
C 1114 288 1075 480 1075 878 
L 1075 2502 
L 1741 2502 
C 1805 2502 1894 2527 1894 2585 
L 1894 2713 
C 1894 2739 1875 2752 1843 2752 
L 1075 2752 
L 1075 3001 
C 1075 3417 1101 3673 1101 3673 
C 1101 3712 1082 3731 1050 3731 
C 1024 3731 966 3705 909 3673 
C 838 3635 774 3603 691 3584 
C 614 3558 550 3539 550 3494 
C 550 3417 570 3462 570 2752 
L 275 2752 
z
" transform="scale(0.015625)"/>
       <path id="LinLibertineT-69" d="M 576 3852 
C 576 3686 730 3519 883 3519 
C 1062 3519 1216 3692 1216 3827 
C 1216 3980 1082 4160 909 4160 
C 755 4160 576 4006 576 3852 
z
M 1158 785 
L 1158 2040 
C 1158 2356 1184 2769 1184 2769 
C 1184 2796 1152 2816 1101 2816 
C 922 2743 666 2683 224 2624 
C 211 2585 224 2483 237 2444 
C 589 2413 653 2375 653 2015 
L 653 785 
C 653 261 582 242 192 211 
C 154 172 154 38 192 0 
C 403 6 653 12 909 12 
C 1165 12 1408 6 1619 0 
C 1658 38 1658 172 1619 211 
C 1229 236 1158 261 1158 785 
z
" transform="scale(0.015625)"/>
       <path id="LinLibertineT-6f" d="M 262 1315 
C 262 660 698 -64 1606 -64 
C 2016 -64 2330 83 2547 294 
C 2835 577 2963 981 2963 1372 
C 2963 2040 2598 2816 1619 2816 
C 1197 2816 851 2643 614 2367 
C 384 2091 262 1719 262 1315 
z
M 1523 2591 
C 2074 2591 2413 2091 2413 1167 
C 2413 358 1997 160 1696 160 
C 1030 160 813 968 813 1462 
C 813 2020 947 2591 1523 2591 
z
" transform="scale(0.015625)"/>
       <path id="LinLibertineT-6e" d="M 1178 2298 
C 1139 2253 1101 2240 1101 2298 
C 1094 2470 1082 2719 1050 2783 
C 1037 2816 1024 2835 973 2835 
C 794 2764 627 2707 186 2649 
C 173 2611 186 2508 198 2470 
C 544 2438 614 2406 614 2036 
L 614 791 
C 614 268 550 243 166 211 
C 128 172 128 38 166 0 
C 358 6 614 12 870 12 
C 1126 12 1318 6 1510 0 
C 1549 38 1549 172 1510 211 
C 1184 243 1120 268 1120 791 
L 1120 1838 
C 1120 1972 1178 2049 1229 2106 
C 1472 2342 1760 2483 2010 2483 
C 2138 2483 2272 2400 2349 2253 
C 2413 2125 2426 1953 2426 1761 
L 2426 791 
C 2426 268 2362 243 2029 211 
C 1997 172 1997 38 2029 0 
C 2221 6 2426 12 2682 12 
C 2938 12 3168 6 3360 0 
C 3392 38 3392 172 3360 211 
C 3002 243 2931 268 2931 791 
L 2931 1742 
C 2931 2093 2906 2400 2758 2598 
C 2650 2739 2451 2816 2227 2816 
C 1914 2816 1555 2732 1178 2298 
z
" transform="scale(0.015625)"/>
       <path id="LinLibertineT-52" d="M 1741 4006 
C 2131 4006 2592 3864 2592 3101 
C 2592 2293 2138 2112 1517 2112 
L 1210 2112 
L 1210 3592 
C 1210 3780 1286 4006 1741 4006 
z
M 1210 812 
L 1210 1894 
C 1747 1894 1869 1798 1958 1651 
L 2643 537 
C 2829 206 3104 -64 3488 -64 
C 3584 -64 3693 -52 3757 -20 
C 3782 25 3776 83 3750 134 
C 3462 134 3302 356 3136 636 
L 2330 2003 
C 2605 2092 3181 2428 3181 3107 
C 3181 3431 3072 3696 2842 3915 
C 2534 4204 2138 4224 1734 4224 
C 1434 4224 1165 4179 934 4179 
C 710 4179 410 4185 109 4191 
C 70 4153 70 4019 109 3980 
C 557 3961 666 3928 666 3392 
L 666 792 
C 666 263 557 230 109 211 
C 70 172 70 38 109 0 
C 397 6 698 12 941 12 
C 1184 12 1485 6 1766 0 
C 1805 38 1805 172 1766 211 
C 1318 230 1210 263 1210 800 
L 1210 812 
z
" transform="scale(0.015625)"/>
      </defs>
      <use xlink:href="#LinLibertineT-4f" transform="scale(0.996264)"/>
      <use xlink:href="#LinLibertineT-62" transform="translate(69.9377 0)scale(0.996264)"/>
      <use xlink:href="#LinLibertineT-73" transform="translate(119.053519 0)scale(0.996264)"/>
      <use xlink:href="#LinLibertineT-65" transform="translate(157.907846 0)scale(0.996264)"/>
      <use xlink:href="#LinLibertineT-72" transform="translate(202.440798 0)scale(0.996264)"/>
      <use xlink:href="#LinLibertineT-76" transform="translate(240.996212 0)scale(0.996264)"/>
      <use xlink:href="#LinLibertineT-61" transform="translate(290.5105 0)scale(0.996264)"/>
      <use xlink:href="#LinLibertineT-74" transform="translate(336.039732 0)scale(0.996264)"/>
      <use xlink:href="#LinLibertineT-69" transform="translate(367.521666 0)scale(0.996264)"/>
      <use xlink:href="#LinLibertineT-6f" transform="translate(394.520411 0)scale(0.996264)"/>
      <use xlink:href="#LinLibertineT-6e" transform="translate(444.732081 0)scale(0.996264)"/>
      <use xlink:href="#LinLibertineT-52" transform="translate(523.636172 0)scale(0.996264)"/>
      <use xlink:href="#LinLibertineT-61" transform="translate(582.116851 0)scale(0.996264)"/>
      <use xlink:href="#LinLibertineT-74" transform="translate(627.646083 0)scale(0.996264)"/>
      <use xlink:href="#LinLibertineT-65" transform="translate(659.128017 0)scale(0.996264)"/>
     </g>
    </g>
   </g>
   <g id="matplotlib.axis_2">
    <g id="ytick_1">
     <g id="line2d_5">
      <path d="M 29.096752 163.276623 
L 249.59952 163.276623 
" clip-path="url(#pda4168a99b)" style="fill: none; stroke: #cccccc; stroke-opacity: 0.5; stroke-width: 0.4; stroke-linecap: square"/>
     </g>
     <g id="line2d_6">
      <defs>
       <path id="m47ed931753" d="M 0 0 
L 3 0 
" style="stroke: #333333; stroke-width: 0.6"/>
      </defs>
      <g>
       <use xlink:href="#m47ed931753" x="29.096752" y="163.276623" style="fill: #333333; stroke: #333333; stroke-width: 0.6"/>
      </g>
     </g>
     <g id="text_6">
      <!-- $\mathdefault{0.0}$ -->
      <g style="fill: #333333" transform="translate(15.976821 166.071144)scale(0.08 -0.08)">
       <use xlink:href="#LinLibertineT-30" transform="scale(0.996264)"/>
       <use xlink:href="#LibertineMathMI-94" transform="translate(47.92029 0)scale(0.996264)"/>
       <use xlink:href="#LinLibertineT-30" transform="translate(71.531789 0)scale(0.996264)"/>
      </g>
     </g>
    </g>
    <g id="ytick_2">
     <g id="line2d_7">
      <path d="M 29.096752 133.706878 
L 249.59952 133.706878 
" clip-path="url(#pda4168a99b)" style="fill: none; stroke: #cccccc; stroke-opacity: 0.5; stroke-width: 0.4; stroke-linecap: square"/>
     </g>
     <g id="line2d_8">
      <g>
       <use xlink:href="#m47ed931753" x="29.096752" y="133.706878" style="fill: #333333; stroke: #333333; stroke-width: 0.6"/>
      </g>
     </g>
     <g id="text_7">
      <!-- $\mathdefault{0.2}$ -->
      <g style="fill: #333333" transform="translate(15.976821 136.501399)scale(0.08 -0.08)">
       <defs>
        <path id="LinLibertineT-32" d="M 390 2999 
C 390 2866 512 2752 646 2752 
C 755 2752 947 2866 947 3006 
C 947 3057 934 3095 922 3139 
C 909 3184 870 3241 870 3292 
C 870 3451 1037 3679 1504 3679 
C 1734 3679 2061 3521 2061 2910 
C 2061 2501 1914 2168 1536 1783 
L 1062 1314 
C 435 672 333 364 333 -13 
C 333 -13 659 0 864 0 
L 1984 0 
C 2189 0 2483 -13 2483 -13 
C 2566 326 2630 807 2637 1000 
C 2598 1032 2515 1044 2451 1032 
C 2342 576 2234 416 2003 416 
L 864 416 
C 864 724 1306 1160 1338 1192 
L 1984 1815 
C 2349 2168 2624 2450 2624 2936 
C 2624 3622 2061 3904 1542 3904 
C 832 3904 390 3381 390 2999 
z
" transform="scale(0.015625)"/>
       </defs>
       <use xlink:href="#LinLibertineT-30" transform="scale(0.996264)"/>
       <use xlink:href="#LibertineMathMI-94" transform="translate(47.92029 0)scale(0.996264)"/>
       <use xlink:href="#LinLibertineT-32" transform="translate(71.531789 0)scale(0.996264)"/>
      </g>
     </g>
    </g>
    <g id="ytick_3">
     <g id="line2d_9">
      <path d="M 29.096752 104.137133 
L 249.59952 104.137133 
" clip-path="url(#pda4168a99b)" style="fill: none; stroke: #cccccc; stroke-opacity: 0.5; stroke-width: 0.4; stroke-linecap: square"/>
     </g>
     <g id="line2d_10">
      <g>
       <use xlink:href="#m47ed931753" x="29.096752" y="104.137133" style="fill: #333333; stroke: #333333; stroke-width: 0.6"/>
      </g>
     </g>
     <g id="text_8">
      <!-- $\mathdefault{0.4}$ -->
      <g style="fill: #333333" transform="translate(15.976821 106.931654)scale(0.08 -0.08)">
       <defs>
        <path id="LinLibertineT-34" d="M 1734 3246 
L 1734 1408 
L 512 1408 
C 838 1931 1293 2646 1734 3246 
z
M 2752 1408 
L 2221 1408 
L 2221 3272 
C 2221 3591 2221 3840 2234 3891 
L 2221 3904 
L 2016 3904 
C 1971 3904 1939 3865 1914 3833 
C 1510 3342 768 2288 179 1375 
C 198 1279 237 1107 429 1107 
L 1734 1107 
L 1734 522 
C 1734 230 1491 230 1216 211 
C 1178 172 1178 38 1216 0 
C 1421 6 1677 12 1971 12 
C 2221 12 2464 6 2669 0 
C 2707 38 2707 172 2669 211 
C 2355 236 2221 223 2221 522 
L 2221 1107 
L 2662 1107 
C 2752 1107 2848 1228 2848 1305 
C 2848 1369 2822 1408 2752 1408 
z
" transform="scale(0.015625)"/>
       </defs>
       <use xlink:href="#LinLibertineT-30" transform="scale(0.996264)"/>
       <use xlink:href="#LibertineMathMI-94" transform="translate(47.92029 0)scale(0.996264)"/>
       <use xlink:href="#LinLibertineT-34" transform="translate(71.531789 0)scale(0.996264)"/>
      </g>
     </g>
    </g>
    <g id="ytick_4">
     <g id="line2d_11">
      <path d="M 29.096752 74.567388 
L 249.59952 74.567388 
" clip-path="url(#pda4168a99b)" style="fill: none; stroke: #cccccc; stroke-opacity: 0.5; stroke-width: 0.4; stroke-linecap: square"/>
     </g>
     <g id="line2d_12">
      <g>
       <use xlink:href="#m47ed931753" x="29.096752" y="74.567388" style="fill: #333333; stroke: #333333; stroke-width: 0.6"/>
      </g>
     </g>
     <g id="text_9">
      <!-- $\mathdefault{0.6}$ -->
      <g style="fill: #333333" transform="translate(15.976821 77.361909)scale(0.08 -0.08)">
       <defs>
        <path id="LinLibertineT-36" d="M 864 1965 
C 1075 2105 1286 2112 1395 2112 
C 2022 2112 2163 1499 2163 1180 
C 2163 478 1894 160 1581 160 
C 1178 160 813 376 813 1467 
C 813 1614 826 1780 864 1965 
z
M 922 2195 
C 1094 2775 1504 3419 2355 3737 
C 2355 3814 2330 3871 2278 3904 
C 1632 3712 1235 3444 877 3030 
C 480 2571 282 1990 282 1486 
C 282 191 1018 -64 1510 -64 
C 2349 -64 2694 746 2694 1295 
C 2694 1844 2400 2336 1530 2336 
C 1363 2336 1114 2284 922 2195 
z
" transform="scale(0.015625)"/>
       </defs>
       <use xlink:href="#LinLibertineT-30" transform="scale(0.996264)"/>
       <use xlink:href="#LibertineMathMI-94" transform="translate(47.92029 0)scale(0.996264)"/>
       <use xlink:href="#LinLibertineT-36" transform="translate(71.531789 0)scale(0.996264)"/>
      </g>
     </g>
    </g>
    <g id="ytick_5">
     <g id="line2d_13">
      <path d="M 29.096752 44.997643 
L 249.59952 44.997643 
" clip-path="url(#pda4168a99b)" style="fill: none; stroke: #cccccc; stroke-opacity: 0.5; stroke-width: 0.4; stroke-linecap: square"/>
     </g>
     <g id="line2d_14">
      <g>
       <use xlink:href="#m47ed931753" x="29.096752" y="44.997643" style="fill: #333333; stroke: #333333; stroke-width: 0.6"/>
      </g>
     </g>
     <g id="text_10">
      <!-- $\mathdefault{0.8}$ -->
      <g style="fill: #333333" transform="translate(15.976821 47.792164)scale(0.08 -0.08)">
       <defs>
        <path id="LinLibertineT-38" d="M 1498 3679 
C 1914 3679 2067 3405 2067 3110 
C 2067 2764 1728 2476 1555 2348 
L 1357 2470 
C 954 2732 909 2944 909 3142 
C 909 3437 1114 3679 1498 3679 
z
M 2515 3104 
C 2515 3565 2157 3904 1530 3904 
C 877 3904 454 3513 454 3020 
C 454 2662 627 2400 1018 2156 
L 1184 2054 
C 998 1958 826 1843 666 1702 
C 403 1472 294 1184 294 934 
C 294 281 755 -64 1434 -64 
C 2272 -64 2682 550 2682 1036 
C 2682 1408 2522 1734 2182 1939 
L 1728 2214 
C 2029 2361 2515 2694 2515 3104 
z
M 1446 160 
C 1158 160 723 358 723 934 
C 723 1126 806 1574 1357 1939 
L 1658 1760 
C 2054 1516 2214 1216 2214 908 
C 2214 268 1734 160 1446 160 
z
" transform="scale(0.015625)"/>
       </defs>
       <use xlink:href="#LinLibertineT-30" transform="scale(0.996264)"/>
       <use xlink:href="#LibertineMathMI-94" transform="translate(47.92029 0)scale(0.996264)"/>
       <use xlink:href="#LinLibertineT-38" transform="translate(71.531789 0)scale(0.996264)"/>
      </g>
     </g>
    </g>
    <g id="ytick_6">
     <g id="line2d_15">
      <path d="M 29.096752 15.427898 
L 249.59952 15.427898 
" clip-path="url(#pda4168a99b)" style="fill: none; stroke: #cccccc; stroke-opacity: 0.5; stroke-width: 0.4; stroke-linecap: square"/>
     </g>
     <g id="line2d_16">
      <g>
       <use xlink:href="#m47ed931753" x="29.096752" y="15.427898" style="fill: #333333; stroke: #333333; stroke-width: 0.6"/>
      </g>
     </g>
     <g id="text_11">
      <!-- $\mathdefault{1.0}$ -->
      <g style="fill: #333333" transform="translate(15.976821 18.222419)scale(0.08 -0.08)">
       <defs>
        <path id="LinLibertineT-31" d="M 1843 793 
L 1843 3014 
C 1843 3398 1850 3789 1862 3872 
C 1862 3904 1850 3904 1824 3904 
C 1472 3686 1133 3526 570 3264 
C 582 3193 608 3129 666 3091 
C 960 3212 1101 3251 1222 3251 
C 1331 3251 1350 3097 1350 2880 
L 1350 793 
C 1350 262 1178 230 730 211 
C 691 172 691 38 730 0 
C 1043 6 1274 12 1619 12 
C 1926 12 2080 6 2400 0 
C 2438 38 2438 172 2400 211 
C 1952 230 1843 262 1843 793 
z
" transform="scale(0.015625)"/>
       </defs>
       <use xlink:href="#LinLibertineT-31" transform="scale(0.996264)"/>
       <use xlink:href="#LibertineMathMI-94" transform="translate(47.92029 0)scale(0.996264)"/>
       <use xlink:href="#LinLibertineT-30" transform="translate(71.531789 0)scale(0.996264)"/>
      </g>
     </g>
    </g>
    <g id="text_12">
     <!-- Top-1 Accuracy -->
     <g style="fill: #333333" transform="translate(9.88767 112.363792)rotate(-90)scale(0.09 -0.09)">
      <defs>
       <path id="LinLibertineT-54" d="M 2240 796 
L 2240 3254 
C 2240 3666 2304 3910 2534 3910 
L 2675 3910 
C 3155 3910 3456 3743 3565 3247 
C 3635 3247 3725 3254 3782 3280 
C 3738 3575 3706 3904 3699 4192 
C 3699 4198 3686 4211 3680 4211 
C 3462 4192 2752 4160 2246 4160 
L 1696 4160 
C 1203 4160 448 4192 205 4211 
C 192 4211 179 4198 179 4192 
C 154 3904 90 3569 19 3260 
C 83 3235 160 3228 237 3228 
C 365 3743 659 3910 1082 3910 
L 1395 3910 
C 1632 3910 1696 3666 1696 3273 
L 1696 796 
C 1696 262 1587 230 1075 211 
C 1037 172 1037 38 1075 0 
C 1389 6 1715 12 1971 12 
C 2214 12 2541 6 2861 0 
C 2899 38 2899 172 2861 211 
C 2349 230 2240 262 2240 796 
z
" transform="scale(0.015625)"/>
       <path id="LinLibertineT-70" d="M 1120 2123 
C 1286 2328 1581 2521 1766 2521 
C 2176 2521 2528 2059 2528 1334 
C 2528 808 2342 153 1626 153 
C 1510 153 1286 185 1171 288 
C 1043 403 1018 442 1018 673 
L 1018 1841 
C 1018 1976 1043 2033 1120 2123 
z
M 998 2361 
C 992 2553 979 2719 947 2783 
C 934 2816 922 2835 870 2835 
C 691 2764 525 2707 83 2649 
C 70 2611 83 2508 96 2470 
C 442 2438 512 2405 512 2033 
L 512 -725 
C 512 -1272 442 -1305 51 -1325 
C 13 -1364 13 -1498 51 -1536 
C 275 -1530 512 -1524 768 -1524 
C 1024 -1524 1331 -1530 1542 -1536 
C 1581 -1498 1581 -1364 1542 -1325 
C 1088 -1299 1018 -1272 1018 -725 
L 1018 -13 
C 1018 70 1043 64 1107 32 
C 1267 -26 1459 -64 1664 -64 
C 2022 -64 2342 44 2605 294 
C 2906 589 3078 987 3078 1507 
C 3078 2187 2598 2816 1946 2816 
C 1651 2816 1325 2617 1069 2335 
C 1030 2296 1005 2296 998 2361 
z
" transform="scale(0.015625)"/>
       <path id="LinLibertineT-2d" d="M 1734 1408 
C 1818 1408 1907 1587 1907 1664 
C 1907 1728 1882 1792 1818 1792 
L 416 1792 
C 339 1792 256 1644 256 1529 
C 256 1465 294 1408 352 1408 
L 1734 1408 
z
" transform="scale(0.015625)"/>
       <path id="LinLibertineT-41" d="M 1683 1804 
C 1542 1804 1498 1824 1523 1888 
L 2176 3559 
L 2214 3559 
L 2816 1804 
L 1683 1804 
z
M 992 514 
L 1344 1428 
C 1376 1510 1414 1536 1568 1536 
L 2918 1536 
L 3290 469 
C 3366 255 3123 230 2816 211 
C 2778 172 2778 38 2816 0 
C 3053 6 3405 12 3654 12 
C 3917 12 4160 6 4384 0 
C 4422 38 4422 172 4384 211 
C 4134 236 3917 255 3808 558 
L 2490 4224 
C 2394 4165 2221 4094 2138 4094 
L 685 659 
C 518 267 326 230 45 211 
C 6 172 6 38 45 0 
C 211 6 422 12 614 12 
C 877 12 1197 6 1434 0 
C 1472 38 1472 172 1434 211 
C 1190 230 890 255 992 514 
z
" transform="scale(0.015625)"/>
       <path id="LinLibertineT-63" d="M 2547 583 
C 2522 641 2470 666 2413 673 
C 2195 390 1920 249 1645 249 
C 1178 249 787 724 787 1475 
C 787 2181 1094 2604 1517 2604 
C 1894 2604 1946 2380 1971 2155 
C 1990 1982 2080 1924 2214 1924 
C 2349 1924 2528 2007 2528 2206 
C 2528 2559 2163 2816 1549 2816 
C 915 2816 237 2245 237 1334 
C 237 506 698 -64 1504 -64 
C 1888 -64 2227 57 2547 583 
z
" transform="scale(0.015625)"/>
       <path id="LinLibertineT-75" d="M 1389 -64 
C 1638 -64 1939 64 2253 319 
C 2285 345 2342 358 2349 313 
C 2368 153 2419 -64 2419 -64 
C 2470 -84 2502 -77 2541 -64 
C 2682 51 2906 147 3296 192 
C 3334 230 3334 326 3296 364 
C 2886 396 2829 517 2829 830 
L 2829 2055 
C 2829 2247 2854 2713 2854 2713 
C 2854 2732 2835 2752 2803 2752 
C 2771 2745 2675 2739 2579 2739 
C 2374 2739 2144 2745 1926 2752 
C 1888 2713 1888 2579 1926 2540 
C 2240 2521 2323 2444 2323 2023 
L 2323 792 
C 2323 670 2310 619 2221 543 
C 1984 338 1741 236 1581 236 
C 1389 236 1069 326 1069 894 
L 1069 2055 
C 1069 2247 1094 2713 1094 2713 
C 1094 2732 1075 2752 1043 2752 
C 1011 2745 915 2739 819 2739 
C 614 2739 384 2745 166 2752 
C 128 2713 128 2579 166 2540 
C 474 2515 563 2444 563 2030 
L 563 804 
C 563 364 755 -64 1389 -64 
z
" transform="scale(0.015625)"/>
       <path id="LinLibertineT-79" d="M 1306 -1012 
C 1408 -833 1491 -655 1568 -464 
C 2080 765 2368 1420 2701 2133 
C 2829 2400 2918 2502 3219 2540 
C 3258 2579 3258 2713 3219 2752 
C 3091 2745 2944 2739 2765 2739 
C 2573 2739 2374 2745 2182 2752 
C 2144 2713 2144 2579 2182 2540 
C 2387 2521 2592 2483 2490 2254 
L 1856 796 
C 1811 694 1754 675 1702 803 
L 1133 2127 
C 1018 2394 986 2515 1344 2540 
C 1382 2579 1382 2713 1344 2752 
C 1107 2745 851 2739 621 2739 
C 403 2739 230 2745 102 2752 
C 64 2713 64 2579 102 2540 
C 358 2509 442 2451 608 2063 
L 1331 389 
C 1389 262 1485 -31 1421 -209 
C 1344 -419 1267 -598 1171 -795 
C 1101 -922 1011 -980 851 -980 
C 762 -980 736 -960 666 -960 
C 480 -960 384 -1152 384 -1236 
C 384 -1370 512 -1472 685 -1472 
C 819 -1472 1075 -1421 1306 -1012 
z
" transform="scale(0.015625)"/>
      </defs>
      <use xlink:href="#LinLibertineT-54" transform="scale(0.996264)"/>
      <use xlink:href="#LinLibertineT-6f" transform="translate(53.200538 0)scale(0.996264)"/>
      <use xlink:href="#LinLibertineT-70" transform="translate(103.412207 0)scale(0.996264)"/>
      <use xlink:href="#LinLibertineT-2d" transform="translate(155.118303 0)scale(0.996264)"/>
      <use xlink:href="#LinLibertineT-31" transform="translate(188.792045 0)scale(0.996264)"/>
      <use xlink:href="#LinLibertineT-41" transform="translate(260.024937 0)scale(0.996264)"/>
      <use xlink:href="#LinLibertineT-63" transform="translate(328.069726 0)scale(0.996264)"/>
      <use xlink:href="#LinLibertineT-63" transform="translate(370.709859 0)scale(0.996264)"/>
      <use xlink:href="#LinLibertineT-75" transform="translate(413.349992 0)scale(0.996264)"/>
      <use xlink:href="#LinLibertineT-72" transform="translate(466.251617 0)scale(0.996264)"/>
      <use xlink:href="#LinLibertineT-61" transform="translate(503.312605 0)scale(0.996264)"/>
      <use xlink:href="#LinLibertineT-63" transform="translate(548.841837 0)scale(0.996264)"/>
      <use xlink:href="#LinLibertineT-79" transform="translate(591.48197 0)scale(0.996264)"/>
     </g>
    </g>
   </g>
   <g id="PolyCollection_1">
    <path d="M -33.904039 -11.630297 
L -33.904039 116.410455 
L -18.153842 116.410455 
L -2.403644 116.410455 
L 13.346554 15.427898 
L 29.096752 15.427898 
L 44.846949 15.427898 
L 60.597147 15.427898 
L 76.347345 15.427898 
L 92.097543 15.427898 
L 107.84774 15.427898 
L 123.597938 15.427898 
L 139.348136 15.427898 
L 155.098334 15.427898 
L 170.848531 15.427898 
L 186.598729 15.427898 
L 202.348927 15.427898 
L 218.099125 15.427898 
L 233.849322 15.427898 
L 249.59952 15.427898 
L 249.59952 15.427898 
L 249.59952 15.427898 
L 233.849322 15.427898 
L 218.099125 15.427898 
L 202.348927 15.427898 
L 186.598729 15.427898 
L 170.848531 15.427898 
L 155.098334 15.427898 
L 139.348136 15.427898 
L 123.597938 15.427898 
L 107.84774 15.427898 
L 92.097543 15.427898 
L 76.347345 15.427898 
L 60.597147 15.427898 
L 44.846949 15.427898 
L 29.096752 15.427898 
L 13.346554 15.427898 
L -2.403644 -11.630297 
L -18.153842 -11.630297 
L -33.904039 -11.630297 
z
" clip-path="url(#pda4168a99b)" style="fill: #59a257; fill-opacity: 0.15"/>
   </g>
   <g id="PolyCollection_2">
    <path d="M -33.904039 123.661304 
L -33.904039 188.10707 
L -18.153842 188.10707 
L -2.403644 188.10707 
L 13.346554 176.56792 
L 29.096752 193.891869 
L 44.846949 193.891869 
L 60.597147 193.891869 
L 76.347345 193.891869 
L 92.097543 192.846368 
L 107.84774 192.846368 
L 123.597938 192.846368 
L 139.348136 190.334818 
L 155.098334 190.334818 
L 170.848531 193.891869 
L 186.598729 192.846368 
L 202.348927 192.846368 
L 218.099125 193.891869 
L 233.849322 193.891869 
L 249.59952 163.276623 
L 249.59952 163.276623 
L 249.59952 163.276623 
L 233.849322 88.30676 
L 218.099125 88.30676 
L 202.348927 104.137133 
L 186.598729 104.137133 
L 170.848531 88.30676 
L 155.098334 62.294066 
L 139.348136 62.294066 
L 123.597938 74.567388 
L 107.84774 74.567388 
L 92.097543 104.137133 
L 76.347345 88.30676 
L 60.597147 88.30676 
L 44.846949 88.30676 
L 29.096752 88.30676 
L 13.346554 31.706346 
L -2.403644 123.661304 
L -18.153842 123.661304 
L -33.904039 123.661304 
z
" clip-path="url(#pda4168a99b)" style="fill: #d4682c; fill-opacity: 0.15"/>
   </g>
   <g id="PolyCollection_3">
    <path d="M -33.904039 -14.141847 
L -33.904039 104.137133 
L -18.153842 104.137133 
L -2.403644 104.137133 
L 13.346554 15.427898 
L 29.096752 15.427898 
L 44.846949 15.427898 
L 60.597147 15.427898 
L 76.347345 15.427898 
L 92.097543 15.427898 
L 107.84774 15.427898 
L 123.597938 15.427898 
L 139.348136 15.427898 
L 155.098334 15.427898 
L 170.848531 15.427898 
L 186.598729 15.427898 
L 202.348927 15.427898 
L 218.099125 15.427898 
L 233.849322 15.427898 
L 249.59952 15.427898 
L 249.59952 15.427898 
L 249.59952 15.427898 
L 233.849322 15.427898 
L 218.099125 15.427898 
L 202.348927 15.427898 
L 186.598729 15.427898 
L 170.848531 15.427898 
L 155.098334 15.427898 
L 139.348136 15.427898 
L 123.597938 15.427898 
L 107.84774 15.427898 
L 92.097543 15.427898 
L 76.347345 15.427898 
L 60.597147 15.427898 
L 44.846949 15.427898 
L 29.096752 15.427898 
L 13.346554 15.427898 
L -2.403644 -14.141847 
L -18.153842 -14.141847 
L -33.904039 -14.141847 
z
" clip-path="url(#pda4168a99b)" style="fill: #4878a6; fill-opacity: 0.15"/>
   </g>
   <g id="line2d_17">
    <path d="M -1 49.096042 
L 13.346554 15.427898 
L 29.096752 15.427898 
L 44.846949 15.427898 
L 60.597147 15.427898 
L 76.347345 15.427898 
L 92.097543 15.427898 
L 107.84774 15.427898 
L 123.597938 15.427898 
L 139.348136 15.427898 
L 155.098334 15.427898 
L 170.848531 15.427898 
L 186.598729 15.427898 
L 202.348927 15.427898 
L 218.099125 15.427898 
L 233.849322 15.427898 
L 249.59952 15.427898 
" clip-path="url(#pda4168a99b)" style="fill: none; stroke: #59a257; stroke-width: 1.5; stroke-linecap: square"/>
    <defs>
     <path id="mec7c62fe64" d="M -0 4.242641 
L 4.242641 0 
L 0 -4.242641 
L -4.242641 -0 
z
"/>
    </defs>
    <g clip-path="url(#pda4168a99b)">
     <use xlink:href="#mec7c62fe64" x="-1" y="49.096042" style="fill: #59a257"/>
     <use xlink:href="#mec7c62fe64" x="13.346554" y="15.427898" style="fill: #59a257"/>
     <use xlink:href="#mec7c62fe64" x="29.096752" y="15.427898" style="fill: #59a257"/>
     <use xlink:href="#mec7c62fe64" x="44.846949" y="15.427898" style="fill: #59a257"/>
     <use xlink:href="#mec7c62fe64" x="60.597147" y="15.427898" style="fill: #59a257"/>
     <use xlink:href="#mec7c62fe64" x="76.347345" y="15.427898" style="fill: #59a257"/>
     <use xlink:href="#mec7c62fe64" x="92.097543" y="15.427898" style="fill: #59a257"/>
     <use xlink:href="#mec7c62fe64" x="107.84774" y="15.427898" style="fill: #59a257"/>
     <use xlink:href="#mec7c62fe64" x="123.597938" y="15.427898" style="fill: #59a257"/>
     <use xlink:href="#mec7c62fe64" x="139.348136" y="15.427898" style="fill: #59a257"/>
     <use xlink:href="#mec7c62fe64" x="155.098334" y="15.427898" style="fill: #59a257"/>
     <use xlink:href="#mec7c62fe64" x="170.848531" y="15.427898" style="fill: #59a257"/>
     <use xlink:href="#mec7c62fe64" x="186.598729" y="15.427898" style="fill: #59a257"/>
     <use xlink:href="#mec7c62fe64" x="202.348927" y="15.427898" style="fill: #59a257"/>
     <use xlink:href="#mec7c62fe64" x="218.099125" y="15.427898" style="fill: #59a257"/>
     <use xlink:href="#mec7c62fe64" x="233.849322" y="15.427898" style="fill: #59a257"/>
     <use xlink:href="#mec7c62fe64" x="249.59952" y="15.427898" style="fill: #59a257"/>
    </g>
   </g>
   <g id="line2d_18">
    <path d="M -1 151.272535 
L 13.346554 104.137133 
L 29.096752 141.099314 
L 44.846949 141.099314 
L 60.597147 141.099314 
L 76.347345 141.099314 
L 92.097543 148.491751 
L 107.84774 133.706878 
L 123.597938 133.706878 
L 139.348136 126.314442 
L 155.098334 126.314442 
L 170.848531 141.099314 
L 186.598729 148.491751 
L 202.348927 148.491751 
L 218.099125 141.099314 
L 233.849322 141.099314 
L 249.59952 163.276623 
" clip-path="url(#pda4168a99b)" style="fill: none; stroke: #d4682c; stroke-width: 1.5; stroke-linecap: square"/>
    <defs>
     <path id="m2746d7a021" d="M -2.5 2.5 
L 2.5 2.5 
L 2.5 -2.5 
L -2.5 -2.5 
z
"/>
    </defs>
    <g clip-path="url(#pda4168a99b)">
     <use xlink:href="#m2746d7a021" x="-1" y="151.272535" style="fill: #d4682c"/>
     <use xlink:href="#m2746d7a021" x="13.346554" y="104.137133" style="fill: #d4682c"/>
     <use xlink:href="#m2746d7a021" x="29.096752" y="141.099314" style="fill: #d4682c"/>
     <use xlink:href="#m2746d7a021" x="44.846949" y="141.099314" style="fill: #d4682c"/>
     <use xlink:href="#m2746d7a021" x="60.597147" y="141.099314" style="fill: #d4682c"/>
     <use xlink:href="#m2746d7a021" x="76.347345" y="141.099314" style="fill: #d4682c"/>
     <use xlink:href="#m2746d7a021" x="92.097543" y="148.491751" style="fill: #d4682c"/>
     <use xlink:href="#m2746d7a021" x="107.84774" y="133.706878" style="fill: #d4682c"/>
     <use xlink:href="#m2746d7a021" x="123.597938" y="133.706878" style="fill: #d4682c"/>
     <use xlink:href="#m2746d7a021" x="139.348136" y="126.314442" style="fill: #d4682c"/>
     <use xlink:href="#m2746d7a021" x="155.098334" y="126.314442" style="fill: #d4682c"/>
     <use xlink:href="#m2746d7a021" x="170.848531" y="141.099314" style="fill: #d4682c"/>
     <use xlink:href="#m2746d7a021" x="186.598729" y="148.491751" style="fill: #d4682c"/>
     <use xlink:href="#m2746d7a021" x="202.348927" y="148.491751" style="fill: #d4682c"/>
     <use xlink:href="#m2746d7a021" x="218.099125" y="141.099314" style="fill: #d4682c"/>
     <use xlink:href="#m2746d7a021" x="233.849322" y="141.099314" style="fill: #d4682c"/>
     <use xlink:href="#m2746d7a021" x="249.59952" y="163.276623" style="fill: #d4682c"/>
    </g>
   </g>
   <g id="line2d_19">
    <path d="M -1 42.362413 
L 13.346554 15.427898 
L 29.096752 15.427898 
L 44.846949 15.427898 
L 60.597147 15.427898 
L 76.347345 15.427898 
L 92.097543 15.427898 
L 107.84774 15.427898 
L 123.597938 15.427898 
L 139.348136 15.427898 
L 155.098334 15.427898 
L 170.848531 15.427898 
L 186.598729 15.427898 
L 202.348927 15.427898 
L 218.099125 15.427898 
L 233.849322 15.427898 
L 249.59952 15.427898 
" clip-path="url(#pda4168a99b)" style="fill: none; stroke: #4878a6; stroke-width: 1.5; stroke-linecap: square"/>
    <defs>
     <path id="mbaffabc73f" d="M 0 2.5 
C 0.663008 2.5 1.29895 2.236584 1.767767 1.767767 
C 2.236584 1.29895 2.5 0.663008 2.5 0 
C 2.5 -0.663008 2.236584 -1.29895 1.767767 -1.767767 
C 1.29895 -2.236584 0.663008 -2.5 0 -2.5 
C -0.663008 -2.5 -1.29895 -2.236584 -1.767767 -1.767767 
C -2.236584 -1.29895 -2.5 -0.663008 -2.5 0 
C -2.5 0.663008 -2.236584 1.29895 -1.767767 1.767767 
C -1.29895 2.236584 -0.663008 2.5 0 2.5 
z
"/>
    </defs>
    <g clip-path="url(#pda4168a99b)">
     <use xlink:href="#mbaffabc73f" x="-1" y="42.362413" style="fill: #4878a6"/>
     <use xlink:href="#mbaffabc73f" x="13.346554" y="15.427898" style="fill: #4878a6"/>
     <use xlink:href="#mbaffabc73f" x="29.096752" y="15.427898" style="fill: #4878a6"/>
     <use xlink:href="#mbaffabc73f" x="44.846949" y="15.427898" style="fill: #4878a6"/>
     <use xlink:href="#mbaffabc73f" x="60.597147" y="15.427898" style="fill: #4878a6"/>
     <use xlink:href="#mbaffabc73f" x="76.347345" y="15.427898" style="fill: #4878a6"/>
     <use xlink:href="#mbaffabc73f" x="92.097543" y="15.427898" style="fill: #4878a6"/>
     <use xlink:href="#mbaffabc73f" x="107.84774" y="15.427898" style="fill: #4878a6"/>
     <use xlink:href="#mbaffabc73f" x="123.597938" y="15.427898" style="fill: #4878a6"/>
     <use xlink:href="#mbaffabc73f" x="139.348136" y="15.427898" style="fill: #4878a6"/>
     <use xlink:href="#mbaffabc73f" x="155.098334" y="15.427898" style="fill: #4878a6"/>
     <use xlink:href="#mbaffabc73f" x="170.848531" y="15.427898" style="fill: #4878a6"/>
     <use xlink:href="#mbaffabc73f" x="186.598729" y="15.427898" style="fill: #4878a6"/>
     <use xlink:href="#mbaffabc73f" x="202.348927" y="15.427898" style="fill: #4878a6"/>
     <use xlink:href="#mbaffabc73f" x="218.099125" y="15.427898" style="fill: #4878a6"/>
     <use xlink:href="#mbaffabc73f" x="233.849322" y="15.427898" style="fill: #4878a6"/>
     <use xlink:href="#mbaffabc73f" x="249.59952" y="15.427898" style="fill: #4878a6"/>
    </g>
   </g>
   <g id="patch_3">
    <path d="M 29.096752 163.276623 
L 29.096752 3.6 
" style="fill: none; stroke: #333333; stroke-width: 0.6; stroke-linejoin: miter; stroke-linecap: square"/>
   </g>
   <g id="patch_4">
    <path d="M 29.096752 163.276623 
L 249.59952 163.276623 
" style="fill: none; stroke: #333333; stroke-width: 0.6; stroke-linejoin: miter; stroke-linecap: square"/>
   </g>
   <g id="legend_1">
    <g id="line2d_20">
     <path d="M 194.777128 131.665676 
L 200.777128 131.665676 
L 206.777128 131.665676 
" style="fill: none; stroke: #59a257; stroke-width: 1.5; stroke-linecap: square"/>
     <g>
      <use xlink:href="#mec7c62fe64" x="200.777128" y="131.665676" style="fill: #59a257"/>
     </g>
    </g>
    <g id="text_13">
     <!-- $p$-mean -->
     <g transform="translate(209.977128 134.465676)scale(0.08 -0.08)">
      <defs>
       <path id="LibertineMathMI-3f" d="M 1702 2591 
C 1728 2707 1786 2899 1786 2976 
C 1786 3084 1722 3148 1517 3148 
C 1274 3148 1274 2867 1222 2623 
L 1139 2245 
C 819 2014 582 1822 403 1597 
C 429 1507 486 1462 602 1462 
C 742 1648 883 1764 1062 1911 
L 403 -1031 
C 365 -1210 269 -1287 64 -1319 
L -58 -1338 
C -90 -1345 -122 -1351 -122 -1389 
L -122 -1511 
L -109 -1524 
C -109 -1524 326 -1492 557 -1492 
C 806 -1492 1242 -1505 1242 -1505 
L 1254 -1492 
L 1254 -1364 
C 1254 -1332 1242 -1319 1216 -1313 
L 1094 -1293 
C 998 -1281 832 -1249 883 -1031 
L 1165 147 
C 1261 44 1446 -64 1632 -64 
C 2086 -64 2458 192 2739 532 
C 3085 955 3258 1392 3258 1854 
C 3258 2393 3078 2816 2438 2816 
C 2112 2816 1875 2694 1702 2591 
z
M 2733 1751 
C 2733 1436 2605 994 2362 615 
C 2195 352 1939 160 1696 160 
C 1530 160 1357 243 1222 429 
L 1645 2303 
C 1805 2405 1990 2521 2234 2521 
C 2669 2521 2733 2065 2733 1751 
z
" transform="scale(0.015625)"/>
       <path id="LinLibertineT-6d" d="M 1088 2298 
C 1082 2489 1069 2719 1037 2783 
C 1024 2816 1011 2835 960 2835 
C 781 2764 614 2707 173 2649 
C 160 2611 173 2508 186 2470 
C 531 2438 602 2406 602 2036 
L 602 791 
C 602 268 518 236 166 211 
C 128 172 128 38 166 0 
C 358 6 602 12 858 12 
C 1114 12 1312 6 1504 0 
C 1542 38 1542 172 1504 211 
C 1178 243 1107 268 1107 791 
L 1107 1838 
C 1107 1972 1165 2049 1216 2106 
C 1472 2355 1709 2483 1907 2483 
C 2150 2483 2330 2329 2330 1902 
L 2330 791 
C 2330 268 2278 236 1933 211 
C 1901 172 1901 38 1933 0 
C 2093 6 2330 12 2586 12 
C 2842 12 3053 6 3213 0 
C 3245 38 3245 172 3213 211 
C 2893 236 2835 268 2835 791 
L 2835 1806 
C 2835 1896 2835 1985 2829 2061 
C 3136 2400 3424 2483 3674 2483 
C 3917 2483 4058 2342 4058 1915 
L 4058 791 
C 4058 268 3994 236 3661 211 
C 3629 172 3629 38 3661 0 
C 3821 6 4058 12 4314 12 
C 4570 12 4794 6 4973 0 
C 5005 38 5005 172 4973 211 
C 4621 236 4563 268 4563 791 
L 4563 1800 
C 4563 2368 4467 2816 3904 2816 
C 3578 2816 3181 2694 2848 2342 
C 2829 2323 2790 2291 2778 2349 
C 2720 2611 2470 2816 2138 2816 
C 1766 2816 1434 2598 1165 2298 
C 1133 2266 1094 2221 1088 2298 
z
" transform="scale(0.015625)"/>
      </defs>
      <use xlink:href="#LibertineMathMI-3f" transform="scale(0.996264)"/>
      <use xlink:href="#LinLibertineT-2d" transform="translate(55.740938 0)scale(0.996264)"/>
      <use xlink:href="#LinLibertineT-6d" transform="translate(89.41468 0)scale(0.996264)"/>
      <use xlink:href="#LinLibertineT-65" transform="translate(168.119521 0)scale(0.996264)"/>
      <use xlink:href="#LinLibertineT-61" transform="translate(212.652474 0)scale(0.996264)"/>
      <use xlink:href="#LinLibertineT-6e" transform="translate(258.181706 0)scale(0.996264)"/>
     </g>
    </g>
    <g id="line2d_21">
     <path d="M 194.777128 141.562554 
L 200.777128 141.562554 
L 206.777128 141.562554 
" style="fill: none; stroke: #d4682c; stroke-width: 1.5; stroke-linecap: square"/>
     <g>
      <use xlink:href="#m2746d7a021" x="200.777128" y="141.562554" style="fill: #d4682c"/>
     </g>
    </g>
    <g id="text_14">
     <!-- Pol.is GIC -->
     <g transform="translate(209.977128 144.362554)scale(0.08 -0.08)">
      <defs>
       <path id="LinLibertineT-50" d="M 1210 3591 
C 1210 3779 1306 4006 1766 4006 
C 2208 4006 2650 3857 2650 3033 
C 2650 2333 2317 2048 1696 2048 
C 1536 2048 1280 2060 1210 2080 
L 1210 3591 
z
M 666 3390 
L 666 798 
C 666 262 557 230 109 211 
C 70 172 70 38 109 0 
C 397 6 710 12 941 12 
C 1165 12 1542 6 1862 0 
C 1901 38 1901 172 1862 211 
C 1363 237 1210 262 1210 798 
L 1210 1894 
C 1350 1849 1504 1830 1728 1830 
C 2893 1830 3245 2599 3245 3150 
C 3245 3532 2995 4224 1811 4224 
C 1568 4224 1190 4179 934 4179 
C 698 4179 365 4185 109 4191 
C 70 4153 70 4019 109 3980 
C 557 3960 666 3928 666 3390 
z
" transform="scale(0.015625)"/>
       <path id="LinLibertineT-6c" d="M 608 790 
C 608 262 538 230 147 211 
C 109 172 109 38 147 0 
C 371 6 608 12 864 12 
C 1120 12 1363 6 1574 0 
C 1613 38 1613 172 1574 211 
C 1184 230 1114 262 1114 790 
L 1114 3726 
C 1114 4140 1139 4408 1139 4408 
C 1139 4458 1114 4480 1056 4480 
C 896 4408 416 4309 160 4288 
C 147 4236 160 4134 198 4096 
C 570 4070 608 4051 608 3573 
L 608 790 
z
" transform="scale(0.015625)"/>
       <path id="LinLibertineT-2e" d="M 365 275 
C 365 89 518 -64 704 -64 
C 890 -64 1043 89 1043 275 
C 1043 460 890 614 704 614 
C 518 614 365 460 365 275 
z
" transform="scale(0.015625)"/>
       <path id="LinLibertineT-47" d="M 2413 4224 
C 1344 4224 237 3379 237 1958 
C 237 810 1030 -64 2253 -64 
C 3008 -64 3603 96 4038 465 
C 3968 523 3936 574 3936 644 
L 3936 1383 
C 3936 1606 4045 1670 4230 1689 
C 4269 1727 4269 1881 4230 1920 
C 4077 1913 3917 1907 3661 1907 
C 3450 1907 3149 1913 2867 1920 
C 2829 1881 2829 1727 2867 1689 
C 3219 1664 3392 1638 3392 1383 
L 3392 408 
C 3174 204 2746 166 2400 166 
C 1389 166 851 1243 851 2087 
C 851 3218 1581 3993 2323 3993 
C 3251 3993 3514 3457 3680 2901 
C 3750 2895 3821 2908 3891 2940 
C 3878 3211 3846 3470 3744 3935 
C 3360 3999 3123 4224 2413 4224 
z
" transform="scale(0.015625)"/>
       <path id="LinLibertineT-49" d="M 1222 794 
L 1222 3365 
C 1222 3897 1331 3929 1779 3948 
C 1818 3987 1818 4121 1779 4160 
C 1498 4153 1197 4147 947 4147 
C 736 4147 422 4153 122 4160 
C 83 4121 83 3987 122 3948 
C 570 3929 678 3897 678 3365 
L 678 794 
C 678 262 570 230 122 211 
C 83 172 83 38 122 0 
C 410 6 723 12 954 12 
C 1184 12 1491 6 1779 0 
C 1818 38 1818 172 1779 211 
C 1331 230 1222 262 1222 794 
z
" transform="scale(0.015625)"/>
       <path id="LinLibertineT-43" d="M 2285 -64 
C 2906 -64 3475 230 3910 802 
C 3878 859 3834 898 3763 898 
C 3309 397 2874 198 2278 198 
C 1414 198 819 1174 819 2112 
C 819 2664 966 3126 1197 3415 
C 1517 3807 1888 3987 2221 3987 
C 3104 3987 3456 3460 3622 2908 
C 3699 2882 3763 2902 3834 2940 
C 3802 3274 3757 3582 3693 3935 
C 3366 3968 3078 4224 2291 4224 
C 1747 4224 1293 4025 915 3679 
C 493 3287 237 2657 237 1990 
C 237 872 909 -64 2285 -64 
z
" transform="scale(0.015625)"/>
      </defs>
      <use xlink:href="#LinLibertineT-50" transform="scale(0.996264)"/>
      <use xlink:href="#LinLibertineT-6f" transform="translate(53.897919 0)scale(0.996264)"/>
      <use xlink:href="#LinLibertineT-6c" transform="translate(104.109589 0)scale(0.996264)"/>
      <use xlink:href="#LinLibertineT-2e" transform="translate(130.410953 0)scale(0.996264)"/>
      <use xlink:href="#LinLibertineT-69" transform="translate(152.328776 0)scale(0.996264)"/>
      <use xlink:href="#LinLibertineT-73" transform="translate(179.327522 0)scale(0.996264)"/>
      <use xlink:href="#LinLibertineT-47" transform="translate(243.088449 0)scale(0.996264)"/>
      <use xlink:href="#LinLibertineT-49" transform="translate(311.332564 0)scale(0.996264)"/>
      <use xlink:href="#LinLibertineT-43" transform="translate(340.921587 0)scale(0.996264)"/>
     </g>
    </g>
    <g id="line2d_22">
     <path d="M 194.777128 151.419589 
L 200.777128 151.419589 
L 206.777128 151.419589 
" style="fill: none; stroke: #4878a6; stroke-width: 1.5; stroke-linecap: square"/>
     <g>
      <use xlink:href="#mbaffabc73f" x="200.777128" y="151.419589" style="fill: #4878a6"/>
     </g>
    </g>
    <g id="text_15">
     <!-- PD -->
     <g transform="translate(209.977128 154.219589)scale(0.08 -0.08)">
      <defs>
       <path id="LinLibertineT-44" d="M 1222 550 
L 1222 3628 
C 1222 3852 1446 3942 1760 3942 
C 3142 3942 3597 2820 3597 1833 
C 3597 538 2822 217 1920 217 
C 1293 217 1222 345 1222 550 
z
M 122 4160 
C 83 4121 83 3987 122 3948 
C 570 3929 678 3897 678 3365 
L 678 794 
C 678 262 570 230 122 211 
C 83 172 83 38 122 0 
C 371 6 710 12 954 12 
C 1190 12 1459 0 2118 0 
C 3021 0 4211 409 4211 1987 
C 4211 3179 3232 4160 2003 4160 
C 1549 4160 1197 4147 947 4147 
C 717 4147 378 4153 122 4160 
z
" transform="scale(0.015625)"/>
      </defs>
      <use xlink:href="#LinLibertineT-50" transform="scale(0.996264)"/>
      <use xlink:href="#LinLibertineT-44" transform="translate(53.897919 0)scale(0.996264)"/>
     </g>
    </g>
   </g>
  </g>
 </g>
 <defs>
  <clipPath id="pda4168a99b">
   <rect x="29.096752" y="3.6" width="220.502768" height="159.676623"/>
  </clipPath>
 </defs>
</svg>
